<?xml version="1.0" standalone="no"?>
<!DOCTYPE svg PUBLIC "-//W3C//DTD SVG 1.1//EN" "http://www.w3.org/Graphics/SVG/1.1/DTD/svg11.dtd" >
<svg xmlns="http://www.w3.org/2000/svg" xmlns:xlink="http://www.w3.org/1999/xlink" version="1.1">
<metadata>
Created by FontForge 20170104 at Thu Apr 20 16:14:07 2017
 By Joshua Finklea
Copyright (c) 2016 by Equipment Search. All rights reserved.
</metadata>
<defs>
<font id="JDSansPro-Medium" horiz-adv-x="499" >
  <font-face 
    font-family="JD Sans Pro Medium"
    font-weight="500"
    font-stretch="normal"
    units-per-em="1000"
    panose-1="2 0 6 0 0 0 0 2 0 0"
    ascent="800"
    descent="-200"
    x-height="467"
    cap-height="689"
    bbox="-159 -257 1154 1006"
    underline-thickness="40"
    underline-position="-118"
    unicode-range="U+000D-FB04"
  />
<missing-glyph horiz-adv-x="978" 
d="M99 780h780v-780h-780v780zM489 435l279 279h-558zM809 115v550l-275 -275zM169 665v-550l275 275zM210 66h558l-279 279z" />
    <glyph glyph-name="fi" unicode="fi" horiz-adv-x="559" 
d="M233 730q35 0 57 -4t47 -10l-6 -68q-27 7 -47.5 10.5t-44.5 3.5q-20 0 -32 -7t-18.5 -18.5t-8.5 -26.5t-2 -31v-112h137v-67h-137v-400h-77v400h-72v62l72 5v106q0 37 6.5 66t22 49t41 31t62.5 11zM408 568v93h82v-93h-82zM411 0v467h77v-467h-77z" />
    <glyph glyph-name="fl" unicode="fl" horiz-adv-x="557" 
d="M411 0v720h77v-720h-77zM233 730q35 0 57 -4t47 -10l-6 -68q-27 7 -47.5 10.5t-44.5 3.5q-20 0 -32 -7t-18.5 -18.5t-8.5 -26.5t-2 -31v-112h137v-67h-137v-400h-77v400h-72v62l72 5v106q0 37 6.5 66t22 49t41 31t62.5 11z" />
    <glyph glyph-name="f_dotlessi" unicode="f&#x131;" horiz-adv-x="559" 
d="M233 730q35 0 57 -4t47 -10l-6 -68q-27 7 -47.5 10.5t-44.5 3.5q-20 0 -32 -7t-18.5 -18.5t-8.5 -26.5t-2 -31v-112h137v-67h-137v-400h-77v400h-72v62l72 5v106q0 37 6.5 66t22 49t41 31t62.5 11zM411 0v467h77v-467h-77z" />
    <glyph glyph-name=".notdef" horiz-adv-x="978" 
d="M99 780h780v-780h-780v780zM489 435l279 279h-558zM809 115v550l-275 -275zM169 665v-550l275 275zM210 66h558l-279 279z" />
    <glyph glyph-name=".null" horiz-adv-x="0" 
 />
    <glyph glyph-name=".null" horiz-adv-x="0" 
 />
    <glyph glyph-name="nonmarkingreturn" unicode="&#xd;" horiz-adv-x="194" 
 />
    <glyph glyph-name="space" unicode=" " horiz-adv-x="194" 
 />
    <glyph glyph-name="space" unicode="&#xa0;" horiz-adv-x="194" 
 />
    <glyph glyph-name="exclam" unicode="!" horiz-adv-x="333" 
d="M199 197h-66l-11 492h89zM119 0v95h95v-95h-95z" />
    <glyph glyph-name="quotedbl" unicode="&#x22;" horiz-adv-x="366" 
d="M147 476h-59l-11 213h80zM279 476h-59l-11 213h80z" />
    <glyph glyph-name="numbersign" unicode="#" horiz-adv-x="544" 
d="M535 497l-12 -57h-96l-37 -176h95l-12 -57h-95l-44 -207h-59l44 207h-123l-45 -207h-59l44 207h-93l12 57h93l38 176h-92l11 57h93l41 192h59l-41 -192h123l41 192h59l-41 -192h96zM245 440l-38 -176h124l37 176h-123z" />
    <glyph glyph-name="dollar" unicode="$" horiz-adv-x="544" 
d="M392 172q0 23 -7.5 38t-21.5 29q-24 24 -53 43.5t-59.5 38t-60.5 39t-57 47.5q-24 24 -39.5 53t-15.5 74q0 69 42 112t121 51v115h66v-114q33 -1 64 -4.5t61 -8.5l-6 -74q-38 7 -74 11.5t-76 4.5q-57 0 -86 -27.5t-29 -66.5q0 -22 6 -37t23 -32q24 -24 54 -44t62.5 -39.5
t64 -40.5t58.5 -48q24 -24 35.5 -51.5t11.5 -69.5q0 -36 -12.5 -65.5t-34.5 -52t-53.5 -37.5t-68.5 -21v-133h-66v128q-38 1 -80.5 5.5t-71.5 10.5l6 75q42 -8 80 -13t71 -5q70 0 108 28.5t38 80.5z" />
    <glyph glyph-name="percent" unicode="%" horiz-adv-x="589" 
d="M274 546q0 -80 -28.5 -113t-91.5 -33t-91.5 33.5t-28.5 112.5q0 80 28.5 113.5t91.5 33.5t91.5 -33.5t28.5 -113.5zM180 0h-62l294 689h62zM212 546q0 31 -3.5 50.5t-10.5 30.5t-18 14.5t-26 3.5t-26 -3.5t-18 -14.5t-10.5 -30.5t-3.5 -50.5q0 -32 3.5 -51t10.5 -29.5
t18 -14t26 -3.5t26 3.5t18 14t10.5 29.5t3.5 51zM555 136q0 -80 -28 -113t-91 -33q-65 0 -93 33t-28 113t28 113.5t93 33.5q63 0 91 -33.5t28 -113.5zM493 136q0 31 -3.5 50.5t-10 30.5t-17.5 14.5t-26 3.5t-26.5 -3.5t-18.5 -14t-10.5 -30t-3.5 -51.5t3.5 -51t10.5 -29.5
t18.5 -14t26.5 -3.5t26 3.5t17.5 14t10 29.5t3.5 51z" />
    <glyph glyph-name="ampersand" unicode="&#x26;" horiz-adv-x="605" 
d="M75 162q0 36 10.5 66.5t28.5 57t40.5 49t46.5 42.5q-15 20 -30.5 40.5t-27.5 43t-20 47.5t-8 54q0 24 7.5 48.5t24 44t43.5 32t66 12.5q74 0 107.5 -37.5t33.5 -96.5q0 -31 -9 -58t-23.5 -51t-33 -44.5t-38.5 -38.5q16 -21 34.5 -44.5t37.5 -47t37 -45.5t33 -40
q8 23 11.5 46.5t5.5 50.5h74q-6 -85 -40 -154q10 -11 23 -23.5t27 -25.5t27.5 -25t24.5 -22l-57 -49q-20 17 -42.5 38.5t-42.5 41.5q-32 -40 -76.5 -62t-98.5 -22q-51 0 -88 14.5t-61 38.5t-35.5 55t-11.5 64zM192 565q0 -38 20 -72t43 -66q29 27 49.5 59.5t20.5 73.5
q0 47 -21 63.5t-49 16.5q-29 0 -46 -21t-17 -54zM271 59q38 0 71 18t56 50q-13 15 -32.5 39t-41.5 51t-44.5 55.5t-41.5 53.5q-44 -40 -64.5 -75.5t-20.5 -84.5q0 -45 29 -76t89 -31z" />
    <glyph glyph-name="quotesingle" unicode="'" horiz-adv-x="234" 
d="M147 476h-59l-11 213h80z" />
    <glyph glyph-name="parenleft" unicode="(" horiz-adv-x="278" 
d="M218 766q-32 -90 -50 -194.5t-18 -228.5q0 -122 17.5 -226t49.5 -194h-73q-34 85 -52 193t-18 228q0 118 18 227.5t52 194.5h74z" />
    <glyph glyph-name="parenright" unicode=")" horiz-adv-x="278" 
d="M116 766q34 -85 52 -194.5t18 -227.5q0 -120 -18 -228t-52 -193h-73q32 90 49.5 194t17.5 226q0 124 -18 228.5t-50 194.5h74z" />
    <glyph glyph-name="asterisk" unicode="*" horiz-adv-x="435" 
d="M191 580l-8 140h69l-9 -140l134 52l19 -68l-135 -33l97 -112l-56 -37l-84 120l-83 -120l-57 37l96 112l-135 33l19 68z" />
    <glyph glyph-name="plus" unicode="+" horiz-adv-x="550" 
d="M307 309v-179h-66v179h-178v66h178v179h66v-179h180v-66h-180z" />
    <glyph glyph-name="comma" unicode="," horiz-adv-x="234" 
d="M161 53q-9 -92 -59 -162h-57q9 23 15.5 42.5t10.5 39.5t5.5 43.5t1.5 53.5l-1 35h87z" />
    <glyph glyph-name="hyphen" unicode="-" horiz-adv-x="371" 
d="M62 204v67h247v-67h-247z" />
    <glyph glyph-name="hyphen" unicode="&#xad;" horiz-adv-x="371" 
d="M62 204v67h247v-67h-247z" />
    <glyph glyph-name="period" unicode="." horiz-adv-x="253" 
d="M79 0v95h95v-95h-95z" />
    <glyph glyph-name="slash" unicode="/" horiz-adv-x="380" 
d="M10 -5l266 699h73l-266 -699h-73z" />
    <glyph glyph-name="zero" unicode="0" horiz-adv-x="562" 
d="M61 343q0 95 10.5 162.5t36 110.5t67.5 63t106 20t106 -20t67.5 -63t36 -110.5t10.5 -162.5t-10.5 -161.5t-36 -109.5t-67.5 -62.5t-106 -19.5t-106 19.5t-67.5 62.5t-36 109.5t-10.5 161.5zM423 343q0 86 -7 141.5t-23.5 88t-44 45t-67.5 12.5q-41 0 -68 -12.5
t-43.5 -45t-23.5 -88t-7 -141.5t7 -141t23.5 -86.5t44 -44t67.5 -12.5t67.5 12.5t44 44t23.5 86.5t7 141z" />
    <glyph glyph-name="one" unicode="1" horiz-adv-x="292" 
d="M138 0v622h-112v67h188v-689h-76z" />
    <glyph glyph-name="two" unicode="2" horiz-adv-x="493" 
d="M235 285q15 18 33 42.5t34 52.5t27 60t11 65q0 67 -32 96.5t-99 29.5q-28 0 -61.5 -3t-74.5 -8l-3 68q48 7 83 9t64 2q97 0 149 -45t52 -145q0 -38 -11 -74t-28 -68.5t-38 -61t-41 -52.5l-155 -185v-1q16 1 27 1.5t24 0.5h225v-69h-370v61z" />
    <glyph glyph-name="three" unicode="3" horiz-adv-x="447" 
d="M396 205q0 -57 -17 -97.5t-47 -66.5t-72 -38.5t-91 -12.5q-34 0 -69.5 2t-66.5 6l3 70q38 -5 72.5 -6.5t58.5 -1.5q34 0 61.5 7.5t47.5 24.5t31 44.5t11 68.5q0 55 -24.5 85t-89.5 30h-69v69h58q33 0 55 8.5t34.5 23.5t17.5 36t5 46q0 67 -28.5 97.5t-91.5 30.5
q-32 0 -67 -3t-76 -8l-3 68q49 7 84.5 9t69.5 2q93 0 141.5 -46.5t48.5 -146.5q0 -51 -19 -84.5t-55 -58.5v-2q87 -44 87 -156z" />
    <glyph glyph-name="four" unicode="4" horiz-adv-x="541" 
d="M424 179v-179h-76v179h-299l-2 60l197 450h80l-188 -441h212l11 203h65v-203h105v-69h-105z" />
    <glyph glyph-name="five" unicode="5" horiz-adv-x="484" 
d="M361 204q0 24 -6.5 45t-22 36.5t-40.5 24.5t-62 9h-153v370h335v-69h-261v-228h87q103 0 152 -50t49 -134q0 -56 -17 -96.5t-48.5 -67.5t-75 -40t-97.5 -14q-32 0 -65 2t-62 6l5 70q35 -5 66 -6.5t54 -1.5q36 0 66 7.5t51.5 24.5t33 44.5t11.5 67.5z" />
    <glyph glyph-name="six" unicode="6" horiz-adv-x="550" 
d="M66 321q0 78 11 147t41.5 120.5t84.5 81t139 29.5q20 0 45.5 -1.5t51.5 -4.5l-3 -68q-21 3 -47 4.5t-45 1.5q-59 0 -96.5 -19t-60 -53.5t-32 -83.5t-11.5 -109h2q35 23 78 35.5t82 12.5q94 0 141.5 -52.5t47.5 -148.5q0 -54 -15.5 -96t-42.5 -70t-64.5 -42.5t-82.5 -14.5
q-60 0 -102.5 24.5t-69.5 69t-39.5 105t-12.5 132.5zM296 345q-40 0 -80 -16.5t-70 -42.5q0 -44 7.5 -85.5t25 -73t45.5 -50.5t68 -19q19 0 41.5 6t41 22.5t31 45.5t12.5 76q0 41 -10.5 67.5t-27.5 42t-39 21.5t-45 6z" />
    <glyph glyph-name="seven" unicode="7" horiz-adv-x="454" 
d="M112 0l198 569l10 26t10 23l-1 2h-301v69h381l2 -62l-219 -627h-80z" />
    <glyph glyph-name="eight" unicode="8" horiz-adv-x="566" 
d="M283 699q42 0 78 -10t62.5 -32.5t41.5 -59.5t15 -91q0 -50 -20.5 -88.5t-49.5 -60.5v-1q35 -21 62 -61.5t27 -100.5q0 -57 -17 -96t-46 -63t-68.5 -34.5t-84.5 -10.5t-84.5 10.5t-68.5 34.5t-46 63t-17 96q0 60 27 100.5t62 61.5v1q-29 22 -49.5 60.5t-20.5 88.5
q0 54 15 91t41.5 59.5t62.5 32.5t78 10zM283 633q-27 0 -49.5 -6t-38 -21t-24 -39.5t-8.5 -61.5q0 -51 28.5 -83.5t91.5 -32.5t91.5 32.5t28.5 83.5q0 37 -8.5 61.5t-24 39.5t-38 21t-49.5 6zM283 58q31 0 56.5 6t43.5 22t28 42.5t10 67.5q0 57 -33 90.5t-105 33.5
t-105 -33.5t-33 -90.5q0 -41 10 -67.5t28 -42.5t43.5 -22t56.5 -6z" />
    <glyph glyph-name="nine" unicode="9" horiz-adv-x="550" 
d="M484 368q0 -78 -11 -147t-41.5 -120.5t-84.5 -81t-139 -29.5q-20 0 -45.5 1.5t-51.5 4.5l3 68q21 -3 47 -4.5t45 -1.5q59 0 96.5 19t60 53.5t32 83.5t11.5 109h-2q-35 -23 -78 -35.5t-82 -12.5q-94 0 -141.5 52.5t-47.5 148.5q0 54 15.5 96t42.5 70t64.5 42.5t82.5 14.5
q60 0 102.5 -24.5t69.5 -69t39.5 -105t12.5 -132.5zM254 344q40 0 80 16.5t70 42.5q0 44 -7.5 85.5t-25 73t-45.5 50.5t-68 19q-20 0 -42 -6t-40.5 -22.5t-31 -45.5t-12.5 -76q0 -41 10.5 -67.5t27.5 -42t39 -21.5t45 -6z" />
    <glyph glyph-name="colon" unicode=":" horiz-adv-x="253" 
d="M79 0v95h95v-95h-95zM79 372v95h95v-95h-95z" />
    <glyph glyph-name="semicolon" unicode=";" horiz-adv-x="241" 
d="M156 53q-9 -92 -59 -162h-57q9 23 15.5 42.5t10.5 39.5t5.5 43.5t1.5 53.5l-1 35h87zM65 372v95h95v-95h-95z" />
    <glyph glyph-name="less" unicode="&#x3c;" horiz-adv-x="560" 
d="M67 311v62l424 179v-73l-343 -137l343 -138v-73z" />
    <glyph glyph-name="equal" unicode="=" horiz-adv-x="568" 
d="M72 398v66h424v-66h-424zM72 220v66h424v-66h-424z" />
    <glyph glyph-name="greater" unicode="&#x3e;" horiz-adv-x="560" 
d="M69 131v73l343 138l-343 137v73l424 -179v-62z" />
    <glyph glyph-name="question" unicode="?" horiz-adv-x="377" 
d="M356 555q0 -25 -7.5 -46t-20 -39t-28.5 -34.5t-33 -33.5l-22 -22q-31 -31 -44 -56.5t-13 -65.5q0 -10 1 -23.5t8 -39.5h-74q-5 21 -7 35.5t-2 32.5q0 59 24.5 99t60.5 74l16 15q11 10 22.5 22t21 24.5t15.5 26t6 27.5q0 41 -27.5 57.5t-73.5 16.5q-25 0 -58.5 -2.5
t-65.5 -8.5l-6 73q33 5 69.5 7.5t60.5 2.5q34 0 66 -6.5t56.5 -23t39.5 -43.5t15 -69zM114 0v95h95v-95h-95z" />
    <glyph glyph-name="at" unicode="@" horiz-adv-x="879" 
d="M501 29q2 12 2 24t2 23q-20 -18 -49 -34t-74 -16q-32 0 -58 12t-45 34.5t-29.5 54.5t-10.5 71q0 69 16 126.5t47 98t76 63t103 22.5q39 0 82 -8.5t78 -21.5l-71 -387q37 0 70.5 21t58.5 58.5t40 89t15 111.5q0 134 -69.5 200.5t-191.5 66.5q-83 0 -151 -36t-116.5 -98
t-75 -145t-26.5 -176q0 -74 18.5 -127t52 -87.5t80.5 -51t104 -16.5q30 0 61.5 4t59.5 9.5t51 12.5t37 13q5 -14 10 -29l10 -30q-20 -9 -46.5 -17t-56 -14t-61.5 -10t-63 -4q-72 0 -131 20t-101.5 62t-66 107.5t-23.5 157.5q0 117 33 212t91.5 162.5t138 104.5t171.5 37
q81 0 142.5 -23t102.5 -65t61.5 -101.5t20.5 -133.5q0 -75 -19.5 -139t-54 -110t-82.5 -72t-104 -26h-59zM403 91q35 0 61.5 15.5t45.5 33.5l52 287q-17 6 -40 10.5t-51 4.5q-69 0 -113.5 -60t-44.5 -178q0 -56 23.5 -84.5t66.5 -28.5z" />
    <glyph glyph-name="A" unicode="A" horiz-adv-x="549" 
d="M446 0l-43 152h-256l-44 -152h-84l203 689h105l203 -689h-84zM307 499q-4 14 -8 31t-8.5 35t-8 35t-6.5 31q-6 -28 -15.5 -65.5t-17.5 -66.5l-77 -276h217z" />
    <glyph glyph-name="B" unicode="B" horiz-adv-x="549" 
d="M501 193q0 -90 -42.5 -141.5t-132.5 -51.5h-242v689h240q45 0 76 -13.5t50.5 -36.5t28.5 -55t9 -69q0 -53 -20.5 -94t-58.5 -63q42 -17 67 -61t25 -104zM405 507q0 23 -4 43.5t-14 35.5t-27 24t-43 9h-152v-230h155q24 0 40.5 9.5t26 25.5t14 37.5t4.5 45.5zM418 193
q0 25 -4.5 47.5t-15 39.5t-28 27.5t-44.5 10.5h-161v-248h156q50 0 73.5 32t23.5 91z" />
    <glyph glyph-name="C" unicode="C" horiz-adv-x="519" 
d="M329 62q37 0 71 6t74 17l6 -75q-35 -9 -70 -14.5t-82 -5.5q-80 0 -132 25t-82.5 71.5t-42.5 112t-12 145.5q0 81 12 146.5t42.5 112t83.5 71.5t134 25q43 0 78 -5t71 -14l-9 -76q-38 10 -70 16.5t-70 6.5q-58 0 -94.5 -19t-57.5 -55.5t-28.5 -89t-7.5 -119.5t7.5 -119.5
t28 -88.5t56.5 -55t94 -19z" />
    <glyph glyph-name="D" unicode="D" horiz-adv-x="612" 
d="M553 345q0 -105 -18 -179t-61 -115q-18 -17 -37 -27.5t-41.5 -15.5t-49.5 -6.5t-60 -1.5h-202v689h202q33 0 60 -1.5t49.5 -7t41.5 -15.5t37 -27q42 -42 60.5 -115t18.5 -178zM468 345q0 90 -11 149t-41 88q-26 25 -60.5 30t-79.5 5h-110v-545h110q43 0 78.5 5.5
t60.5 28.5q31 31 42 90.5t11 148.5z" />
    <glyph glyph-name="E" unicode="E" horiz-adv-x="508" 
d="M84 0v689h383v-71h-301v-228h214v-71h-214v-248h301v-71h-383z" />
    <glyph glyph-name="F" unicode="F" horiz-adv-x="488" 
d="M166 618v-228h214v-71h-214v-319h-82v689h374v-71h-292z" />
    <glyph glyph-name="G" unicode="G" horiz-adv-x="590" 
d="M540 22q-41 -12 -95.5 -21.5t-102.5 -9.5q-82 0 -136.5 25.5t-87 72t-46 112t-13.5 145.5q0 81 14 146t47 111t87.5 70.5t135.5 24.5q45 0 83 -4.5t82 -14.5l-9 -75q-40 11 -80 16.5t-78 5.5q-58 0 -96.5 -18.5t-61 -54.5t-31.5 -88t-9 -119q0 -66 8.5 -119t30.5 -89.5
t60.5 -56t99.5 -19.5q13 0 29 1t31.5 3.5t30.5 5.5t26 6v215h-121v71h202v-342z" />
    <glyph glyph-name="H" unicode="H" horiz-adv-x="638" 
d="M473 0v319h-307v-319h-82v689h82v-299h307v299h80v-689h-80z" />
    <glyph glyph-name="I" unicode="I" horiz-adv-x="251" 
d="M84 0v689h82v-689h-82z" />
    <glyph glyph-name="J" unicode="J" horiz-adv-x="370" 
d="M291 168q0 -53 -8 -87t-26 -54.5t-48.5 -28.5t-75.5 -8q-26 0 -61 2t-63 7l4 73q25 -5 54.5 -7.5t58.5 -2.5q27 0 43.5 4t25.5 15.5t12 31t3 49.5v527h81v-521z" />
    <glyph glyph-name="K" unicode="K" horiz-adv-x="544" 
d="M438 0l-186 335l-86 -95v-240h-82v689h82v-354l254 354h94l-211 -284l226 -405h-91z" />
    <glyph glyph-name="L" unicode="L" horiz-adv-x="478" 
d="M84 0v689h82v-618h287v-71h-369z" />
    <glyph glyph-name="M" unicode="M" horiz-adv-x="806" 
d="M644 0v627q-8 -35 -17 -69t-17 -60l-160 -498h-97l-158 498q-8 25 -16.5 58t-17.5 71v-627h-77v689h130l158 -499q10 -32 17.5 -64.5t12.5 -60.5q5 28 12 60.5t18 64.5l160 499h130v-689h-78z" />
    <glyph glyph-name="N" unicode="N" horiz-adv-x="649" 
d="M451 165q14 -29 22 -50t17 -46h2q0 7 -1 21t-2 29t-1.5 28.5t-0.5 21.5v520h77v-689h-113l-257 532q-9 19 -17 38.5t-19 45.5h-2q1 -8 1.5 -21.5t1.5 -28t1.5 -28t0.5 -19.5v-519h-77v689h114z" />
    <glyph glyph-name="O" unicode="O" horiz-adv-x="634" 
d="M577 343q0 -80 -11 -145.5t-40 -111.5t-79.5 -71t-129.5 -25q-78 0 -128.5 25t-80 71.5t-40.5 111.5t-11 146q0 80 11 145.5t40.5 112t80 72t128.5 25.5q79 0 129.5 -25.5t79.5 -72t40 -112t11 -146.5zM493 344q0 67 -7 120t-26.5 89t-54 55t-88.5 19t-88.5 -19t-54 -55
t-26.5 -89t-7 -120q0 -68 7 -120t26.5 -88t54 -54.5t88.5 -18.5t88.5 18.5t54 54.5t26.5 88t7 120z" />
    <glyph glyph-name="P" unicode="P" horiz-adv-x="529" 
d="M497 481q0 -42 -7.5 -79.5t-26.5 -66t-51.5 -45t-82.5 -16.5h-164v-274h-81v689h244q50 0 83 -17t52 -45.5t26.5 -66.5t7.5 -79zM417 481q0 27 -3.5 51.5t-13.5 43.5t-28 30t-48 11h-159v-272h159q31 0 49 11t28 29.5t13 43.5t3 52z" />
    <glyph glyph-name="Q" unicode="Q" horiz-adv-x="634" 
d="M577 343q0 -98 -17.5 -173.5t-64.5 -120.5l88 -101h-98l-53 61q-24 -9 -52.5 -14t-62.5 -5q-78 0 -128.5 25t-80 71.5t-40.5 111.5t-11 146q0 80 11 145.5t40.5 112t80 72t128.5 25.5q79 0 129.5 -25.5t79.5 -72t40 -112t11 -146.5zM493 344q0 67 -7 120t-26.5 89t-54 55
t-88.5 19t-88.5 -19t-54 -55t-26.5 -89t-7 -120q0 -68 7 -120t26.5 -88t54 -54.5t88.5 -18.5q37 0 62 7l-97 113h98l62 -72q30 35 40.5 93.5t10.5 139.5z" />
    <glyph glyph-name="R" unicode="R" horiz-adv-x="537" 
d="M412 0l-132 291h-115v-291h-81v689h238q48 0 81 -13.5t53.5 -39t29.5 -61t9 -78.5q0 -88 -32.5 -137.5t-101.5 -62.5l138 -297h-87zM414 496q0 25 -3.5 47.5t-14 38.5t-28.5 25.5t-46 9.5h-157v-254h144q34 0 54.5 9.5t31.5 27t15 42t4 54.5z" />
    <glyph glyph-name="S" unicode="S" horiz-adv-x="488" 
d="M361 172q0 23 -7.5 38t-21.5 29q-24 24 -53 43.5t-59.5 38t-60.5 39t-57 47.5q-24 24 -39.5 53t-15.5 74q0 76 51.5 120.5t147.5 44.5q43 0 80.5 -3.5t74.5 -10.5l-6 -74q-38 7 -74 11.5t-76 4.5q-57 0 -86 -27.5t-29 -66.5q0 -22 6 -37t23 -32q24 -24 54 -44t62.5 -39.5
t64 -40.5t58.5 -48q24 -24 35.5 -51.5t11.5 -69.5t-16.5 -75.5t-46.5 -57t-71 -36t-89 -12.5q-19 0 -41.5 1t-44.5 3.5t-42.5 5.5t-35.5 6l6 75q42 -8 80 -13t71 -5q70 0 108 28.5t38 80.5z" />
    <glyph glyph-name="T" unicode="T" horiz-adv-x="490" 
d="M286 617v-617h-80v617h-181v72h440v-72h-179z" />
    <glyph glyph-name="U" unicode="U" horiz-adv-x="597" 
d="M528 189q0 -54 -19.5 -91.5t-51.5 -61.5t-73.5 -35t-85.5 -11q-43 0 -84 11t-73.5 34.5t-52 61.5t-19.5 92v500h81v-499q0 -63 41.5 -95.5t107.5 -32.5q31 0 58.5 8t47.5 24t31.5 40t11.5 56v499h80v-500z" />
    <glyph glyph-name="V" unicode="V" horiz-adv-x="556" 
d="M328 0h-100l-207 689h86l146 -504q7 -23 13.5 -53t11.5 -63q6 34 13.5 62.5t14.5 53.5l145 504h84z" />
    <glyph glyph-name="W" unicode="W" horiz-adv-x="853" 
d="M827 689l-157 -689h-112l-108 494q-8 36 -14 71.5t-9 61.5q-4 -26 -10.5 -62.5t-14.5 -71.5l-111 -493h-112l-153 689h85l100 -468q8 -38 14.5 -79.5t9.5 -70.5q5 29 14.5 70.5t17.5 79.5l105 468h111l103 -468q8 -38 16 -80t12 -71q1 15 4.5 34t7.5 39t8 39.5t8 36.5
l101 470h84z" />
    <glyph glyph-name="X" unicode="X" horiz-adv-x="571" 
d="M449 0l-164 279l-162 -279h-94l208 345l-196 344h94l151 -280l152 280h93l-197 -344l208 -345h-93z" />
    <glyph glyph-name="Y" unicode="Y" horiz-adv-x="534" 
d="M308 284v-284h-82v285l-210 404h89l163 -321l160 321h90z" />
    <glyph glyph-name="Z" unicode="Z" horiz-adv-x="508" 
d="M41 0v55l326 561h-316v73h416v-54l-325 -563h325v-72h-426z" />
    <glyph glyph-name="bracketleft" unicode="[" horiz-adv-x="309" 
d="M89 -77v843h178v-68h-103v-707h103v-68h-178z" />
    <glyph glyph-name="backslash" unicode="\" horiz-adv-x="380" 
d="M279 -5l-266 699h73l266 -699h-73z" />
    <glyph glyph-name="bracketright" unicode="]" horiz-adv-x="309" 
d="M24 -77v68h103v707h-103v68h178v-843h-178z" />
    <glyph glyph-name="asciicircum" unicode="^" horiz-adv-x="565" 
d="M493 264h-73l-138 344l-137 -344h-73l179 425h62z" />
    <glyph glyph-name="underscore" unicode="_" horiz-adv-x="526" 
d="M7 -141v57h512v-57h-512z" />
    <glyph glyph-name="grave" unicode="`" horiz-adv-x="544" 
d="M166 684h89l85 -145h-57z" />
    <glyph glyph-name="a" unicode="a" horiz-adv-x="453" 
d="M327 0l-11 34q-26 -16 -62 -30t-79 -14q-63 0 -100 33.5t-37 105.5q0 53 23 82t60 43.5t83 17.5t91 5h16v66q0 38 -21 54t-63 16q-16 0 -35.5 -2t-39.5 -5.5t-38.5 -8t-32.5 -9.5l-5 70q31 7 70.5 13t87.5 6q72 0 113 -28t41 -94v-355h-61zM311 220h-14q-96 0 -138 -21
t-42 -71q0 -33 15.5 -52.5t50.5 -19.5q36 0 69 10t59 24v130z" />
    <glyph glyph-name="b" unicode="b" 
d="M450 239q0 -56 -9.5 -102t-30.5 -78.5t-54 -50.5t-80 -18q-39 0 -72 10t-65 31l-8 -31h-62v720h77v-283q22 14 55 27t76 13q88 0 130.5 -55.5t42.5 -182.5zM370 239q0 52 -6.5 85t-20 52t-33 26.5t-44.5 7.5q-37 0 -67 -13.5t-53 -27.5v-273q27 -17 57 -27.5t67 -10.5
q51 0 75.5 42.5t24.5 138.5z" />
    <glyph glyph-name="c" unicode="c" horiz-adv-x="411" 
d="M372 0q-26 -4 -59.5 -6.5t-56.5 -2.5q-51 0 -89.5 13t-64.5 41.5t-39.5 74.5t-13.5 112q0 132 53 188t154 56q26 0 57.5 -2.5t58.5 -7.5l-5 -69q-27 5 -55.5 8.5t-54.5 3.5q-37 0 -61.5 -11t-39 -32.5t-20.5 -54.5t-6 -77t6 -77t20.5 -55t39 -33.5t61.5 -11.5q27 0 54 3
t56 8z" />
    <glyph glyph-name="d" unicode="d" 
d="M49 228q0 56 9.5 102t30.5 78.5t54 50.5t80 18q37 0 69 -10t61 -27v280h77v-720h-63l-7 34q-25 -17 -59 -30.5t-77 -13.5q-90 0 -132.5 56t-42.5 182zM129 228q0 -51 6.5 -84.5t19.5 -52.5t32.5 -26.5t45.5 -7.5q37 0 67 13.5t53 27.5v273q-27 17 -57 27.5t-67 10.5
q-51 0 -75.5 -42.5t-24.5 -138.5z" />
    <glyph glyph-name="e" unicode="e" horiz-adv-x="460" 
d="M411 219h-283q0 -48 9.5 -79.5t26.5 -50t40.5 -25.5t50.5 -7q39 0 71 4.5t66 12.5l4 -69q-33 -6 -68.5 -10t-73.5 -4q-50 0 -88.5 13t-64.5 42t-39 75t-13 111q0 130 48 187t148 57q90 0 128 -48t38 -148v-61zM334 278q0 74 -21 104t-70 30q-55 0 -80.5 -29.5
t-31.5 -104.5h203z" />
    <glyph glyph-name="f" unicode="f" horiz-adv-x="353" 
d="M234 730q35 0 63 -4t57 -10l-6 -68q-58 14 -104 14q-22 0 -35 -7t-20 -18.5t-9 -26.5t-2 -31v-112h147v-67h-147v-400h-77v400h-72v62l72 5v106q0 74 29 115.5t104 41.5z" />
    <glyph glyph-name="g" unicode="g" horiz-adv-x="498" 
d="M353 29q-23 -15 -55 -27t-75 -12q-89 0 -131.5 55.5t-42.5 181.5q0 57 9.5 103t30.5 78.5t53.5 50.5t79.5 18q39 0 72.5 -10.5t65.5 -29.5l8 30h61v-515q0 -93 -45.5 -140.5t-138.5 -47.5q-48 0 -86 4t-74 11l5 70q40 -8 75.5 -13t73.5 -5q54 0 84 30t30 94v74zM128 227
q0 -51 7 -84t20 -52t32.5 -26.5t45.5 -7.5q35 0 67 13t52 27v274q-27 17 -57 28t-66 11q-51 0 -76 -43.5t-25 -139.5z" />
    <glyph glyph-name="h" unicode="h" 
d="M435 0h-77v340q0 35 -20.5 52.5t-52.5 17.5q-34 0 -69.5 -9.5t-69.5 -29.5v-371h-77v720h77v-283q38 21 74.5 30.5t78.5 9.5q28 0 53 -7.5t43.5 -23t29 -40.5t10.5 -61v-345z" />
    <glyph glyph-name="i" unicode="i" horiz-adv-x="220" 
d="M69 568v93h82v-93h-82zM72 0v467h77v-467h-77z" />
    <glyph glyph-name="j" unicode="j" horiz-adv-x="221" 
d="M69 568v93h82v-93h-82zM36 -236q-17 0 -38 2t-38 5l4 71q15 -3 32 -5t31 -2q22 0 33.5 14.5t11.5 57.5v560h77v-553q0 -43 -6.5 -72t-20 -46t-35 -24.5t-51.5 -7.5z" />
    <glyph glyph-name="k" unicode="k" horiz-adv-x="439" 
d="M346 0l-140 229l-60 -60v-169h-77v720h77v-476q10 17 23.5 35.5t25.5 35.5l118 152h90l-147 -178l177 -289h-87z" />
    <glyph glyph-name="l" unicode="l" horiz-adv-x="215" 
d="M69 0v720h77v-720h-77z" />
    <glyph glyph-name="m" unicode="m" horiz-adv-x="727" 
d="M131 467l9 -33q67 42 142 42q32 0 59 -11.5t43 -37.5q38 24 76 36.5t81 12.5q25 0 47.5 -7t39 -22.5t26 -40.5t9.5 -61v-345h-77v340q0 35 -17 52t-46 17t-60.5 -9.5t-60.5 -30.5q2 -11 2.5 -22t0.5 -22v-325h-78v340q0 35 -17 52t-45 17q-29 0 -59.5 -9.5t-59.5 -29.5
v-370h-77v467h62z" />
    <glyph glyph-name="n" unicode="n" 
d="M435 0h-77v340q0 35 -20.5 52.5t-52.5 17.5q-34 0 -69.5 -9.5t-69.5 -29.5v-371h-77v467h62l9 -33q39 21 76.5 32t82.5 11q28 0 53 -7.5t43.5 -23t29 -40.5t10.5 -61v-345z" />
    <glyph glyph-name="o" unicode="o" horiz-adv-x="510" 
d="M461 233q0 -131 -52 -187t-154 -56t-154 56t-52 187q0 132 52 188t154 56t154 -56t52 -188zM380 233q0 44 -5.5 77t-20 55.5t-38.5 33.5t-61 11q-38 0 -62 -11t-38 -33.5t-19.5 -55.5t-5.5 -77t5.5 -76.5t19.5 -54.5t38 -33t62 -11q37 0 61 11t38.5 33t20 54.5t5.5 76.5z
" />
    <glyph glyph-name="p" unicode="p" 
d="M450 239q0 -56 -9.5 -102t-30.5 -78.5t-54 -50.5t-80 -18q-38 0 -69.5 10t-60.5 27v-259h-77v699h62l8 -34q24 18 58.5 31t79.5 13q88 0 130.5 -55.5t42.5 -182.5zM370 239q0 51 -6.5 84t-20 52.5t-33 27t-44.5 7.5q-37 0 -67 -13.5t-53 -27.5v-273q27 -17 57 -27.5
t67 -10.5q51 0 75.5 42.5t24.5 138.5z" />
    <glyph glyph-name="q" unicode="q" 
d="M49 228q0 56 9.5 102t30.5 78.5t54 50.5t80 18q38 0 71.5 -10t65.5 -30l8 30h62v-699h-77v261q-24 -15 -56.5 -27t-72.5 -12q-90 0 -132.5 56t-42.5 182zM129 228q0 -51 6.5 -84.5t19.5 -52.5t32.5 -26.5t45.5 -7.5q37 0 67 13.5t53 27.5v273q-27 17 -57 27.5t-67 10.5
q-51 0 -75.5 -42.5t-24.5 -138.5z" />
    <glyph glyph-name="r" unicode="r" horiz-adv-x="322" 
d="M253 476q14 0 26.5 -1t23.5 -4l-4 -74q-12 4 -26.5 5.5t-28.5 1.5t-28.5 -5t-27.5 -13t-24 -18t-18 -20v-348h-77v467h62l8 -53q24 30 50 46t64 16z" />
    <glyph glyph-name="s" unicode="s" horiz-adv-x="395" 
d="M356 121q0 -33 -13.5 -57.5t-37.5 -40.5t-56.5 -24t-69.5 -8q-10 0 -25 1t-31.5 3t-33.5 4.5t-30 6.5l6 68q31 -8 63 -12.5t54 -4.5q54 0 76.5 16.5t22.5 43.5q0 13 -4 21t-12 16q-16 16 -39.5 29t-49.5 26t-51.5 28t-45.5 35q-16 16 -25.5 35t-9.5 50t12.5 53.5
t34.5 37.5t51.5 22.5t64.5 7.5q28 0 59.5 -3.5t60.5 -8.5l-6 -70q-29 7 -61 11t-58 4q-45 0 -63 -16t-18 -39q0 -12 3.5 -20t11.5 -16q13 -14 37 -27t50.5 -27t52.5 -29t43 -32q19 -19 28 -37t9 -47z" />
    <glyph glyph-name="t" unicode="t" horiz-adv-x="348" 
d="M179 400v-295q0 -25 6.5 -35.5t29.5 -10.5q18 0 47 3.5t51 9.5l3 -66q-23 -7 -53 -11t-53 -4q-35 0 -56.5 8.5t-33 22.5t-15.5 33.5t-4 40.5v304h-72v62l73 5v138h77v-138h135v-67h-135z" />
    <glyph glyph-name="u" unicode="u" 
d="M64 467h77v-340q0 -35 20.5 -52t53.5 -17t68.5 9.5t69.5 29.5v370h77v-467h-62l-9 33q-38 -21 -76.5 -31.5t-81.5 -10.5q-29 0 -54 7t-43.5 23t-29 40.5t-10.5 60.5v345z" />
    <glyph glyph-name="v" unicode="v" horiz-adv-x="441" 
d="M266 0h-90l-154 467h80l97 -316q3 -9 6 -22t6 -26.5t5.5 -26t3.5 -20.5q2 9 4.5 21.5t5.5 26t6.5 26t6.5 21.5l99 316h77z" />
    <glyph glyph-name="w" unicode="w" horiz-adv-x="672" 
d="M382 467l78 -324q5 -18 8.5 -39.5t8.5 -46.5q5 25 8.5 46t8.5 42l75 322h79l-124 -467h-95l-80 337q-4 17 -7.5 36t-5.5 39q-5 -35 -8 -52t-5 -25l-81 -335h-94l-124 467h77l77 -319q5 -22 9 -44.5t9 -46.5q6 43 18 90l77 320h91z" />
    <glyph glyph-name="x" unicode="x" horiz-adv-x="436" 
d="M264 233l145 -233h-86l-105 178l-105 -178h-86l146 233l-140 234h85l100 -177l102 177h84z" />
    <glyph glyph-name="y" unicode="y" horiz-adv-x="440" 
d="M22 467h85l118 -385l116 385h77l-174 -539q-15 -47 -30.5 -78.5t-35 -50.5t-44.5 -27t-61 -8q-17 0 -33.5 2t-27.5 5l6 68q22 -6 52 -6q21 0 36.5 7.5t28.5 25.5t24.5 49t25.5 78z" />
    <glyph glyph-name="z" unicode="z" horiz-adv-x="410" 
d="M366 0h-322v56l223 344h-215v67h310v-56l-222 -343h226v-68z" />
    <glyph glyph-name="braceleft" unicode="{" horiz-adv-x="315" 
d="M116 -21q0 13 1.5 48.5t3.5 76.5t3.5 78.5t1.5 54.5q0 34 -24.5 53.5t-86.5 19.5v68q62 0 86.5 20t24.5 54q0 17 -1.5 54.5t-3.5 78.5t-3.5 76.5t-1.5 48.5q0 25 12 40.5t49 15.5h97v-67h-61q-20 0 -20 -22q0 -5 0.5 -21.5t2 -39.5t2.5 -50t2.5 -53t2 -47.5t0.5 -33.5
q0 -33 -17 -56.5t-60 -31.5q42 -8 59.5 -30.5t17.5 -56.5q0 -19 -1.5 -57t-3.5 -77.5t-3.5 -71.5t-1.5 -39q0 -22 20 -22h61v-67h-97q-37 0 -49 15.5t-12 40.5z" />
    <glyph glyph-name="bar" unicode="|" horiz-adv-x="254" 
d="M94 720h66v-952h-66v952z" />
    <glyph glyph-name="braceright" unicode="}" horiz-adv-x="315" 
d="M181 -21q0 -25 -12 -40.5t-49 -15.5h-97v67h61q20 0 20 22q0 7 -1.5 39t-3.5 71.5t-3.5 77.5t-1.5 57q0 34 17.5 56.5t59.5 30.5q-43 8 -60 31.5t-17 56.5q0 12 0.5 33.5t2 47.5t2.5 53t2.5 50t2 39.5t0.5 21.5q0 22 -20 22h-61v67h97q37 0 49 -15.5t12 -40.5
q0 -13 -1.5 -48.5t-3.5 -76.5t-3.5 -78.5t-1.5 -54.5q0 -34 24.5 -54t86.5 -20v-68q-62 0 -86.5 -19.5t-24.5 -53.5q0 -17 1.5 -54.5t3.5 -78.5t3.5 -76.5t1.5 -48.5z" />
    <glyph glyph-name="asciitilde" unicode="~" horiz-adv-x="533" 
d="M369 199q-25 0 -50.5 7t-51 15.5t-51 15.5t-50.5 7q-27 0 -56.5 -13t-54.5 -34v71q23 19 54 31t57 12q27 0 52.5 -7t50.5 -15.5t50 -15.5t50 -7q28 0 56.5 12.5t53.5 32.5v-68q-23 -20 -52.5 -32t-57.5 -12z" />
    <glyph glyph-name="exclamdown" unicode="&#xa1;" horiz-adv-x="333" 
d="M211 -222h-89l11 492h66zM214 467v-95h-95v95h95z" />
    <glyph glyph-name="cent" unicode="&#xa2;" horiz-adv-x="544" 
d="M275 0v95q-46 5 -79.5 21.5t-55.5 46.5t-33 76t-11 109q0 124 43 183.5t136 69.5v89h65v-88q23 -1 47 -3.5t49 -5.5l-3 -72q-29 5 -59 8t-56 3q-36 0 -62.5 -7t-44 -27.5t-26 -56.5t-8.5 -93t9.5 -92.5t27.5 -55.5t44 -27.5t60 -7.5q28 0 55.5 2t65.5 8l3 -71
q-52 -9 -102 -11v-93h-65z" />
    <glyph glyph-name="sterling" unicode="&#xa3;" horiz-adv-x="544" 
d="M426 321h-203v-184q0 -13 -3 -33t-9 -31v-1q7 0 15 1q7 0 14.5 0.5t13.5 0.5h249v-74h-457v74h87q7 9 9 23.5t2 25.5v198h-77v72h77v105q0 108 44 154.5t141 46.5q29 0 70 -2t81 -8l-4 -75q-38 5 -75.5 7.5t-63.5 2.5q-32 0 -53.5 -5t-35 -18.5t-19.5 -37.5t-6 -61v-109
h203v-72z" />
    <glyph glyph-name="currency" unicode="&#xa4;" horiz-adv-x="752" 
d="M641 337q0 -45 -14 -85.5t-39 -73.5l98 -98l-54 -54l-97 97q-34 -24 -74 -38t-85 -14t-85.5 14t-73.5 38l-97 -97l-54 54l97 98q-24 33 -38.5 73.5t-14.5 85.5t14.5 85.5t38.5 73.5l-97 98l54 54l97 -97q33 24 73.5 38t85.5 14t85 -14t74 -38l97 97l54 -54l-98 -98
q25 -33 39 -73.5t14 -85.5zM565 337q0 40 -14.5 75t-40 61t-60 41t-74.5 15t-74.5 -15t-60 -41t-40 -61t-14.5 -75t14.5 -75t40 -61t60 -41t74.5 -15t74.5 15t60 41t40 61t14.5 75z" />
    <glyph glyph-name="yen" unicode="&#xa5;" horiz-adv-x="544" 
d="M396 444h115v-56h-144l-35 -67h179v-56h-198v-265h-82v265h-199v56h180l-35 67h-145v56h116l-127 245h89l163 -321l160 321h90z" />
    <glyph glyph-name="brokenbar" unicode="&#xa6;" horiz-adv-x="254" 
d="M94 720h66v-405h-66v405zM94 173h66v-405h-66v405z" />
    <glyph glyph-name="section" unicode="&#xa7;" horiz-adv-x="415" 
d="M369 16q0 -76 -48.5 -110.5t-138.5 -34.5q-35 0 -70.5 2.5t-65.5 6.5q1 17 2 35t3 35q28 -5 62.5 -9t69.5 -4q65 0 90 20.5t25 52.5q0 25 -12 43t-41 38l-106 69q-19 12 -35.5 24.5t-28.5 28.5t-19 36t-7 46q0 50 27 82t78 47l-35 24q-30 20 -50 45.5t-20 73.5
q0 66 43.5 99t121.5 33q29 0 61.5 -2.5t64.5 -7.5q-2 -18 -3 -36l-2 -36q-29 6 -60.5 10t-59.5 4q-51 0 -73 -16.5t-22 -45.5q0 -24 11 -40t33 -30l113 -73q18 -12 34.5 -24t29 -28t20.5 -36.5t8 -48.5q0 -55 -26 -88.5t-68 -47.5q19 -12 36 -26t30 -30.5t20.5 -36
t7.5 -44.5zM298 284q0 25 -11 42.5t-40 36.5l-36 23q-48 -9 -69.5 -32.5t-21.5 -56.5q0 -20 7.5 -33.5t20.5 -24.5t30 -22t36 -24q40 11 62 34.5t22 56.5z" />
    <glyph glyph-name="dieresis" unicode="&#xa8;" horiz-adv-x="544" 
d="M319 572v81h80v-81h-80zM144 572v81h80v-81h-80z" />
    <glyph glyph-name="copyright" unicode="&#xa9;" horiz-adv-x="783" 
d="M383 -11q-73 0 -132.5 18t-102 59.5t-66 107.5t-23.5 162t24 162.5t68 108t107 60t141 18.5q73 0 133 -18t102.5 -59t66 -107t23.5 -162t-24 -162.5t-68 -108.5t-107 -60.5t-142 -18.5zM385 53q60 0 110.5 13.5t87 46t57 87.5t20.5 139t-20.5 138.5t-56.5 86.5t-84 45
t-103 13q-59 0 -109 -13.5t-86.5 -46t-57 -87.5t-20.5 -139t21 -138.5t56.5 -86.5t83 -45t101.5 -13zM237 339q0 109 41 155t131 46q20 0 47.5 -3t50.5 -8l-3 -60q-53 11 -94 11q-26 0 -45.5 -5.5t-32.5 -21t-19 -43t-6 -71.5t7 -71t20 -43t32 -21.5t44 -5.5q21 0 43.5 2.5
t55.5 8.5l2 -57q-22 -6 -48.5 -10t-50.5 -4q-89 0 -132 45t-43 156z" />
    <glyph glyph-name="ordfeminine" unicode="&#xaa;" horiz-adv-x="305" 
d="M218 371l-7 22q-19 -11 -42 -18.5t-46 -7.5q-41 0 -70 22t-29 73q0 14 4.5 32.5t20.5 33.5q13 12 32 19.5t40.5 11t43.5 4.5t42 1v40q0 23 -12.5 30.5t-37.5 7.5t-55 -4.5t-51 -9.5l-2 54q20 5 50.5 9.5t56.5 4.5q22 0 42 -3.5t35 -13t23.5 -25t8.5 -39.5v-244h-47z
M207 515q-12 0 -28 -0.5t-32 -2.5t-30 -6t-22 -12q-6 -6 -8 -15t-2 -17q0 -25 13.5 -35t31.5 -10q22 0 42.5 7t34.5 17v74z" />
    <glyph glyph-name="guillemotleft" unicode="&#xab;" horiz-adv-x="513" 
d="M302 252l158 -188h-83l-153 184v9l156 184h84l-162 -188v-1zM124 252l158 -188h-83l-153 184v9l156 184h84l-162 -188v-1z" />
    <glyph glyph-name="logicalnot" unicode="&#xac;" horiz-adv-x="495" 
d="M435 221h-76v200h-315v69h391v-269z" />
    <glyph glyph-name="registered" unicode="&#xae;" horiz-adv-x="783" 
d="M383 -11q-73 0 -132.5 18t-102 59.5t-66 107.5t-23.5 162t24 162.5t68 108t107 60t141 18.5q73 0 133 -18t102.5 -59t66 -107t23.5 -162t-24 -162.5t-68 -108.5t-107 -60.5t-142 -18.5zM385 53q60 0 110.5 13.5t87 46t57 87.5t20.5 139t-20.5 138.5t-56.5 86.5t-84 45
t-103 13q-59 0 -109 -13.5t-86.5 -46t-57 -87.5t-20.5 -139t21 -138.5t56.5 -86.5t83 -45t101.5 -13zM267 141v389h168q28 0 47.5 -9t31.5 -25t17.5 -37.5t5.5 -46.5q0 -42 -15.5 -72.5t-53.5 -39.5l82 -159h-74l-76 154h-65v-154h-68zM467 412q0 27 -10 43.5t-35 16.5h-87
v-119h87q25 0 35 16t10 43z" />
    <glyph glyph-name="macron" unicode="&#xaf;" horiz-adv-x="544" 
d="M412 587h-280v58h280v-58z" />
    <glyph glyph-name="degree" unicode="&#xb0;" horiz-adv-x="401" 
d="M328 559q0 -27 -10 -50t-27 -40.5t-40 -27.5t-50 -10q-26 0 -49.5 10t-41 27.5t-27.5 40.5t-10 50q0 26 10 49t27.5 40t41 27t49.5 10q27 0 50 -10t40 -27t27 -40t10 -49zM265 559q0 26 -19 45t-45 19q-28 0 -46.5 -19t-18.5 -45q0 -27 18.5 -45.5t46.5 -18.5
q26 0 45 18.5t19 45.5z" />
    <glyph glyph-name="plusminus" unicode="&#xb1;" horiz-adv-x="568" 
d="M316 309v-179h-66v179h-178v66h178v179h66v-179h180v-66h-180zM72 0v66h424v-66h-424z" />
    <glyph glyph-name="uni00B2" unicode="&#xb2;" horiz-adv-x="292" 
d="M121 376q6 1 17 1.5t19 0.5h95v-53h-207v46l94 117q16 21 33 45.5t17 52.5q0 27 -14 41.5t-49 14.5q-13 0 -34.5 -2t-38.5 -5l-2 51q25 5 44 6.5t42 1.5q58 0 85 -27.5t27 -78.5q0 -30 -13 -59t-34 -54l-54 -66q-8 -9 -13.5 -16.5t-13.5 -15.5v-1z" />
    <glyph glyph-name="uni00B3" unicode="&#xb3;" horiz-adv-x="276" 
d="M125 694q52 0 80.5 -23t28.5 -74q0 -30 -11.5 -50t-24.5 -33q17 -11 30 -29t13 -52q0 -60 -32 -87t-95 -27h-16.5t-22 0.5t-22.5 1t-20 2.5l2 54q14 -2 32 -3.5t36 -1.5q15 0 28.5 2t24 8t17 18.5t6.5 33.5q0 29 -14 41t-35 12h-47v51h43q26 0 37 14t11 36q0 32 -15.5 43
t-44.5 11q-17 0 -37.5 -2t-37.5 -4l-2 51q21 5 45 6t43 1z" />
    <glyph glyph-name="acute" unicode="&#xb4;" horiz-adv-x="544" 
d="M264 539h-57l85 145h89z" />
    <glyph glyph-name="mu" unicode="&#xb5;" horiz-adv-x="504" 
d="M145 -232h-76v699h76v-338q0 -23 6 -36.5t16 -21.5t24 -10.5t29 -2.5q33 0 68.5 9.5t69.5 29.5v370h77v-467h-62l-9 33q-38 -21 -76 -32t-80 -10q-40 0 -63 17v-240z" />
    <glyph glyph-name="paragraph" unicode="&#xb6;" horiz-adv-x="514" 
d="M430 -126h-65v756h-72v-756h-65v424q-50 0 -83.5 13.5t-54.5 39t-30 61.5t-9 82q0 45 9.5 81t31.5 61.5t57 39t85 13.5h196v-815z" />
    <glyph glyph-name="periodcentered" unicode="&#xb7;" horiz-adv-x="273" 
d="M89 190v95h95v-95h-95z" />
    <glyph glyph-name="cedilla" unicode="&#xb8;" horiz-adv-x="544" 
d="M275 -118q0 18 -18.5 25.5t-50.5 9.5l-6 16l32 67h47l-17 -43q12 -3 24 -8t22.5 -13.5t17 -21.5t6.5 -32q0 -35 -23.5 -55.5t-68.5 -20.5q-11 0 -32.5 1.5t-36.5 4.5l2 48q13 -2 32.5 -4t32.5 -2q37 0 37 28z" />
    <glyph glyph-name="uni00B9" unicode="&#xb9;" horiz-adv-x="198" 
d="M84 325v315h-54v49h113v-364h-59z" />
    <glyph glyph-name="ordmasculine" unicode="&#xba;" horiz-adv-x="337" 
d="M307 531q0 -88 -35 -126t-104 -38t-103 38t-34 126q0 89 34.5 127t102.5 38q69 0 104 -37.5t35 -127.5zM247 531q0 34 -5.5 56t-16 34.5t-25 17.5t-32.5 5t-32 -5t-24 -17.5t-15.5 -34.5t-5.5 -56t5.5 -55.5t15.5 -34t24 -17t32 -4.5t32.5 4.5t25 17t16 34t5.5 55.5z" />
    <glyph glyph-name="guillemotright" unicode="&#xbb;" horiz-adv-x="513" 
d="M193 253l-162 188h84l156 -184v-9l-153 -184h-83l158 188v1zM371 253l-162 188h84l156 -184v-9l-153 -184h-83l158 188v1z" />
    <glyph glyph-name="uni00BC" unicode="&#xbc;" horiz-adv-x="565" 
d="M92 0h-62l408 689h63zM95 325v315h-54v49h113v-364h-59zM492 93v-93h-59v93h-152l-3 51l100 225h60l-95 -224h90l6 103h53v-103h56v-52h-56z" />
    <glyph glyph-name="uni00BD" unicode="&#xbd;" horiz-adv-x="594" 
d="M423 51q6 1 17 1.5t19 0.5h95v-53h-207v46l94 117q16 21 33 45.5t17 52.5q0 27 -14 41.5t-49 14.5q-13 0 -34.5 -2t-38.5 -5l-2 51q25 5 44 6.5t42 1.5q58 0 85 -27.5t27 -78.5q0 -30 -13 -59t-34 -54l-54 -66q-8 -9 -13.5 -16.5t-13.5 -15.5v-1zM92 0h-62l408 689h63z
M95 325v315h-54v49h113v-364h-59z" />
    <glyph glyph-name="uni00BE" unicode="&#xbe;" horiz-adv-x="621" 
d="M125 694q52 0 80.5 -23t28.5 -74q0 -30 -11.5 -50t-24.5 -33q17 -11 30 -29t13 -52q0 -60 -32 -87t-95 -27h-16.5t-22 0.5t-22.5 1t-20 2.5l2 54q14 -2 32 -3.5t36 -1.5q15 0 28.5 2t24 8t17 18.5t6.5 33.5q0 29 -14 41t-35 12h-47v51h43q26 0 37 14t11 36q0 32 -15.5 43
t-44.5 11q-17 0 -37.5 -2t-37.5 -4l-2 51q21 5 45 6t43 1zM142 0h-62l408 689h63zM548 93v-93h-59v93h-152l-3 51l100 225h60l-95 -224h90l6 103h53v-103h56v-52h-56z" />
    <glyph glyph-name="questiondown" unicode="&#xbf;" horiz-adv-x="377" 
d="M3 -88q0 25 7.5 46t20 39t28.5 34.5t33 33.5l22 22q31 31 44 56.5t13 65.5q0 10 -1 23.5t-8 39.5h74q5 -21 7 -35.5t2 -32.5q0 -59 -24.5 -99t-60.5 -74l-16 -15l-22.5 -22.5t-21 -24t-15.5 -26t-6 -27.5q0 -41 27.5 -57.5t73.5 -16.5q25 0 58.5 2.5t65.5 8.5l6 -73
q-33 -5 -69.5 -7.5t-60.5 -2.5q-34 0 -66 6.5t-56.5 23t-39.5 43.5t-15 69zM245 467v-95h-95v95h95z" />
    <glyph glyph-name="Agrave" unicode="&#xc0;" horiz-adv-x="549" 
d="M446 0l-43 152h-256l-44 -152h-84l203 689h105l203 -689h-84zM307 499q-4 14 -8 31t-8.5 35t-8 35t-6.5 31q-6 -28 -15.5 -65.5t-17.5 -66.5l-77 -276h217zM131 889h89l85 -145h-57z" />
    <glyph glyph-name="Aacute" unicode="&#xc1;" horiz-adv-x="549" 
d="M446 0l-43 152h-256l-44 -152h-84l203 689h105l203 -689h-84zM307 499q-4 14 -8 31t-8.5 35t-8 35t-6.5 31q-6 -28 -15.5 -65.5t-17.5 -66.5l-77 -276h217zM306 744h-57l85 145h89z" />
    <glyph glyph-name="Acircumflex" unicode="&#xc2;" horiz-adv-x="549" 
d="M446 0l-43 152h-256l-44 -152h-84l203 689h105l203 -689h-84zM307 499q-4 14 -8 31t-8.5 35t-8 35t-6.5 31q-6 -28 -15.5 -65.5t-17.5 -66.5l-77 -276h217zM345 744l-67 90l-67 -90h-60l89 140h75l90 -140h-60z" />
    <glyph glyph-name="Atilde" unicode="&#xc3;" horiz-adv-x="549" 
d="M446 0l-43 152h-256l-44 -152h-84l203 689h105l203 -689h-84zM307 499q-4 14 -8 31t-8.5 35t-8 35t-6.5 31q-6 -28 -15.5 -65.5t-17.5 -66.5l-77 -276h217zM340 825q17 0 34 14t34 39l26 -52q-17 -23 -41 -40.5t-50 -17.5q-18 0 -36.5 7.5t-36 16t-33 16t-26.5 7.5
q-20 0 -36.5 -15.5t-32.5 -38.5l-26 53q17 22 40 39.5t51 17.5q17 0 35 -7t36 -16t34 -16t28 -7z" />
    <glyph glyph-name="Adieresis" unicode="&#xc4;" horiz-adv-x="549" 
d="M446 0l-43 152h-256l-44 -152h-84l203 689h105l203 -689h-84zM307 499q-4 14 -8 31t-8.5 35t-8 35t-6.5 31q-6 -28 -15.5 -65.5t-17.5 -66.5l-77 -276h217zM325 777v81h80v-81h-80zM150 777v81h80v-81h-80z" />
    <glyph glyph-name="Aring" unicode="&#xc5;" horiz-adv-x="549" 
d="M361 758q0 -22 -9.5 -40t-24.5 -29l203 -689h-84l-43 152h-256l-44 -152h-84l203 689q-35 24 -35 69q0 18 7 33.5t18.5 27t27.5 18.5t34 7t34 -7t27.5 -18.5t18.5 -27t7 -33.5zM307 499q-4 14 -8 31t-8.5 35t-8 35t-6.5 31q-6 -28 -15.5 -65.5t-17.5 -66.5l-77 -276h217z
M313 758q0 16 -11.5 27.5t-27.5 11.5t-27 -11.5t-11 -27.5q0 -17 11 -28.5t27 -11.5t27.5 11.5t11.5 28.5z" />
    <glyph glyph-name="AE" unicode="&#xc6;" horiz-adv-x="824" 
d="M405 0v152h-237l-80 -152h-89l367 689h417v-74h-295v-224h208v-73h-208v-245h295v-73h-378zM405 615q-10 -22 -20 -44.5t-24 -50.5l-157 -297h201v392z" />
    <glyph glyph-name="Ccedilla" unicode="&#xc7;" horiz-adv-x="519" 
d="M333 -118q0 18 -18.5 25.5t-50.5 9.5l-6 16l28 59q-68 6 -111.5 34t-69.5 73.5t-36 107.5t-10 137q0 81 12 146.5t42.5 112t83.5 71.5t134 25q43 0 78 -5t71 -14l-9 -76q-38 10 -70 16.5t-70 6.5q-58 0 -94.5 -19t-57.5 -55.5t-28.5 -89t-7.5 -119.5t7.5 -119.5t28 -88.5
t56.5 -55t94 -19q37 0 71 6t74 17l6 -75q-35 -8 -68.5 -13.5t-78.5 -6.5l-13 -33q12 -3 24 -8t22.5 -13.5t17 -21.5t6.5 -32q0 -35 -23.5 -55.5t-68.5 -20.5q-11 0 -32.5 1.5t-36.5 4.5l2 48q13 -2 32.5 -4t32.5 -2q37 0 37 28z" />
    <glyph glyph-name="Egrave" unicode="&#xc8;" horiz-adv-x="508" 
d="M84 0v689h383v-71h-301v-228h214v-71h-214v-248h301v-71h-383zM142 889h89l85 -145h-57z" />
    <glyph glyph-name="Eacute" unicode="&#xc9;" horiz-adv-x="508" 
d="M84 0v689h383v-71h-301v-228h214v-71h-214v-248h301v-71h-383zM311 744h-57l85 145h89z" />
    <glyph glyph-name="Ecircumflex" unicode="&#xca;" horiz-adv-x="508" 
d="M84 0v689h383v-71h-301v-228h214v-71h-214v-248h301v-71h-383zM349 744l-67 90l-67 -90h-60l89 140h75l90 -140h-60z" />
    <glyph glyph-name="Edieresis" unicode="&#xcb;" horiz-adv-x="508" 
d="M84 0v689h383v-71h-301v-228h214v-71h-214v-248h301v-71h-383zM329 777v81h80v-81h-80zM154 777v81h80v-81h-80z" />
    <glyph glyph-name="Igrave" unicode="&#xcc;" horiz-adv-x="248" 
d="M83 0v689h82v-689h-82zM-23 890h89l85 -145h-57z" />
    <glyph glyph-name="Iacute" unicode="&#xcd;" horiz-adv-x="248" 
d="M83 0v689h82v-689h-82zM154 745h-57l85 145h89z" />
    <glyph glyph-name="Icircumflex" unicode="&#xce;" horiz-adv-x="248" 
d="M190 744l-67 90l-67 -90h-60l89 140h75l90 -140h-60zM83 0v689h82v-689h-82z" />
    <glyph glyph-name="Idieresis" unicode="&#xcf;" horiz-adv-x="248" 
d="M83 0v689h82v-689h-82zM171 777v81h80v-81h-80zM-4 777v81h80v-81h-80z" />
    <glyph glyph-name="Eth" unicode="&#xd0;" horiz-adv-x="632" 
d="M573 345q0 -105 -18 -179t-61 -115q-18 -17 -37 -27.5t-41.5 -15.5t-49.5 -6.5t-60 -1.5h-202v311h-95v73h95v305h202q33 0 60 -1.5t49.5 -7t41.5 -15.5t37 -27q42 -42 60.5 -115t18.5 -178zM488 345q0 90 -11 149t-41 88q-26 25 -60.5 30t-79.5 5h-110v-233h160v-73
h-160v-239h110q43 0 78.5 5.5t60.5 28.5q31 31 42 90.5t11 148.5z" />
    <glyph glyph-name="Ntilde" unicode="&#xd1;" horiz-adv-x="648" 
d="M451 165q14 -29 22 -50t17 -46h2q0 7 -1 21t-2 29t-1.5 28.5t-0.5 21.5v520h77v-689h-113l-257 532q-9 19 -17 38.5t-19 45.5h-2q1 -8 1.5 -21.5t1.5 -28t1.5 -28t0.5 -19.5v-519h-77v689h114zM386 825q17 0 34 14t34 39l26 -52q-17 -23 -41 -40.5t-50 -17.5
q-18 0 -36.5 7.5t-36 16t-33 16t-26.5 7.5q-20 0 -36.5 -15.5t-32.5 -38.5l-26 53q17 22 40 39.5t51 17.5q17 0 35 -7t36 -16t34 -16t28 -7z" />
    <glyph glyph-name="Ograve" unicode="&#xd2;" horiz-adv-x="634" 
d="M577 343q0 -80 -11 -145.5t-40 -111.5t-79.5 -71t-129.5 -25q-78 0 -128.5 25t-80 71.5t-40.5 111.5t-11 146q0 80 11 145.5t40.5 112t80 72t128.5 25.5q79 0 129.5 -25.5t79.5 -72t40 -112t11 -146.5zM493 344q0 67 -7 120t-26.5 89t-54 55t-88.5 19t-88.5 -19t-54 -55
t-26.5 -89t-7 -120q0 -68 7 -120t26.5 -88t54 -54.5t88.5 -18.5t88.5 18.5t54 54.5t26.5 88t7 120zM175 889h89l85 -145h-57z" />
    <glyph glyph-name="Oacute" unicode="&#xd3;" horiz-adv-x="634" 
d="M355 744h-57l85 145h89zM577 343q0 -80 -11 -145.5t-40 -111.5t-79.5 -71t-129.5 -25q-78 0 -128.5 25t-80 71.5t-40.5 111.5t-11 146q0 80 11 145.5t40.5 112t80 72t128.5 25.5q79 0 129.5 -25.5t79.5 -72t40 -112t11 -146.5zM493 344q0 67 -7 120t-26.5 89t-54 55
t-88.5 19t-88.5 -19t-54 -55t-26.5 -89t-7 -120q0 -68 7 -120t26.5 -88t54 -54.5t88.5 -18.5t88.5 18.5t54 54.5t26.5 88t7 120z" />
    <glyph glyph-name="Ocircumflex" unicode="&#xd4;" horiz-adv-x="634" 
d="M385 745l-67 90l-67 -90h-60l89 140h75l90 -140h-60zM577 343q0 -80 -11 -145.5t-40 -111.5t-79.5 -71t-129.5 -25q-78 0 -128.5 25t-80 71.5t-40.5 111.5t-11 146q0 80 11 145.5t40.5 112t80 72t128.5 25.5q79 0 129.5 -25.5t79.5 -72t40 -112t11 -146.5zM493 344
q0 67 -7 120t-26.5 89t-54 55t-88.5 19t-88.5 -19t-54 -55t-26.5 -89t-7 -120q0 -68 7 -120t26.5 -88t54 -54.5t88.5 -18.5t88.5 18.5t54 54.5t26.5 88t7 120z" />
    <glyph glyph-name="Otilde" unicode="&#xd5;" horiz-adv-x="634" 
d="M577 343q0 -80 -11 -145.5t-40 -111.5t-79.5 -71t-129.5 -25q-78 0 -128.5 25t-80 71.5t-40.5 111.5t-11 146q0 80 11 145.5t40.5 112t80 72t128.5 25.5q79 0 129.5 -25.5t79.5 -72t40 -112t11 -146.5zM493 344q0 67 -7 120t-26.5 89t-54 55t-88.5 19t-88.5 -19t-54 -55
t-26.5 -89t-7 -120q0 -68 7 -120t26.5 -88t54 -54.5t88.5 -18.5t88.5 18.5t54 54.5t26.5 88t7 120zM382 825q17 0 34 14t34 39l26 -52q-17 -23 -41 -40.5t-50 -17.5q-18 0 -36.5 7.5t-36 16t-33 16t-26.5 7.5q-20 0 -36.5 -15.5t-32.5 -38.5l-26 53q17 22 40 39.5t51 17.5
q17 0 35 -7t36 -16t34 -16t28 -7z" />
    <glyph glyph-name="Odieresis" unicode="&#xd6;" horiz-adv-x="634" 
d="M577 343q0 -80 -11 -145.5t-40 -111.5t-79.5 -71t-129.5 -25q-78 0 -128.5 25t-80 71.5t-40.5 111.5t-11 146q0 80 11 145.5t40.5 112t80 72t128.5 25.5q79 0 129.5 -25.5t79.5 -72t40 -112t11 -146.5zM493 344q0 67 -7 120t-26.5 89t-54 55t-88.5 19t-88.5 -19t-54 -55
t-26.5 -89t-7 -120q0 -68 7 -120t26.5 -88t54 -54.5t88.5 -18.5t88.5 18.5t54 54.5t26.5 88t7 120zM365 777v81h80v-81h-80zM190 777v81h80v-81h-80z" />
    <glyph glyph-name="multiply" unicode="&#xd7;" horiz-adv-x="552" 
d="M323 342l155 -156l-46 -46l-156 155l-155 -155l-48 47l156 156l-156 155l47 47l156 -156l156 156l47 -47z" />
    <glyph glyph-name="Oslash" unicode="&#xd8;" horiz-adv-x="634" 
d="M57 -46l65 113q-38 46 -51.5 116.5t-13.5 160.5q0 80 11 145.5t40.5 112t80 72t128.5 25.5q47 0 83.5 -9.5t64.5 -26.5l33 58h78l-60 -105q35 -48 48 -116.5t13 -156.5q0 -80 -11 -145.5t-40 -111.5t-79.5 -71t-129.5 -25q-45 0 -80 8t-63 24l-39 -68h-78zM141 344
q0 -63 6 -112t22 -84l256 447q-40 32 -108 32q-54 0 -88.5 -19t-54 -55t-26.5 -89t-7 -120zM493 344q0 59 -5.5 107t-19.5 83l-255 -444q39 -27 104 -27q54 0 88.5 18.5t54 54.5t26.5 88t7 120z" />
    <glyph glyph-name="Ugrave" unicode="&#xd9;" horiz-adv-x="597" 
d="M528 189q0 -54 -19.5 -91.5t-51.5 -61.5t-73.5 -35t-85.5 -11q-43 0 -84 11t-73.5 34.5t-52 61.5t-19.5 92v500h81v-499q0 -63 41.5 -95.5t107.5 -32.5q31 0 58.5 8t47.5 24t31.5 40t11.5 56v499h80v-500zM166 889h89l85 -145h-57z" />
    <glyph glyph-name="Uacute" unicode="&#xda;" horiz-adv-x="597" 
d="M335 744h-57l85 145h89zM528 189q0 -54 -19.5 -91.5t-51.5 -61.5t-73.5 -35t-85.5 -11q-43 0 -84 11t-73.5 34.5t-52 61.5t-19.5 92v500h81v-499q0 -63 41.5 -95.5t107.5 -32.5q31 0 58.5 8t47.5 24t31.5 40t11.5 56v499h80v-500z" />
    <glyph glyph-name="Ucircumflex" unicode="&#xdb;" horiz-adv-x="597" 
d="M372 745l-67 90l-67 -90h-60l89 140h75l90 -140h-60zM528 189q0 -54 -19.5 -91.5t-51.5 -61.5t-73.5 -35t-85.5 -11q-43 0 -84 11t-73.5 34.5t-52 61.5t-19.5 92v500h81v-499q0 -63 41.5 -95.5t107.5 -32.5q31 0 58.5 8t47.5 24t31.5 40t11.5 56v499h80v-500z" />
    <glyph glyph-name="Udieresis" unicode="&#xdc;" horiz-adv-x="597" 
d="M528 189q0 -54 -19.5 -91.5t-51.5 -61.5t-73.5 -35t-85.5 -11q-43 0 -84 11t-73.5 34.5t-52 61.5t-19.5 92v500h81v-499q0 -63 41.5 -95.5t107.5 -32.5q31 0 58.5 8t47.5 24t31.5 40t11.5 56v499h80v-500zM351 777v81h80v-81h-80zM176 777v81h80v-81h-80z" />
    <glyph glyph-name="Yacute" unicode="&#xdd;" horiz-adv-x="534" 
d="M308 284v-284h-82v285l-210 404h89l163 -321l160 321h90zM302 745h-57l85 145h89z" />
    <glyph glyph-name="Thorn" unicode="&#xde;" horiz-adv-x="530" 
d="M498 346q0 -44 -8.5 -81.5t-28 -65.5t-51.5 -43.5t-79 -15.5h-168v-140h-79v689h79v-135h172q46 0 77.5 -16.5t50.5 -44.5t27 -66t8 -81zM417 346q0 61 -20.5 97.5t-74.5 36.5h-159v-266h159q54 0 74.5 36t20.5 96z" />
    <glyph glyph-name="germandbls" unicode="&#xdf;" horiz-adv-x="545" 
d="M283 360q0 -16 4 -24t12 -16q13 -14 37 -27t50.5 -27t52.5 -29t43 -32q19 -19 28 -37t9 -47q0 -33 -13.5 -57.5t-37.5 -40.5t-56.5 -24t-69.5 -8q-10 0 -25 1t-31.5 3t-33.5 4.5t-30 6.5l6 68q31 -8 63 -12.5t54 -4.5q54 0 76.5 16.5t22.5 43.5q0 13 -4 21t-12 16
q-16 16 -39.5 29t-49.5 26t-51.5 28t-45.5 35q-16 16 -25.5 35.5t-9.5 48.5q0 28 16 55.5t35.5 55.5t35.5 55.5t16 54.5q0 69 -78 69q-30 0 -47.5 -10t-26.5 -26.5t-11 -37t-2 -40.5v-532h-76v553q0 48 14 79t36.5 49.5t51.5 26t59 7.5q82 0 119.5 -37.5t37.5 -97.5
q0 -34 -16.5 -65.5t-36 -59.5t-35.5 -52t-16 -43z" />
    <glyph glyph-name="agrave" unicode="&#xe0;" horiz-adv-x="453" 
d="M327 0l-11 34q-26 -16 -62 -30t-79 -14q-63 0 -100 33.5t-37 105.5q0 53 23 82t60 43.5t83 17.5t91 5h16v66q0 38 -21 54t-63 16q-16 0 -35.5 -2t-39.5 -5.5t-38.5 -8t-32.5 -9.5l-5 70q31 7 70.5 13t87.5 6q72 0 113 -28t41 -94v-355h-61zM311 220h-14q-96 0 -138 -21
t-42 -71q0 -33 15.5 -52.5t50.5 -19.5q36 0 69 10t59 24v130zM89 684h89l85 -145h-57z" />
    <glyph glyph-name="aacute" unicode="&#xe1;" horiz-adv-x="453" 
d="M327 0l-11 34q-26 -16 -62 -30t-79 -14q-63 0 -100 33.5t-37 105.5q0 53 23 82t60 43.5t83 17.5t91 5h16v66q0 38 -21 54t-63 16q-16 0 -35.5 -2t-39.5 -5.5t-38.5 -8t-32.5 -9.5l-5 70q31 7 70.5 13t87.5 6q72 0 113 -28t41 -94v-355h-61zM311 220h-14q-96 0 -138 -21
t-42 -71q0 -33 15.5 -52.5t50.5 -19.5q36 0 69 10t59 24v130zM262 539h-57l85 145h89z" />
    <glyph glyph-name="acircumflex" unicode="&#xe2;" horiz-adv-x="453" 
d="M327 0l-11 34q-26 -16 -62 -30t-79 -14q-63 0 -100 33.5t-37 105.5q0 53 23 82t60 43.5t83 17.5t91 5h16v66q0 38 -21 54t-63 16q-16 0 -35.5 -2t-39.5 -5.5t-38.5 -8t-32.5 -9.5l-5 70q31 7 70.5 13t87.5 6q72 0 113 -28t41 -94v-355h-61zM311 220h-14q-96 0 -138 -21
t-42 -71q0 -33 15.5 -52.5t50.5 -19.5q36 0 69 10t59 24v130zM300 539l-67 90l-67 -90h-60l89 140h75l90 -140h-60z" />
    <glyph glyph-name="atilde" unicode="&#xe3;" horiz-adv-x="453" 
d="M327 0l-11 34q-26 -16 -62 -30t-79 -14q-63 0 -100 33.5t-37 105.5q0 53 23 82t60 43.5t83 17.5t91 5h16v66q0 38 -21 54t-63 16q-16 0 -35.5 -2t-39.5 -5.5t-38.5 -8t-32.5 -9.5l-5 70q31 7 70.5 13t87.5 6q72 0 113 -28t41 -94v-355h-61zM311 220h-14q-96 0 -138 -21
t-42 -71q0 -33 15.5 -52.5t50.5 -19.5q36 0 69 10t59 24v130zM290 620q17 0 34 14t34 39l26 -52q-17 -23 -41 -40.5t-50 -17.5q-18 0 -36.5 7.5t-36 16t-33 16t-26.5 7.5q-20 0 -36.5 -15.5t-32.5 -38.5l-26 53q17 22 40 39.5t51 17.5q17 0 35 -7t36 -16t34 -16t28 -7z" />
    <glyph glyph-name="adieresis" unicode="&#xe4;" horiz-adv-x="453" 
d="M327 0l-11 34q-26 -16 -62 -30t-79 -14q-63 0 -100 33.5t-37 105.5q0 53 23 82t60 43.5t83 17.5t91 5h16v66q0 38 -21 54t-63 16q-16 0 -35.5 -2t-39.5 -5.5t-38.5 -8t-32.5 -9.5l-5 70q31 7 70.5 13t87.5 6q72 0 113 -28t41 -94v-355h-61zM311 220h-14q-96 0 -138 -21
t-42 -71q0 -33 15.5 -52.5t50.5 -19.5q36 0 69 10t59 24v130zM279 572v81h80v-81h-80zM104 572v81h80v-81h-80z" />
    <glyph glyph-name="aring" unicode="&#xe5;" horiz-adv-x="453" 
d="M327 0l-11 34q-26 -16 -62 -30t-79 -14q-63 0 -100 33.5t-37 105.5q0 53 23 82t60 43.5t83 17.5t91 5h16v66q0 38 -21 54t-63 16q-16 0 -35.5 -2t-39.5 -5.5t-38.5 -8t-32.5 -9.5l-5 70q31 7 70.5 13t87.5 6q72 0 113 -28t41 -94v-355h-61zM311 220h-14q-96 0 -138 -21
t-42 -71q0 -33 15.5 -52.5t50.5 -19.5q36 0 69 10t59 24v130zM320 610q0 -36 -25.5 -61t-61.5 -25t-61.5 25t-25.5 61q0 18 7 33.5t18.5 27t27.5 18.5t34 7t34 -7t27.5 -18.5t18.5 -27t7 -33.5zM272 610q0 16 -11.5 27.5t-27.5 11.5t-27 -11.5t-11 -27.5q0 -17 11 -28.5
t27 -11.5t27.5 11.5t11.5 28.5z" />
    <glyph glyph-name="ae" unicode="&#xe6;" horiz-adv-x="722" 
d="M673 219h-283q0 -48 9.5 -79.5t26.5 -50t40.5 -25.5t50.5 -7q39 0 71 4.5t66 12.5l4 -69q-33 -6 -68.5 -10t-73.5 -4q-55 0 -95 15t-66 50q-47 -29 -88.5 -47.5t-91.5 -18.5q-63 0 -100 33.5t-37 105.5q0 52 23.5 81.5t60 44t82.5 18t91 4.5h16v66q0 38 -21 54t-63 16
q-16 0 -35.5 -2t-39.5 -5.5t-38.5 -8t-32.5 -9.5l-5 70q31 7 71 13t87 6q46 0 80 -11.5t53 -37.5q47 48 140 48q90 0 128 -48t38 -148v-61zM596 278q0 74 -21 104t-70 30q-55 0 -81.5 -29t-30.5 -105h203zM183 56q35 0 73.5 12.5t73.5 33.5q-18 47 -19 118h-14
q-97 0 -138.5 -20.5t-41.5 -71.5q0 -34 15.5 -53t50.5 -19z" />
    <glyph glyph-name="ccedilla" unicode="&#xe7;" horiz-adv-x="411" 
d="M261 -118q0 18 -18.5 25.5t-50.5 9.5l-6 16l29 61q-82 9 -124 64.5t-42 173.5q0 132 53 188t154 56q26 0 57.5 -2.5t58.5 -7.5l-5 -69q-27 5 -55.5 8.5t-54.5 3.5q-37 0 -61.5 -11t-39 -32.5t-20.5 -54.5t-6 -77t6 -77t20.5 -55t39 -33.5t61.5 -11.5q27 0 54 3t56 8
l5 -68q-25 -3 -56.5 -5.5t-54.5 -3.5l-13 -34q12 -3 24 -8t22.5 -13.5t17 -21.5t6.5 -32q0 -35 -23.5 -55.5t-68.5 -20.5q-11 0 -32.5 1.5t-36.5 4.5l2 48q13 -2 32.5 -4t32.5 -2q37 0 37 28z" />
    <glyph glyph-name="egrave" unicode="&#xe8;" horiz-adv-x="460" 
d="M411 219h-283q0 -48 9.5 -79.5t26.5 -50t40.5 -25.5t50.5 -7q39 0 71 4.5t66 12.5l4 -69q-33 -6 -68.5 -10t-73.5 -4q-50 0 -88.5 13t-64.5 42t-39 75t-13 111q0 130 48 187t148 57q90 0 128 -48t38 -148v-61zM334 278q0 74 -21 104t-70 30q-55 0 -80.5 -29.5
t-31.5 -104.5h203zM91 684h89l85 -145h-57z" />
    <glyph glyph-name="eacute" unicode="&#xe9;" horiz-adv-x="460" 
d="M271 539h-57l85 145h89zM411 219h-283q0 -48 9.5 -79.5t26.5 -50t40.5 -25.5t50.5 -7q39 0 71 4.5t66 12.5l4 -69q-33 -6 -68.5 -10t-73.5 -4q-50 0 -88.5 13t-64.5 42t-39 75t-13 111q0 130 48 187t148 57q90 0 128 -48t38 -148v-61zM334 278q0 74 -21 104t-70 30
q-55 0 -80.5 -29.5t-31.5 -104.5h203z" />
    <glyph glyph-name="ecircumflex" unicode="&#xea;" horiz-adv-x="460" 
d="M305 539l-67 90l-67 -90h-60l89 140h75l90 -140h-60zM411 219h-283q0 -48 9.5 -79.5t26.5 -50t40.5 -25.5t50.5 -7q39 0 71 4.5t66 12.5l4 -69q-33 -6 -68.5 -10t-73.5 -4q-50 0 -88.5 13t-64.5 42t-39 75t-13 111q0 130 48 187t148 57q90 0 128 -48t38 -148v-61z
M334 278q0 74 -21 104t-70 30q-55 0 -80.5 -29.5t-31.5 -104.5h203z" />
    <glyph glyph-name="edieresis" unicode="&#xeb;" horiz-adv-x="460" 
d="M283 572v81h80v-81h-80zM108 572v81h80v-81h-80zM411 219h-283q0 -48 9.5 -79.5t26.5 -50t40.5 -25.5t50.5 -7q39 0 71 4.5t66 12.5l4 -69q-33 -6 -68.5 -10t-73.5 -4q-50 0 -88.5 13t-64.5 42t-39 75t-13 111q0 130 48 187t148 57q90 0 128 -48t38 -148v-61zM334 278
q0 74 -21 104t-70 30q-55 0 -80.5 -29.5t-31.5 -104.5h203z" />
    <glyph glyph-name="igrave" unicode="&#xec;" horiz-adv-x="223" 
d="M73 0v467h77v-467h-77zM-38 684h89l85 -145h-57z" />
    <glyph glyph-name="iacute" unicode="&#xed;" horiz-adv-x="222" 
d="M138 539h-57l85 145h89zM73 0v467h77v-467h-77z" />
    <glyph glyph-name="icircumflex" unicode="&#xee;" horiz-adv-x="222" 
d="M177 539l-67 90l-67 -90h-60l89 140h75l90 -140h-60zM73 0v467h77v-467h-77z" />
    <glyph glyph-name="idieresis" unicode="&#xef;" horiz-adv-x="222" 
d="M158 572v81h80v-81h-80zM-17 572v81h80v-81h-80zM73 0v467h77v-467h-77z" />
    <glyph glyph-name="eth" unicode="&#xf0;" horiz-adv-x="514" 
d="M334 632q63 -66 94 -161.5t31 -227.5q0 -134 -51 -193.5t-151 -59.5q-101 0 -152 56.5t-51 187.5q0 132 51 187.5t152 55.5q32 0 57.5 -7t44.5 -19q-11 39 -33 77.5t-52 67.5l-138 -80v71l90 53q-21 20 -43 34.5t-47 26.5l77 24q20 -11 38 -23.5t35 -25.5l87 51v-72z
M382 234q0 53 -9 86.5t-25 53t-39.5 27t-51.5 7.5t-51 -7.5t-39.5 -27t-25.5 -53t-9 -86.5t9 -86.5t25.5 -53t39.5 -27t51 -7.5t51.5 7.5t39.5 27t25 53t9 86.5z" />
    <glyph glyph-name="ntilde" unicode="&#xf1;" 
d="M435 0h-77v340q0 35 -20.5 52.5t-52.5 17.5q-34 0 -69.5 -9.5t-69.5 -29.5v-371h-77v467h62l9 -33q39 21 76.5 32t82.5 11q28 0 53 -7.5t43.5 -23t29 -40.5t10.5 -61v-345zM319 620q17 0 34 14t34 39l26 -52q-17 -23 -41 -40.5t-50 -17.5q-18 0 -36.5 7.5t-36 16t-33 16
t-26.5 7.5q-20 0 -36.5 -15.5t-32.5 -38.5l-26 53q17 22 40 39.5t51 17.5q17 0 35 -7t36 -16t34 -16t28 -7z" />
    <glyph glyph-name="ograve" unicode="&#xf2;" horiz-adv-x="510" 
d="M461 233q0 -131 -52 -187t-154 -56t-154 56t-52 187q0 132 52 188t154 56t154 -56t52 -188zM380 233q0 44 -5.5 77t-20 55.5t-38.5 33.5t-61 11q-38 0 -62 -11t-38 -33.5t-19.5 -55.5t-5.5 -77t5.5 -76.5t19.5 -54.5t38 -33t62 -11q37 0 61 11t38.5 33t20 54.5t5.5 76.5z
M106 684h89l85 -145h-57z" />
    <glyph glyph-name="oacute" unicode="&#xf3;" horiz-adv-x="510" 
d="M285 539h-57l85 145h89zM461 233q0 -131 -52 -187t-154 -56t-154 56t-52 187q0 132 52 188t154 56t154 -56t52 -188zM380 233q0 44 -5.5 77t-20 55.5t-38.5 33.5t-61 11q-38 0 -62 -11t-38 -33.5t-19.5 -55.5t-5.5 -77t5.5 -76.5t19.5 -54.5t38 -33t62 -11q37 0 61 11
t38.5 33t20 54.5t5.5 76.5z" />
    <glyph glyph-name="ocircumflex" unicode="&#xf4;" horiz-adv-x="510" 
d="M320 539l-67 90l-67 -90h-60l89 140h75l90 -140h-60zM461 233q0 -131 -52 -187t-154 -56t-154 56t-52 187q0 132 52 188t154 56t154 -56t52 -188zM380 233q0 44 -5.5 77t-20 55.5t-38.5 33.5t-61 11q-38 0 -62 -11t-38 -33.5t-19.5 -55.5t-5.5 -77t5.5 -76.5t19.5 -54.5
t38 -33t62 -11q37 0 61 11t38.5 33t20 54.5t5.5 76.5z" />
    <glyph glyph-name="otilde" unicode="&#xf5;" horiz-adv-x="510" 
d="M461 233q0 -131 -52 -187t-154 -56t-154 56t-52 187q0 132 52 188t154 56t154 -56t52 -188zM380 233q0 44 -5.5 77t-20 55.5t-38.5 33.5t-61 11q-38 0 -62 -11t-38 -33.5t-19.5 -55.5t-5.5 -77t5.5 -76.5t19.5 -54.5t38 -33t62 -11q37 0 61 11t38.5 33t20 54.5t5.5 76.5z
M316 620q17 0 34 14t34 39l26 -52q-17 -23 -41 -40.5t-50 -17.5q-18 0 -36.5 7.5t-36 16t-33 16t-26.5 7.5q-20 0 -36.5 -15.5t-32.5 -38.5l-26 53q17 22 40 39.5t51 17.5q17 0 35 -7t36 -16t34 -16t28 -7z" />
    <glyph glyph-name="odieresis" unicode="&#xf6;" horiz-adv-x="510" 
d="M299 572v81h80v-81h-80zM124 572v81h80v-81h-80zM461 233q0 -131 -52 -187t-154 -56t-154 56t-52 187q0 132 52 188t154 56t154 -56t52 -188zM380 233q0 44 -5.5 77t-20 55.5t-38.5 33.5t-61 11q-38 0 -62 -11t-38 -33.5t-19.5 -55.5t-5.5 -77t5.5 -76.5t19.5 -54.5
t38 -33t62 -11q37 0 61 11t38.5 33t20 54.5t5.5 76.5z" />
    <glyph glyph-name="divide" unicode="&#xf7;" horiz-adv-x="550" 
d="M317 450h-84v83h84v-83zM63 309v66h424v-66h-424zM317 151h-84v83h84v-83z" />
    <glyph glyph-name="oslash" unicode="&#xf8;" horiz-adv-x="510" 
d="M401 429q29 -29 44.5 -77t15.5 -119q0 -131 -52 -187t-154 -56q-58 0 -97 16l-29 -52h-75l50 88q-55 56 -55 191q0 132 52 188t154 56q52 0 91 -15l31 54h74zM380 233q0 40 -5 70.5t-16 52.5l-165 -288q23 -10 61 -10q37 0 61 11t38.5 33t20 54.5t5.5 76.5zM130 233
q0 -37 3.5 -66t13.5 -51l164 285q-24 9 -56 9q-38 0 -62 -11t-38 -33.5t-19.5 -55.5t-5.5 -77z" />
    <glyph glyph-name="ugrave" unicode="&#xf9;" 
d="M64 467h77v-340q0 -35 20.5 -52t53.5 -17t68.5 9.5t69.5 29.5v370h77v-467h-62l-9 33q-38 -21 -76.5 -31.5t-81.5 -10.5q-29 0 -54 7t-43.5 23t-29 40.5t-10.5 60.5v345zM112 684h89l85 -145h-57z" />
    <glyph glyph-name="uacute" unicode="&#xfa;" 
d="M270 539h-57l85 145h89zM64 467h77v-340q0 -35 20.5 -52t53.5 -17t68.5 9.5t69.5 29.5v370h77v-467h-62l-9 33q-38 -21 -76.5 -31.5t-81.5 -10.5q-29 0 -54 7t-43.5 23t-29 40.5t-10.5 60.5v345z" />
    <glyph glyph-name="ucircumflex" unicode="&#xfb;" 
d="M314 539l-67 90l-67 -90h-60l89 140h75l90 -140h-60zM64 467h77v-340q0 -35 20.5 -52t53.5 -17t68.5 9.5t69.5 29.5v370h77v-467h-62l-9 33q-38 -21 -76.5 -31.5t-81.5 -10.5q-29 0 -54 7t-43.5 23t-29 40.5t-10.5 60.5v345z" />
    <glyph glyph-name="udieresis" unicode="&#xfc;" 
d="M293 572v81h80v-81h-80zM118 572v81h80v-81h-80zM64 467h77v-340q0 -35 20.5 -52t53.5 -17t68.5 9.5t69.5 29.5v370h77v-467h-62l-9 33q-38 -21 -76.5 -31.5t-81.5 -10.5q-29 0 -54 7t-43.5 23t-29 40.5t-10.5 60.5v345z" />
    <glyph glyph-name="yacute" unicode="&#xfd;" horiz-adv-x="440" 
d="M22 467h85l118 -385l116 385h77l-174 -539q-15 -47 -30.5 -78.5t-35 -50.5t-44.5 -27t-61 -8q-17 0 -33.5 2t-27.5 5l6 68q22 -6 52 -6q21 0 36.5 7.5t28.5 25.5t24.5 49t25.5 78zM250 539h-57l85 145h89z" />
    <glyph glyph-name="thorn" unicode="&#xfe;" horiz-adv-x="502" 
d="M145 439q28 16 61 27t70 11q93 0 135 -57t42 -182q0 -132 -44 -190t-143 -58q-24 0 -56.5 4.5t-63.5 15.5v-215h-77v925h76v-281zM267 410q-32 0 -65.5 -14t-55.5 -28v-287q24 -11 52.5 -17.5t57.5 -6.5q31 0 54 8.5t37 29t21 55t7 87.5q0 49 -6 82t-19 53.5t-33.5 29
t-49.5 8.5z" />
    <glyph glyph-name="ydieresis" unicode="&#xff;" horiz-adv-x="440" 
d="M22 467h85l118 -385l116 385h77l-174 -539q-15 -47 -30.5 -78.5t-35 -50.5t-44.5 -27t-61 -8q-17 0 -33.5 2t-27.5 5l6 68q22 -6 52 -6q21 0 36.5 7.5t28.5 25.5t24.5 49t25.5 78zM265 572v81h80v-81h-80zM90 572v81h80v-81h-80z" />
    <glyph glyph-name="Amacron" unicode="&#x100;" horiz-adv-x="549" 
d="M446 0l-43 152h-256l-44 -152h-84l203 689h105l203 -689h-84zM307 499q-4 14 -8 31t-8.5 35t-8 35t-6.5 31q-6 -28 -15.5 -65.5t-17.5 -66.5l-77 -276h217zM417 792h-280v58h280v-58z" />
    <glyph glyph-name="amacron" unicode="&#x101;" horiz-adv-x="453" 
d="M327 0l-11 34q-26 -16 -62 -30t-79 -14q-63 0 -100 33.5t-37 105.5q0 53 23 82t60 43.5t83 17.5t91 5h16v66q0 38 -21 54t-63 16q-16 0 -35.5 -2t-39.5 -5.5t-38.5 -8t-32.5 -9.5l-5 70q31 7 70.5 13t87.5 6q72 0 113 -28t41 -94v-355h-61zM311 220h-14q-96 0 -138 -21
t-42 -71q0 -33 15.5 -52.5t50.5 -19.5q36 0 69 10t59 24v130zM371 587h-280v58h280v-58z" />
    <glyph glyph-name="Abreve" unicode="&#x102;" horiz-adv-x="549" 
d="M446 0l-43 152h-256l-44 -152h-84l203 689h105l203 -689h-84zM307 499q-4 14 -8 31t-8.5 35t-8 35t-6.5 31q-6 -28 -15.5 -65.5t-17.5 -66.5l-77 -276h217zM421 874q-15 -65 -49.5 -97.5t-94.5 -32.5q-62 0 -96 32.5t-49 97.5h63q8 -35 27 -54t55 -19t54 19t26 54h64z
" />
    <glyph glyph-name="abreve" unicode="&#x103;" horiz-adv-x="452" 
d="M327 0l-11 34q-26 -16 -62 -30t-79 -14q-63 0 -100 33.5t-37 105.5q0 53 23 82t60 43.5t83 17.5t91 5h16v66q0 38 -21 54t-63 16q-16 0 -35.5 -2t-39.5 -5.5t-38.5 -8t-32.5 -9.5l-5 70q31 7 70.5 13t87.5 6q72 0 113 -28t41 -94v-355h-61zM311 220h-14q-96 0 -138 -21
t-42 -71q0 -33 15.5 -52.5t50.5 -19.5q36 0 69 10t59 24v130zM376 669q-15 -65 -49.5 -97.5t-94.5 -32.5q-62 0 -96 32.5t-49 97.5h63q8 -35 27 -54t55 -19t54 19t26 54h64z" />
    <glyph glyph-name="Aogonek" unicode="&#x104;" horiz-adv-x="549" 
d="M549 -178q-14 -8 -32.5 -12.5t-40.5 -4.5q-42 0 -64.5 19t-22.5 57q0 31 21.5 63.5t48.5 55.5h-13l-43 152h-256l-44 -152h-84l203 689h105l203 -689q-35 -26 -56.5 -54.5t-21.5 -55.5q0 -16 7 -24.5t25 -8.5q33 0 62 15zM307 499q-4 14 -8 31t-8.5 35t-8 35t-6.5 31
q-6 -28 -15.5 -65.5t-17.5 -66.5l-77 -276h217z" />
    <glyph glyph-name="aogonek" unicode="&#x105;" horiz-adv-x="453" 
d="M407 -178q-14 -8 -32.5 -12.5t-40.5 -4.5q-42 0 -64.5 19t-22.5 57q0 16 6.5 34t17.5 34.5t25 31t29 25.5l-9 28q-26 -16 -62 -30t-79 -14q-63 0 -100 33.5t-37 105.5q0 53 23 82t60 43.5t83 17.5t91 5h16v66q0 38 -21 54t-63 16q-16 0 -35.5 -2t-39.5 -5.5t-38.5 -8
t-32.5 -9.5l-5 70q31 7 70.5 13t87.5 6q72 0 113 -28t41 -94v-355q-35 -26 -56.5 -54.5t-21.5 -55.5q0 -16 7 -24.5t25 -8.5q33 0 62 15zM311 220h-14q-96 0 -138 -21t-42 -71q0 -33 15.5 -52.5t50.5 -19.5q36 0 69 10t59 24v130z" />
    <glyph glyph-name="Cacute" unicode="&#x106;" horiz-adv-x="519" 
d="M329 62q37 0 71 6t74 17l6 -75q-35 -9 -70 -14.5t-82 -5.5q-80 0 -132 25t-82.5 71.5t-42.5 112t-12 145.5q0 81 12 146.5t42.5 112t83.5 71.5t134 25q43 0 78 -5t71 -14l-9 -76q-38 10 -70 16.5t-70 6.5q-58 0 -94.5 -19t-57.5 -55.5t-28.5 -89t-7.5 -119.5t7.5 -119.5
t28 -88.5t56.5 -55t94 -19zM339 744h-57l85 145h89z" />
    <glyph glyph-name="cacute" unicode="&#x107;" horiz-adv-x="411" 
d="M271 539h-57l85 145h89zM372 0q-26 -4 -59.5 -6.5t-56.5 -2.5q-51 0 -89.5 13t-64.5 41.5t-39.5 74.5t-13.5 112q0 132 53 188t154 56q26 0 57.5 -2.5t58.5 -7.5l-5 -69q-27 5 -55.5 8.5t-54.5 3.5q-37 0 -61.5 -11t-39 -32.5t-20.5 -54.5t-6 -77t6 -77t20.5 -55
t39 -33.5t61.5 -11.5q27 0 54 3t56 8z" />
    <glyph glyph-name="Ccircumflex" unicode="&#x108;" horiz-adv-x="519" 
d="M329 62q37 0 71 6t74 17l6 -75q-35 -9 -70 -14.5t-82 -5.5q-80 0 -132 25t-82.5 71.5t-42.5 112t-12 145.5q0 81 12 146.5t42.5 112t83.5 71.5t134 25q43 0 78 -5t71 -14l-9 -76q-38 10 -70 16.5t-70 6.5q-58 0 -94.5 -19t-57.5 -55.5t-28.5 -89t-7.5 -119.5t7.5 -119.5
t28 -88.5t56.5 -55t94 -19zM372 744l-67 90l-67 -90h-60l89 140h75l90 -140h-60z" />
    <glyph glyph-name="ccircumflex" unicode="&#x109;" horiz-adv-x="411" 
d="M297 539l-67 90l-67 -90h-60l89 140h75l90 -140h-60zM372 0q-26 -4 -59.5 -6.5t-56.5 -2.5q-51 0 -89.5 13t-64.5 41.5t-39.5 74.5t-13.5 112q0 132 53 188t154 56q26 0 57.5 -2.5t58.5 -7.5l-5 -69q-27 5 -55.5 8.5t-54.5 3.5q-37 0 -61.5 -11t-39 -32.5t-20.5 -54.5
t-6 -77t6 -77t20.5 -55t39 -33.5t61.5 -11.5q27 0 54 3t56 8z" />
    <glyph glyph-name="Cdotaccent" unicode="&#x10a;" horiz-adv-x="519" 
d="M329 62q37 0 71 6t74 17l6 -75q-35 -9 -70 -14.5t-82 -5.5q-80 0 -132 25t-82.5 71.5t-42.5 112t-12 145.5q0 81 12 146.5t42.5 112t83.5 71.5t134 25q43 0 78 -5t71 -14l-9 -76q-38 10 -70 16.5t-70 6.5q-58 0 -94.5 -19t-57.5 -55.5t-28.5 -89t-7.5 -119.5t7.5 -119.5
t28 -88.5t56.5 -55t94 -19zM271 775v86h76v-86h-76z" />
    <glyph glyph-name="cdotaccent" unicode="&#x10b;" horiz-adv-x="411" 
d="M372 0q-26 -4 -59.5 -6.5t-56.5 -2.5q-51 0 -89.5 13t-64.5 41.5t-39.5 74.5t-13.5 112q0 132 53 188t154 56q26 0 57.5 -2.5t58.5 -7.5l-5 -69q-27 5 -55.5 8.5t-54.5 3.5q-37 0 -61.5 -11t-39 -32.5t-20.5 -54.5t-6 -77t6 -77t20.5 -55t39 -33.5t61.5 -11.5q27 0 54 3
t56 8zM205 566v86h76v-86h-76z" />
    <glyph glyph-name="Ccaron" unicode="&#x10c;" horiz-adv-x="519" 
d="M329 62q37 0 71 6t74 17l6 -75q-35 -9 -70 -14.5t-82 -5.5q-80 0 -132 25t-82.5 71.5t-42.5 112t-12 145.5q0 81 12 146.5t42.5 112t83.5 71.5t134 25q43 0 78 -5t71 -14l-9 -76q-38 10 -70 16.5t-70 6.5q-58 0 -94.5 -19t-57.5 -55.5t-28.5 -89t-7.5 -119.5t7.5 -119.5
t28 -88.5t56.5 -55t94 -19zM336 744h-75l-89 140h59l67 -90l67 90h61z" />
    <glyph glyph-name="ccaron" unicode="&#x10d;" horiz-adv-x="411" 
d="M274 539h-75l-89 140h59l67 -90l67 90h61zM372 0q-26 -4 -59.5 -6.5t-56.5 -2.5q-51 0 -89.5 13t-64.5 41.5t-39.5 74.5t-13.5 112q0 132 53 188t154 56q26 0 57.5 -2.5t58.5 -7.5l-5 -69q-27 5 -55.5 8.5t-54.5 3.5q-37 0 -61.5 -11t-39 -32.5t-20.5 -54.5t-6 -77t6 -77
t20.5 -55t39 -33.5t61.5 -11.5q27 0 54 3t56 8z" />
    <glyph glyph-name="Dcaron" unicode="&#x10e;" horiz-adv-x="612" 
d="M553 345q0 -105 -18 -179t-61 -115q-18 -17 -37 -27.5t-41.5 -15.5t-49.5 -6.5t-60 -1.5h-202v689h202q33 0 60 -1.5t49.5 -7t41.5 -15.5t37 -27q42 -42 60.5 -115t18.5 -178zM468 345q0 90 -11 149t-41 88q-26 25 -60.5 30t-79.5 5h-110v-545h110q43 0 78.5 5.5
t60.5 28.5q31 31 42 90.5t11 148.5zM326 744h-75l-89 140h59l67 -90l67 90h61z" />
    <glyph glyph-name="dcaron" unicode="&#x10f;" horiz-adv-x="558" 
d="M578 720l-4 -55q-3 -30 -17 -61t-27 -52h-57q6 16 11 29.5t8.5 27t6 28t3.5 31.5l-1 52h77zM49 228q0 56 9.5 102t30.5 78.5t54 50.5t80 18q37 0 69 -10t61 -27v280h77v-720h-63l-7 34q-25 -17 -59 -30.5t-77 -13.5q-90 0 -132.5 56t-42.5 182zM129 228q0 -51 6.5 -84.5
t19.5 -52.5t32.5 -26.5t45.5 -7.5q37 0 67 13.5t53 27.5v273q-27 17 -57 27.5t-67 10.5q-51 0 -75.5 -42.5t-24.5 -138.5z" />
    <glyph glyph-name="Dcroat" unicode="&#x110;" horiz-adv-x="632" 
d="M573 345q0 -105 -18 -179t-61 -115q-18 -17 -37 -27.5t-41.5 -15.5t-49.5 -6.5t-60 -1.5h-202v311h-95v73h95v305h202q33 0 60 -1.5t49.5 -7t41.5 -15.5t37 -27q42 -42 60.5 -115t18.5 -178zM488 345q0 90 -11 149t-41 88q-26 25 -60.5 30t-79.5 5h-110v-233h160v-73
h-160v-239h110q43 0 78.5 5.5t60.5 28.5q31 31 42 90.5t11 148.5z" />
    <glyph glyph-name="dcroat" unicode="&#x111;" 
d="M213 628h140v92h77v-92h74v-65h-74v-563h-63l-7 34q-25 -17 -59 -30.5t-77 -13.5q-90 0 -132.5 56t-42.5 182q0 56 9.5 102t30.5 78.5t54 50.5t80 18q37 0 69 -10t61 -27v123h-140v65zM129 228q0 -51 6.5 -84.5t19.5 -52.5t32.5 -26.5t45.5 -7.5q37 0 67 13.5t53 27.5
v273q-27 17 -57 27.5t-67 10.5q-51 0 -75.5 -42.5t-24.5 -138.5z" />
    <glyph glyph-name="Emacron" unicode="&#x112;" horiz-adv-x="508" 
d="M84 0v689h383v-71h-301v-228h214v-71h-214v-248h301v-71h-383zM421 792h-280v58h280v-58z" />
    <glyph glyph-name="emacron" unicode="&#x113;" horiz-adv-x="460" 
d="M411 219h-283q0 -48 9.5 -79.5t26.5 -50t40.5 -25.5t50.5 -7q39 0 71 4.5t66 12.5l4 -69q-33 -6 -68.5 -10t-73.5 -4q-50 0 -88.5 13t-64.5 42t-39 75t-13 111q0 130 48 187t148 57q90 0 128 -48t38 -148v-61zM334 278q0 74 -21 104t-70 30q-55 0 -80.5 -29.5
t-31.5 -104.5h203zM372 587h-280v58h280v-58z" />
    <glyph glyph-name="Ebreve" unicode="&#x114;" horiz-adv-x="508" 
d="M84 0v689h383v-71h-301v-228h214v-71h-214v-248h301v-71h-383zM425 874q-15 -65 -49.5 -97.5t-94.5 -32.5q-62 0 -96 32.5t-49 97.5h63q8 -35 27 -54t55 -19t54 19t26 54h64z" />
    <glyph glyph-name="ebreve" unicode="&#x115;" horiz-adv-x="460" 
d="M411 219h-283q0 -48 9.5 -79.5t26.5 -50t40.5 -25.5t50.5 -7q39 0 71 4.5t66 12.5l4 -69q-33 -6 -68.5 -10t-73.5 -4q-50 0 -88.5 13t-64.5 42t-39 75t-13 111q0 130 48 187t148 57q90 0 128 -48t38 -148v-61zM334 278q0 74 -21 104t-70 30q-55 0 -80.5 -29.5
t-31.5 -104.5h203zM381 669q-15 -65 -49.5 -97.5t-94.5 -32.5q-62 0 -96 32.5t-49 97.5h63q8 -35 27 -54t55 -19t54 19t26 54h64z" />
    <glyph glyph-name="Edotaccent" unicode="&#x116;" horiz-adv-x="508" 
d="M84 0v689h383v-71h-301v-228h214v-71h-214v-248h301v-71h-383zM244 775v86h76v-86h-76z" />
    <glyph glyph-name="edotaccent" unicode="&#x117;" horiz-adv-x="460" 
d="M411 219h-283q0 -48 9.5 -79.5t26.5 -50t40.5 -25.5t50.5 -7q39 0 71 4.5t66 12.5l4 -69q-33 -6 -68.5 -10t-73.5 -4q-50 0 -88.5 13t-64.5 42t-39 75t-13 111q0 130 48 187t148 57q90 0 128 -48t38 -148v-61zM334 278q0 74 -21 104t-70 30q-55 0 -80.5 -29.5
t-31.5 -104.5h203zM200 566v86h76v-86h-76z" />
    <glyph glyph-name="Eogonek" unicode="&#x118;" horiz-adv-x="508" 
d="M487 -178q-14 -8 -32.5 -12.5t-40.5 -4.5q-42 0 -64.5 19t-22.5 57q0 31 21.5 63.5t48.5 55.5h-313v689h383v-71h-301v-228h214v-71h-214v-248h301l1 -71q-35 -26 -56.5 -54.5t-21.5 -55.5q0 -16 7 -24.5t25 -8.5q33 0 62 15z" />
    <glyph glyph-name="eogonek" unicode="&#x119;" horiz-adv-x="460" 
d="M411 219h-283q0 -48 9.5 -79.5t26.5 -50t40.5 -25.5t50.5 -7q39 0 71 4.5t66 12.5l4 -69q-35 -26 -59.5 -56t-24.5 -59q0 -16 7 -24.5t25 -8.5q33 0 62 15l3 -50q-14 -8 -32.5 -12.5t-40.5 -4.5q-42 0 -64.5 19t-22.5 57q0 33 20.5 62.5t49.5 50.5q-32 -3 -65 -3
q-50 0 -88.5 13t-64.5 42t-39 75t-13 111q0 130 48 187t148 57q90 0 128 -48t38 -148v-61zM334 278q0 74 -21 104t-70 30q-55 0 -80.5 -29.5t-31.5 -104.5h203z" />
    <glyph glyph-name="Ecaron" unicode="&#x11a;" horiz-adv-x="508" 
d="M84 0v689h383v-71h-301v-228h214v-71h-214v-248h301v-71h-383zM319 744h-75l-89 140h59l67 -90l67 90h61z" />
    <glyph glyph-name="ecaron" unicode="&#x11b;" horiz-adv-x="460" 
d="M272 539h-75l-89 140h59l67 -90l67 90h61zM411 219h-283q0 -48 9.5 -79.5t26.5 -50t40.5 -25.5t50.5 -7q39 0 71 4.5t66 12.5l4 -69q-33 -6 -68.5 -10t-73.5 -4q-50 0 -88.5 13t-64.5 42t-39 75t-13 111q0 130 48 187t148 57q90 0 128 -48t38 -148v-61zM334 278
q0 74 -21 104t-70 30q-55 0 -80.5 -29.5t-31.5 -104.5h203z" />
    <glyph glyph-name="Gcircumflex" unicode="&#x11c;" horiz-adv-x="590" 
d="M540 22q-41 -12 -95.5 -21.5t-102.5 -9.5q-82 0 -136.5 25.5t-87 72t-46 112t-13.5 145.5q0 81 14 146t47 111t87.5 70.5t135.5 24.5q45 0 83 -4.5t82 -14.5l-9 -75q-40 11 -80 16.5t-78 5.5q-58 0 -96.5 -18.5t-61 -54.5t-31.5 -88t-9 -119q0 -66 8.5 -119t30.5 -89.5
t60.5 -56t99.5 -19.5q13 0 29 1t31.5 3.5t30.5 5.5t26 6v215h-121v71h202v-342zM392 744l-67 90l-67 -90h-60l89 140h75l90 -140h-60z" />
    <glyph glyph-name="gcircumflex" unicode="&#x11d;" horiz-adv-x="498" 
d="M326 539l-67 90l-67 -90h-60l89 140h75l90 -140h-60zM353 29q-23 -15 -55 -27t-75 -12q-89 0 -131.5 55.5t-42.5 181.5q0 57 9.5 103t30.5 78.5t53.5 50.5t79.5 18q39 0 72.5 -10.5t65.5 -29.5l8 30h61v-515q0 -93 -45.5 -140.5t-138.5 -47.5q-48 0 -86 4t-74 11l5 70
q40 -8 75.5 -13t73.5 -5q54 0 84 30t30 94v74zM128 227q0 -51 7 -84t20 -52t32.5 -26.5t45.5 -7.5q35 0 67 13t52 27v274q-27 17 -57 28t-66 11q-51 0 -76 -43.5t-25 -139.5z" />
    <glyph glyph-name="Gbreve" unicode="&#x11e;" horiz-adv-x="590" 
d="M540 22q-41 -12 -95.5 -21.5t-102.5 -9.5q-82 0 -136.5 25.5t-87 72t-46 112t-13.5 145.5q0 81 14 146t47 111t87.5 70.5t135.5 24.5q45 0 83 -4.5t82 -14.5l-9 -75q-40 11 -80 16.5t-78 5.5q-58 0 -96.5 -18.5t-61 -54.5t-31.5 -88t-9 -119q0 -66 8.5 -119t30.5 -89.5
t60.5 -56t99.5 -19.5q13 0 29 1t31.5 3.5t30.5 5.5t26 6v215h-121v71h202v-342zM467 874q-15 -65 -49.5 -97.5t-94.5 -32.5q-62 0 -96 32.5t-49 97.5h63q8 -35 27 -54t55 -19t54 19t26 54h64z" />
    <glyph glyph-name="gbreve" unicode="&#x11f;" horiz-adv-x="498" 
d="M402 669q-15 -65 -49.5 -97.5t-94.5 -32.5q-62 0 -96 32.5t-49 97.5h63q8 -35 27 -54t55 -19t54 19t26 54h64zM353 29q-23 -15 -55 -27t-75 -12q-89 0 -131.5 55.5t-42.5 181.5q0 57 9.5 103t30.5 78.5t53.5 50.5t79.5 18q39 0 72.5 -10.5t65.5 -29.5l8 30h61v-515
q0 -93 -45.5 -140.5t-138.5 -47.5q-48 0 -86 4t-74 11l5 70q40 -8 75.5 -13t73.5 -5q54 0 84 30t30 94v74zM128 227q0 -51 7 -84t20 -52t32.5 -26.5t45.5 -7.5q35 0 67 13t52 27v274q-27 17 -57 28t-66 11q-51 0 -76 -43.5t-25 -139.5z" />
    <glyph glyph-name="Gdotaccent" unicode="&#x120;" horiz-adv-x="590" 
d="M540 22q-41 -12 -95.5 -21.5t-102.5 -9.5q-82 0 -136.5 25.5t-87 72t-46 112t-13.5 145.5q0 81 14 146t47 111t87.5 70.5t135.5 24.5q45 0 83 -4.5t82 -14.5l-9 -75q-40 11 -80 16.5t-78 5.5q-58 0 -96.5 -18.5t-61 -54.5t-31.5 -88t-9 -119q0 -66 8.5 -119t30.5 -89.5
t60.5 -56t99.5 -19.5q13 0 29 1t31.5 3.5t30.5 5.5t26 6v215h-121v71h202v-342zM274 775v86h76v-86h-76z" />
    <glyph glyph-name="gdotaccent" unicode="&#x121;" horiz-adv-x="498" 
d="M221 566v86h76v-86h-76zM353 29q-23 -15 -55 -27t-75 -12q-89 0 -131.5 55.5t-42.5 181.5q0 57 9.5 103t30.5 78.5t53.5 50.5t79.5 18q39 0 72.5 -10.5t65.5 -29.5l8 30h61v-515q0 -93 -45.5 -140.5t-138.5 -47.5q-48 0 -86 4t-74 11l5 70q40 -8 75.5 -13t73.5 -5
q54 0 84 30t30 94v74zM128 227q0 -51 7 -84t20 -52t32.5 -26.5t45.5 -7.5q35 0 67 13t52 27v274q-27 17 -57 28t-66 11q-51 0 -76 -43.5t-25 -139.5z" />
    <glyph glyph-name="Gcommaaccent" unicode="&#x122;" horiz-adv-x="590" 
d="M354 -61l-4 -55q-3 -30 -17 -61t-27 -52h-57q6 16 11 29.5t8.5 27t6 28t3.5 31.5l-1 52h77zM540 22q-41 -12 -95.5 -21.5t-102.5 -9.5q-82 0 -136.5 25.5t-87 72t-46 112t-13.5 145.5q0 81 14 146t47 111t87.5 70.5t135.5 24.5q45 0 83 -4.5t82 -14.5l-9 -75
q-40 11 -80 16.5t-78 5.5q-58 0 -96.5 -18.5t-61 -54.5t-31.5 -88t-9 -119q0 -66 8.5 -119t30.5 -89.5t60.5 -56t99.5 -19.5q13 0 29 1t31.5 3.5t30.5 5.5t26 6v215h-121v71h202v-342z" />
    <glyph glyph-name="gcommaaccent" unicode="&#x123;" horiz-adv-x="498" 
d="M313 705l-4 -55q-3 -30 -17 -61t-27 -52h-57q6 16 11 29.5t8.5 27t6 28t3.5 31.5l-1 52h77zM353 29q-23 -15 -55 -27t-75 -12q-89 0 -131.5 55.5t-42.5 181.5q0 57 9.5 103t30.5 78.5t53.5 50.5t79.5 18q39 0 72.5 -10.5t65.5 -29.5l8 30h61v-515q0 -93 -45.5 -140.5
t-138.5 -47.5q-48 0 -86 4t-74 11l5 70q40 -8 75.5 -13t73.5 -5q54 0 84 30t30 94v74zM128 227q0 -51 7 -84t20 -52t32.5 -26.5t45.5 -7.5q35 0 67 13t52 27v274q-27 17 -57 28t-66 11q-51 0 -76 -43.5t-25 -139.5z" />
    <glyph glyph-name="Hcircumflex" unicode="&#x124;" horiz-adv-x="638" 
d="M473 0v319h-307v-319h-82v689h82v-299h307v299h80v-689h-80zM386 744l-67 90l-67 -90h-60l89 140h75l90 -140h-60z" />
    <glyph glyph-name="hcircumflex" unicode="&#x125;" 
d="M176 774l-67 90l-67 -90h-60l89 140h75l90 -140h-60zM435 0h-77v340q0 35 -20.5 52.5t-52.5 17.5q-34 0 -69.5 -9.5t-69.5 -29.5v-371h-77v720h77v-283q38 21 74.5 30.5t78.5 9.5q28 0 53 -7.5t43.5 -23t29 -40.5t10.5 -61v-345z" />
    <glyph glyph-name="Hbar" unicode="&#x126;" horiz-adv-x="638" 
d="M473 0v319h-307v-319h-82v689h82v-141h307v141h80v-689h-80zM473 390v86h-307v-86h307z" />
    <glyph glyph-name="hbar" unicode="&#x127;" 
d="M435 0h-77v340q0 35 -20.5 52.5t-52.5 17.5q-34 0 -69.5 -9.5t-69.5 -29.5v-371h-77v563h-71v65h71v92h77v-92h143v-65h-143v-126q38 21 74.5 30.5t78.5 9.5q28 0 53 -7.5t43.5 -23t29 -40.5t10.5 -61v-345z" />
    <glyph glyph-name="Itilde" unicode="&#x128;" horiz-adv-x="248" 
d="M83 0v689h82v-689h-82zM187 825q17 0 34 14t34 39l26 -52q-17 -23 -41 -40.5t-50 -17.5q-18 0 -36.5 7.5t-36 16t-33 16t-26.5 7.5q-20 0 -36.5 -15.5t-32.5 -38.5l-26 53q17 22 40 39.5t51 17.5q17 0 35 -7t36 -16t34 -16t28 -7z" />
    <glyph glyph-name="itilde" unicode="&#x129;" horiz-adv-x="222" 
d="M73 0v467h77v-467h-77zM171 620q17 0 34 14t34 39l26 -52q-17 -23 -41 -40.5t-50 -17.5q-18 0 -36.5 7.5t-36 16t-33 16t-26.5 7.5q-20 0 -36.5 -15.5t-32.5 -38.5l-26 53q17 22 40 39.5t51 17.5q17 0 35 -7t36 -16t34 -16t28 -7z" />
    <glyph glyph-name="Imacron" unicode="&#x12a;" horiz-adv-x="248" 
d="M83 0v689h82v-689h-82zM262 792h-280v58h280v-58z" />
    <glyph glyph-name="imacron" unicode="&#x12b;" horiz-adv-x="222" 
d="M73 0v467h77v-467h-77zM251 587h-280v58h280v-58z" />
    <glyph glyph-name="Ibreve" unicode="&#x12c;" horiz-adv-x="248" 
d="M83 0v689h82v-689h-82zM267 874q-15 -65 -49.5 -97.5t-94.5 -32.5q-62 0 -96 32.5t-49 97.5h63q8 -35 27 -54t55 -19t54 19t26 54h64z" />
    <glyph glyph-name="ibreve" unicode="&#x12d;" horiz-adv-x="222" 
d="M73 0v467h77v-467h-77zM254 669q-15 -65 -49.5 -97.5t-94.5 -32.5q-62 0 -96 32.5t-49 97.5h63q8 -35 27 -54t55 -19t54 19t26 54h64z" />
    <glyph glyph-name="Iogonek" unicode="&#x12e;" horiz-adv-x="248" 
d="M184 -178q-14 -8 -32.5 -12.5t-40.5 -4.5q-42 0 -64.5 19t-22.5 57q0 31 21.5 63.5t48.5 55.5h-11v689h82v-689q-35 -26 -56.5 -54.5t-21.5 -55.5q0 -16 7 -24.5t25 -8.5q33 0 62 15z" />
    <glyph glyph-name="iogonek" unicode="&#x12f;" horiz-adv-x="222" 
d="M168 -178q-14 -8 -32.5 -12.5t-40.5 -4.5q-42 0 -64.5 19t-22.5 57q0 15 5 30.5t14 31t20.5 30t24.5 25.5v469h77v-467q-35 -26 -56.5 -54.5t-21.5 -55.5q0 -16 7 -24.5t25 -8.5q33 0 62 15zM69 568v93h82v-93h-82z" />
    <glyph glyph-name="Idotaccent" unicode="&#x130;" horiz-adv-x="248" 
d="M83 0v689h82v-689h-82zM85 775v86h76v-86h-76z" />
    <glyph glyph-name="dotlessi" unicode="&#x131;" horiz-adv-x="223" 
d="M73 0v467h77v-467h-77z" />
    <glyph glyph-name="IJ" unicode="&#x132;" horiz-adv-x="603" 
d="M84 0v689h82v-689h-82zM524 168q0 -53 -8 -87t-26 -54.5t-48.5 -28.5t-75.5 -8q-26 0 -61 2t-63 7l4 73q25 -5 54.5 -7.5t58.5 -2.5q27 0 43.5 4t25.5 15.5t12 31t3 49.5v527h81v-521z" />
    <glyph glyph-name="ij" unicode="&#x133;" horiz-adv-x="395" 
d="M69 568v93h82v-93h-82zM72 0v467h77v-467h-77zM243 568v93h82v-93h-82zM210 -236q-17 0 -38 2t-38 5l4 71q15 -3 32 -5t31 -2q22 0 33.5 14.5t11.5 57.5v560h77v-553q0 -43 -6.5 -72t-20 -46t-35 -24.5t-51.5 -7.5z" />
    <glyph glyph-name="Jcircumflex" unicode="&#x134;" horiz-adv-x="363" 
d="M320 744l-67 90l-67 -90h-60l89 140h75l90 -140h-60zM291 168q0 -53 -8 -87t-26 -54.5t-48.5 -28.5t-75.5 -8q-26 0 -61 2t-63 7l4 73q25 -5 54.5 -7.5t58.5 -2.5q27 0 43.5 4t25.5 15.5t12 31t3 49.5v527h81v-521z" />
    <glyph glyph-name="jcircumflex" unicode="&#x135;" horiz-adv-x="223" 
d="M36 -236q-17 0 -38 2t-38 5l4 71q15 -3 32 -5t31 -2q22 0 33.5 14.5t11.5 57.5v560h77v-553q0 -43 -6.5 -72t-20 -46t-35 -24.5t-51.5 -7.5zM178 539l-67 90l-67 -90h-60l89 140h75l90 -140h-60z" />
    <glyph glyph-name="Kcommaaccent" unicode="&#x136;" horiz-adv-x="544" 
d="M327 -61l-4 -55q-3 -30 -17 -61t-27 -52h-57q6 16 11 29.5t8.5 27t6 28t3.5 31.5l-1 52h77zM438 0l-186 335l-86 -95v-240h-82v689h82v-354l254 354h94l-211 -284l226 -405h-91z" />
    <glyph glyph-name="kcommaaccent" unicode="&#x137;" horiz-adv-x="439" 
d="M346 0l-140 229l-60 -60v-169h-77v720h77v-476q10 17 23.5 35.5t25.5 35.5l118 152h90l-147 -178l177 -289h-87zM290 -61l-4 -55q-3 -30 -17 -61t-27 -52h-57q6 16 11 29.5t8.5 27t6 28t3.5 31.5l-1 52h77z" />
    <glyph glyph-name="kgreenlandic" unicode="&#x138;" horiz-adv-x="439" 
d="M346 0l-140 229l-60 -60v-169h-77v467h77v-223q10 17 23.5 35.5t25.5 35.5l118 152h90l-147 -178l177 -289h-87z" />
    <glyph glyph-name="Lacute" unicode="&#x139;" horiz-adv-x="478" 
d="M155 745h-57l85 145h89zM84 0v689h82v-618h287v-71h-369z" />
    <glyph glyph-name="lacute" unicode="&#x13a;" horiz-adv-x="215" 
d="M139 774h-57l85 145h89zM69 0v720h77v-720h-77z" />
    <glyph glyph-name="Lcommaaccent" unicode="&#x13b;" horiz-adv-x="478" 
d="M313 -61l-4 -55q-3 -30 -17 -61t-27 -52h-57q6 16 11 29.5t8.5 27t6 28t3.5 31.5l-1 52h77zM84 0v689h82v-618h287v-71h-369z" />
    <glyph glyph-name="lcommaaccent" unicode="&#x13c;" horiz-adv-x="215" 
d="M140 -61l-4 -55q-3 -30 -17 -61t-27 -52h-57q6 16 11 29.5t8.5 27t6 28t3.5 31.5l-1 52h77zM69 0v720h77v-720h-77z" />
    <glyph glyph-name="Lcaron" unicode="&#x13d;" horiz-adv-x="478" 
d="M419 689l-4 -55q-3 -30 -17 -61t-27 -52h-57q6 16 11 29.5t8.5 27t6 28t3.5 31.5l-1 52h77zM84 0v689h82v-618h287v-71h-369z" />
    <glyph glyph-name="lcaron" unicode="&#x13e;" horiz-adv-x="272" 
d="M69 0v720h77v-720h-77zM292 720l-4 -55q-3 -30 -17 -61t-27 -52h-57q6 16 11 29.5t8.5 27t6 28t3.5 31.5l-1 52h77z" />
    <glyph glyph-name="Ldot" unicode="&#x13f;" horiz-adv-x="478" 
d="M84 0v689h82v-618h287v-71h-369zM285 304v86h76v-86h-76z" />
    <glyph glyph-name="ldot" unicode="&#x140;" horiz-adv-x="359" 
d="M69 0v720h77v-720h-77zM244 305v86h76v-86h-76z" />
    <glyph glyph-name="Lslash" unicode="&#x141;" horiz-adv-x="488" 
d="M94 303v386h82v-339l159 91v-75l-159 -91v-204h287v-71h-369v228l-80 -45v74z" />
    <glyph glyph-name="lslash" unicode="&#x142;" horiz-adv-x="289" 
d="M105 0v231l-85 -48v74l85 48v415h77v-371l85 49v-75l-85 -49v-274h-77z" />
    <glyph glyph-name="Nacute" unicode="&#x143;" horiz-adv-x="648" 
d="M340 745h-57l85 145h89zM451 165q14 -29 22 -50t17 -46h2q0 7 -1 21t-2 29t-1.5 28.5t-0.5 21.5v520h77v-689h-113l-257 532q-9 19 -17 38.5t-19 45.5h-2q1 -8 1.5 -21.5t1.5 -28t1.5 -28t0.5 -19.5v-519h-77v689h114z" />
    <glyph glyph-name="nacute" unicode="&#x144;" 
d="M280 539h-57l85 145h89zM435 0h-77v340q0 35 -20.5 52.5t-52.5 17.5q-34 0 -69.5 -9.5t-69.5 -29.5v-371h-77v467h62l9 -33q39 21 76.5 32t82.5 11q28 0 53 -7.5t43.5 -23t29 -40.5t10.5 -61v-345z" />
    <glyph glyph-name="Ncommaaccent" unicode="&#x145;" horiz-adv-x="648" 
d="M358 -61l-4 -55q-3 -30 -17 -61t-27 -52h-57q6 16 11 29.5t8.5 27t6 28t3.5 31.5l-1 52h77zM451 165q14 -29 22 -50t17 -46h2q0 7 -1 21t-2 29t-1.5 28.5t-0.5 21.5v520h77v-689h-113l-257 532q-9 19 -17 38.5t-19 45.5h-2q1 -8 1.5 -21.5t1.5 -28t1.5 -28t0.5 -19.5
v-519h-77v689h114z" />
    <glyph glyph-name="ncommaaccent" unicode="&#x146;" 
d="M286 -61l-4 -55q-3 -30 -17 -61t-27 -52h-57q6 16 11 29.5t8.5 27t6 28t3.5 31.5l-1 52h77zM435 0h-77v340q0 35 -20.5 52.5t-52.5 17.5q-34 0 -69.5 -9.5t-69.5 -29.5v-371h-77v467h62l9 -33q39 21 76.5 32t82.5 11q28 0 53 -7.5t43.5 -23t29 -40.5t10.5 -61v-345z" />
    <glyph glyph-name="Ncaron" unicode="&#x147;" horiz-adv-x="648" 
d="M358 744h-75l-89 140h59l67 -90l67 90h61zM451 165q14 -29 22 -50t17 -46h2q0 7 -1 21t-2 29t-1.5 28.5t-0.5 21.5v520h77v-689h-113l-257 532q-9 19 -17 38.5t-19 45.5h-2q1 -8 1.5 -21.5t1.5 -28t1.5 -28t0.5 -19.5v-519h-77v689h114z" />
    <glyph glyph-name="ncaron" unicode="&#x148;" 
d="M289 539h-75l-89 140h59l67 -90l67 90h61zM435 0h-77v340q0 35 -20.5 52.5t-52.5 17.5q-34 0 -69.5 -9.5t-69.5 -29.5v-371h-77v467h62l9 -33q39 21 76.5 32t82.5 11q28 0 53 -7.5t43.5 -23t29 -40.5t10.5 -61v-345z" />
    <glyph glyph-name="Eng" unicode="&#x14a;" horiz-adv-x="648" 
d="M451 -236q-17 0 -38 2t-38 5l4 71q15 -3 32 -5t31 -2q22 0 33.5 14.5t11.5 57.5v79l-293 546q-9 19 -17 38.5t-19 45.5h-2q1 -8 1.5 -21.5t1.5 -28t1.5 -28t0.5 -19.5v-519h-77v689h114l253 -469q11 -23 21.5 -44.5t17.5 -41.5h2q-2 23 -3.5 42t-1.5 48v465h77v-775
q0 -43 -6.5 -72t-20 -46t-35 -24.5t-51.5 -7.5z" />
    <glyph glyph-name="eng" unicode="&#x14b;" 
d="M435 -86q0 -43 -6.5 -72t-20 -46t-35 -24.5t-51.5 -7.5q-17 0 -38 2t-38 5l4 71q15 -3 32 -5t31 -2q22 0 33.5 14.5t11.5 57.5v433q0 35 -20.5 52.5t-52.5 17.5q-34 0 -69.5 -9.5t-69.5 -29.5v-371h-77v467h62l9 -33q39 21 76.5 32t82.5 11q28 0 53 -7.5t43.5 -23
t29 -40.5t10.5 -61v-431z" />
    <glyph glyph-name="Omacron" unicode="&#x14c;" horiz-adv-x="634" 
d="M577 343q0 -80 -11 -145.5t-40 -111.5t-79.5 -71t-129.5 -25q-78 0 -128.5 25t-80 71.5t-40.5 111.5t-11 146q0 80 11 145.5t40.5 112t80 72t128.5 25.5q79 0 129.5 -25.5t79.5 -72t40 -112t11 -146.5zM493 344q0 67 -7 120t-26.5 89t-54 55t-88.5 19t-88.5 -19t-54 -55
t-26.5 -89t-7 -120q0 -68 7 -120t26.5 -88t54 -54.5t88.5 -18.5t88.5 18.5t54 54.5t26.5 88t7 120zM460 792h-280v58h280v-58z" />
    <glyph glyph-name="omacron" unicode="&#x14d;" horiz-adv-x="510" 
d="M392 587h-280v58h280v-58zM461 233q0 -131 -52 -187t-154 -56t-154 56t-52 187q0 132 52 188t154 56t154 -56t52 -188zM380 233q0 44 -5.5 77t-20 55.5t-38.5 33.5t-61 11q-38 0 -62 -11t-38 -33.5t-19.5 -55.5t-5.5 -77t5.5 -76.5t19.5 -54.5t38 -33t62 -11q37 0 61 11
t38.5 33t20 54.5t5.5 76.5z" />
    <glyph glyph-name="Obreve" unicode="&#x14e;" horiz-adv-x="634" 
d="M577 343q0 -80 -11 -145.5t-40 -111.5t-79.5 -71t-129.5 -25q-78 0 -128.5 25t-80 71.5t-40.5 111.5t-11 146q0 80 11 145.5t40.5 112t80 72t128.5 25.5q79 0 129.5 -25.5t79.5 -72t40 -112t11 -146.5zM493 344q0 67 -7 120t-26.5 89t-54 55t-88.5 19t-88.5 -19t-54 -55
t-26.5 -89t-7 -120q0 -68 7 -120t26.5 -88t54 -54.5t88.5 -18.5t88.5 18.5t54 54.5t26.5 88t7 120zM461 874q-15 -65 -49.5 -97.5t-94.5 -32.5q-62 0 -96 32.5t-49 97.5h63q8 -35 27 -54t55 -19t54 19t26 54h64z" />
    <glyph glyph-name="obreve" unicode="&#x14f;" horiz-adv-x="510" 
d="M461 233q0 -131 -52 -187t-154 -56t-154 56t-52 187q0 132 52 188t154 56t154 -56t52 -188zM380 233q0 44 -5.5 77t-20 55.5t-38.5 33.5t-61 11q-38 0 -62 -11t-38 -33.5t-19.5 -55.5t-5.5 -77t5.5 -76.5t19.5 -54.5t38 -33t62 -11q37 0 61 11t38.5 33t20 54.5t5.5 76.5z
M396 669q-15 -65 -49.5 -97.5t-94.5 -32.5q-62 0 -96 32.5t-49 97.5h63q8 -35 27 -54t55 -19t54 19t26 54h64z" />
    <glyph glyph-name="Ohungarumlaut" unicode="&#x150;" horiz-adv-x="634" 
d="M417 744h-57l85 145h88zM263 744h-57l85 145h89zM577 343q0 -80 -11 -145.5t-40 -111.5t-79.5 -71t-129.5 -25q-78 0 -128.5 25t-80 71.5t-40.5 111.5t-11 146q0 80 11 145.5t40.5 112t80 72t128.5 25.5q79 0 129.5 -25.5t79.5 -72t40 -112t11 -146.5zM493 344
q0 67 -7 120t-26.5 89t-54 55t-88.5 19t-88.5 -19t-54 -55t-26.5 -89t-7 -120q0 -68 7 -120t26.5 -88t54 -54.5t88.5 -18.5t88.5 18.5t54 54.5t26.5 88t7 120z" />
    <glyph glyph-name="ohungarumlaut" unicode="&#x151;" horiz-adv-x="510" 
d="M354 539h-57l85 145h88zM200 539h-57l85 145h89zM461 233q0 -131 -52 -187t-154 -56t-154 56t-52 187q0 132 52 188t154 56t154 -56t52 -188zM380 233q0 44 -5.5 77t-20 55.5t-38.5 33.5t-61 11q-38 0 -62 -11t-38 -33.5t-19.5 -55.5t-5.5 -77t5.5 -76.5t19.5 -54.5
t38 -33t62 -11q37 0 61 11t38.5 33t20 54.5t5.5 76.5z" />
    <glyph glyph-name="OE" unicode="&#x152;" horiz-adv-x="842" 
d="M418 0q-19 -2 -39.5 -3.5t-43.5 -1.5q-86 0 -140.5 24.5t-85 70t-41.5 110t-11 144.5t11 145t41 110.5t83 70t138 24.5q23 0 45.5 -1.5t42.5 -3.5h383v-71h-302v-228h214v-71h-214v-248h302v-71h-383zM333 67q25 0 45 2t40 6v537q-34 10 -89 10q-61 0 -98 -18t-57 -53.5
t-26.5 -87.5t-6.5 -119t6.5 -118.5t27 -87t58.5 -53.5t100 -18z" />
    <glyph glyph-name="oe" unicode="&#x153;" horiz-adv-x="791" 
d="M742 220h-282q0 -48 9.5 -79.5t26.5 -50t40 -26t50 -7.5q39 0 71 5t66 13l4 -70q-33 -7 -68.5 -11t-73.5 -4q-57 0 -99 20.5t-66 73.5q-24 -53 -66 -73.5t-100 -20.5q-51 0 -89 13.5t-64 42.5t-39 75.5t-13 111.5q0 132 51.5 188t154.5 56q57 0 97.5 -20.5t65.5 -72.5
q23 51 62.5 72t95.5 21q90 0 128 -48.5t38 -148.5v-60zM665 290q0 63 -21 92.5t-70 29.5q-53 0 -80.5 -28.5t-31.5 -105.5h203v12zM379 233q0 44 -5.5 77t-20 55.5t-38.5 33.5t-61 11t-61 -11t-38 -33.5t-19.5 -55.5t-5.5 -77t5.5 -77t20 -54.5t38.5 -32.5t61 -11
q72 0 98 42.5t26 132.5z" />
    <glyph glyph-name="Racute" unicode="&#x154;" horiz-adv-x="537" 
d="M286 745h-57l85 145h89zM412 0l-132 291h-115v-291h-81v689h238q48 0 81 -13.5t53.5 -39t29.5 -61t9 -78.5q0 -88 -32.5 -137.5t-101.5 -62.5l138 -297h-87zM414 496q0 25 -3.5 47.5t-14 38.5t-28.5 25.5t-46 9.5h-157v-254h144q34 0 54.5 9.5t31.5 27t15 42t4 54.5z" />
    <glyph glyph-name="racute" unicode="&#x155;" horiz-adv-x="322" 
d="M206 539h-57l85 145h89zM253 476q14 0 26.5 -1t23.5 -4l-4 -74q-12 4 -26.5 5.5t-28.5 1.5t-28.5 -5t-27.5 -13t-24 -18t-18 -20v-348h-77v467h62l8 -53q24 30 50 46t64 16z" />
    <glyph glyph-name="Rcommaaccent" unicode="&#x156;" horiz-adv-x="537" 
d="M320 -61l-4 -55q-3 -30 -17 -61t-27 -52h-57q6 16 11 29.5t8.5 27t6 28t3.5 31.5l-1 52h77zM412 0l-132 291h-115v-291h-81v689h238q48 0 81 -13.5t53.5 -39t29.5 -61t9 -78.5q0 -88 -32.5 -137.5t-101.5 -62.5l138 -297h-87zM414 496q0 25 -3.5 47.5t-14 38.5
t-28.5 25.5t-46 9.5h-157v-254h144q34 0 54.5 9.5t31.5 27t15 42t4 54.5z" />
    <glyph glyph-name="rcommaaccent" unicode="&#x157;" horiz-adv-x="322" 
d="M142 -60l-4 -55q-3 -30 -17 -61t-27 -52h-57q6 16 11 29.5t8.5 27t6 28t3.5 31.5l-1 52h77zM253 476q14 0 26.5 -1t23.5 -4l-4 -74q-12 4 -26.5 5.5t-28.5 1.5t-28.5 -5t-27.5 -13t-24 -18t-18 -20v-348h-77v467h62l8 -53q24 30 50 46t64 16z" />
    <glyph glyph-name="Rcaron" unicode="&#x158;" horiz-adv-x="537" 
d="M303 744h-75l-89 140h59l67 -90l67 90h61zM412 0l-132 291h-115v-291h-81v689h238q48 0 81 -13.5t53.5 -39t29.5 -61t9 -78.5q0 -88 -32.5 -137.5t-101.5 -62.5l138 -297h-87zM414 496q0 25 -3.5 47.5t-14 38.5t-28.5 25.5t-46 9.5h-157v-254h144q34 0 54.5 9.5t31.5 27
t15 42t4 54.5z" />
    <glyph glyph-name="rcaron" unicode="&#x159;" horiz-adv-x="322" 
d="M224 539h-75l-89 140h59l67 -90l67 90h61zM253 476q14 0 26.5 -1t23.5 -4l-4 -74q-12 4 -26.5 5.5t-28.5 1.5t-28.5 -5t-27.5 -13t-24 -18t-18 -20v-348h-77v467h62l8 -53q24 30 50 46t64 16z" />
    <glyph glyph-name="Sacute" unicode="&#x15a;" horiz-adv-x="488" 
d="M264 745h-57l85 145h89zM361 172q0 23 -7.5 38t-21.5 29q-24 24 -53 43.5t-59.5 38t-60.5 39t-57 47.5q-24 24 -39.5 53t-15.5 74q0 76 51.5 120.5t147.5 44.5q43 0 80.5 -3.5t74.5 -10.5l-6 -74q-38 7 -74 11.5t-76 4.5q-57 0 -86 -27.5t-29 -66.5q0 -22 6 -37t23 -32
q24 -24 54 -44t62.5 -39.5t64 -40.5t58.5 -48q24 -24 35.5 -51.5t11.5 -69.5t-16.5 -75.5t-46.5 -57t-71 -36t-89 -12.5q-19 0 -41.5 1t-44.5 3.5t-42.5 5.5t-35.5 6l6 75q42 -8 80 -13t71 -5q70 0 108 28.5t38 80.5z" />
    <glyph glyph-name="sacute" unicode="&#x15b;" horiz-adv-x="395" 
d="M212 539h-57l85 145h89zM356 121q0 -33 -13.5 -57.5t-37.5 -40.5t-56.5 -24t-69.5 -8q-10 0 -25 1t-31.5 3t-33.5 4.5t-30 6.5l6 68q31 -8 63 -12.5t54 -4.5q54 0 76.5 16.5t22.5 43.5q0 13 -4 21t-12 16q-16 16 -39.5 29t-49.5 26t-51.5 28t-45.5 35q-16 16 -25.5 35
t-9.5 50t12.5 53.5t34.5 37.5t51.5 22.5t64.5 7.5q28 0 59.5 -3.5t60.5 -8.5l-6 -70q-29 7 -61 11t-58 4q-45 0 -63 -16t-18 -39q0 -12 3.5 -20t11.5 -16q13 -14 37 -27t50.5 -27t52.5 -29t43 -32q19 -19 28 -37t9 -47z" />
    <glyph glyph-name="Scircumflex" unicode="&#x15c;" horiz-adv-x="488" 
d="M314 744l-67 90l-67 -90h-60l89 140h75l90 -140h-60zM361 172q0 23 -7.5 38t-21.5 29q-24 24 -53 43.5t-59.5 38t-60.5 39t-57 47.5q-24 24 -39.5 53t-15.5 74q0 76 51.5 120.5t147.5 44.5q43 0 80.5 -3.5t74.5 -10.5l-6 -74q-38 7 -74 11.5t-76 4.5q-57 0 -86 -27.5
t-29 -66.5q0 -22 6 -37t23 -32q24 -24 54 -44t62.5 -39.5t64 -40.5t58.5 -48q24 -24 35.5 -51.5t11.5 -69.5t-16.5 -75.5t-46.5 -57t-71 -36t-89 -12.5q-19 0 -41.5 1t-44.5 3.5t-42.5 5.5t-35.5 6l6 75q42 -8 80 -13t71 -5q70 0 108 28.5t38 80.5z" />
    <glyph glyph-name="scircumflex" unicode="&#x15d;" horiz-adv-x="395" 
d="M257 539l-67 90l-67 -90h-60l89 140h75l90 -140h-60zM356 121q0 -33 -13.5 -57.5t-37.5 -40.5t-56.5 -24t-69.5 -8q-10 0 -25 1t-31.5 3t-33.5 4.5t-30 6.5l6 68q31 -8 63 -12.5t54 -4.5q54 0 76.5 16.5t22.5 43.5q0 13 -4 21t-12 16q-16 16 -39.5 29t-49.5 26t-51.5 28
t-45.5 35q-16 16 -25.5 35t-9.5 50t12.5 53.5t34.5 37.5t51.5 22.5t64.5 7.5q28 0 59.5 -3.5t60.5 -8.5l-6 -70q-29 7 -61 11t-58 4q-45 0 -63 -16t-18 -39q0 -12 3.5 -20t11.5 -16q13 -14 37 -27t50.5 -27t52.5 -29t43 -32q19 -19 28 -37t9 -47z" />
    <glyph glyph-name="Scedilla" unicode="&#x15e;" horiz-adv-x="488" 
d="M260 -118q0 18 -18.5 25.5t-50.5 9.5l-6 16l27 57q-38 1 -81.5 5.5t-72.5 10.5l6 75q42 -8 80 -13t71 -5q70 0 108 28.5t38 80.5q0 23 -7.5 38t-21.5 29q-24 24 -53 43.5t-59.5 38t-60.5 39t-57 47.5q-24 24 -39.5 53t-15.5 74q0 76 51.5 120.5t147.5 44.5
q43 0 80.5 -3.5t74.5 -10.5l-6 -74q-38 7 -74 11.5t-76 4.5q-57 0 -86 -27.5t-29 -66.5q0 -22 6 -37t23 -32q24 -24 54 -44t62.5 -39.5t64 -40.5t58.5 -48q24 -24 35.5 -51.5t11.5 -69.5q0 -38 -13.5 -68.5t-38 -53.5t-58.5 -37.5t-74 -19.5l-14 -35q12 -3 24 -8t22.5 -13.5
t17 -21.5t6.5 -32q0 -35 -23.5 -55.5t-68.5 -20.5q-11 0 -32.5 1.5t-36.5 4.5l2 48q13 -2 32.5 -4t32.5 -2q37 0 37 28z" />
    <glyph glyph-name="scedilla" unicode="&#x15f;" horiz-adv-x="395" 
d="M212 -118q0 18 -18.5 25.5t-50.5 9.5l-6 16l28 58q-23 2 -53 5.5t-53 9.5l6 68q31 -8 63 -12.5t54 -4.5q54 0 76.5 16.5t22.5 43.5q0 13 -4 21t-12 16q-16 16 -39.5 29t-49.5 26t-51.5 28t-45.5 35q-16 16 -25.5 35t-9.5 50t12.5 53.5t34.5 37.5t51.5 22.5t64.5 7.5
q28 0 59.5 -3.5t60.5 -8.5l-6 -70q-29 7 -61 11t-58 4q-45 0 -63 -16t-18 -39q0 -12 3.5 -20t11.5 -16q13 -14 37 -27t50.5 -27t52.5 -29t43 -32q19 -19 28 -37t9 -47q0 -30 -11 -52.5t-30 -38t-45 -25t-57 -12.5l-14 -36q12 -3 24 -8t22.5 -13.5t17 -21.5t6.5 -32
q0 -35 -23.5 -55.5t-68.5 -20.5q-11 0 -32.5 1.5t-36.5 4.5l2 48q13 -2 32.5 -4t32.5 -2q37 0 37 28z" />
    <glyph glyph-name="Scaron" unicode="&#x160;" horiz-adv-x="488" 
d="M284 744h-75l-89 140h59l67 -90l67 90h61zM361 172q0 23 -7.5 38t-21.5 29q-24 24 -53 43.5t-59.5 38t-60.5 39t-57 47.5q-24 24 -39.5 53t-15.5 74q0 76 51.5 120.5t147.5 44.5q43 0 80.5 -3.5t74.5 -10.5l-6 -74q-38 7 -74 11.5t-76 4.5q-57 0 -86 -27.5t-29 -66.5
q0 -22 6 -37t23 -32q24 -24 54 -44t62.5 -39.5t64 -40.5t58.5 -48q24 -24 35.5 -51.5t11.5 -69.5t-16.5 -75.5t-46.5 -57t-71 -36t-89 -12.5q-19 0 -41.5 1t-44.5 3.5t-42.5 5.5t-35.5 6l6 75q42 -8 80 -13t71 -5q70 0 108 28.5t38 80.5z" />
    <glyph glyph-name="scaron" unicode="&#x161;" horiz-adv-x="395" 
d="M227 539h-75l-89 140h59l67 -90l67 90h61zM356 121q0 -33 -13.5 -57.5t-37.5 -40.5t-56.5 -24t-69.5 -8q-10 0 -25 1t-31.5 3t-33.5 4.5t-30 6.5l6 68q31 -8 63 -12.5t54 -4.5q54 0 76.5 16.5t22.5 43.5q0 13 -4 21t-12 16q-16 16 -39.5 29t-49.5 26t-51.5 28t-45.5 35
q-16 16 -25.5 35t-9.5 50t12.5 53.5t34.5 37.5t51.5 22.5t64.5 7.5q28 0 59.5 -3.5t60.5 -8.5l-6 -70q-29 7 -61 11t-58 4q-45 0 -63 -16t-18 -39q0 -12 3.5 -20t11.5 -16q13 -14 37 -27t50.5 -27t52.5 -29t43 -32q19 -19 28 -37t9 -47z" />
    <glyph glyph-name="Tcommaaccent" unicode="&#x21a;" horiz-adv-x="490" 
d="M286 617v-617h-80v617h-181v72h440v-72h-179zM285 -61l-4 -55q-3 -30 -17 -61t-27 -52h-57q6 16 11 29.5t8.5 27t6 28t3.5 31.5l-1 52h77z" />
    <glyph glyph-name="tcedilla" unicode="&#x163;" horiz-adv-x="348" 
d="M236 -119q0 18 -22 23.5t-50 8.5l10 44q63 -3 91 -21t28 -54q0 -35 -23.5 -55.5t-68.5 -20.5q-11 0 -32.5 1.5t-36.5 4.5l2 48q13 -2 32.5 -4t32.5 -2q37 0 37 27zM179 400v-295q0 -25 6.5 -35.5t29.5 -10.5q18 0 47 3.5t51 9.5l3 -66q-23 -7 -53 -11t-53 -4
q-35 0 -56.5 8.5t-33 22.5t-15.5 33.5t-4 40.5v304h-72v62l73 5v138h77v-138h135v-67h-135z" />
    <glyph glyph-name="Tcaron" unicode="&#x164;" horiz-adv-x="490" 
d="M284 744h-75l-89 140h59l67 -90l67 90h61zM286 617v-617h-80v617h-181v72h440v-72h-179z" />
    <glyph glyph-name="tcaron" unicode="&#x165;" horiz-adv-x="348" 
d="M339 721l-4 -55q-3 -30 -17 -61t-27 -52h-57q6 16 11 29.5t8.5 27t6 28t3.5 31.5l-1 52h77zM179 400v-295q0 -25 6.5 -35.5t29.5 -10.5q18 0 47 3.5t51 9.5l3 -66q-23 -7 -53 -11t-53 -4q-35 0 -56.5 8.5t-33 22.5t-15.5 33.5t-4 40.5v304h-72v62l73 5v138h77v-138h135
v-67h-135z" />
    <glyph glyph-name="Tbar" unicode="&#x166;" horiz-adv-x="490" 
d="M286 617v-233h155v-72h-155v-312h-80v312h-161v72h161v233h-181v72h440v-72h-179z" />
    <glyph glyph-name="tbar" unicode="&#x167;" horiz-adv-x="348" 
d="M179 400v-91h128v-65h-128v-139q0 -25 6.5 -35.5t29.5 -10.5q18 0 47 3.5t51 9.5l3 -66q-23 -7 -53 -11t-53 -4q-35 0 -56.5 8.5t-33 22.5t-15.5 33.5t-4 40.5v148h-57v65h57v91h-72v62l73 5v138h77v-138h135v-67h-135z" />
    <glyph glyph-name="Utilde" unicode="&#x168;" horiz-adv-x="597" 
d="M528 189q0 -54 -19.5 -91.5t-51.5 -61.5t-73.5 -35t-85.5 -11q-43 0 -84 11t-73.5 34.5t-52 61.5t-19.5 92v500h81v-499q0 -63 41.5 -95.5t107.5 -32.5q31 0 58.5 8t47.5 24t31.5 40t11.5 56v499h80v-500zM367 825q17 0 34 14t34 39l26 -52q-17 -23 -41 -40.5t-50 -17.5
q-18 0 -36.5 7.5t-36 16t-33 16t-26.5 7.5q-20 0 -36.5 -15.5t-32.5 -38.5l-26 53q17 22 40 39.5t51 17.5q17 0 35 -7t36 -16t34 -16t28 -7z" />
    <glyph glyph-name="utilde" unicode="&#x169;" 
d="M64 467h77v-340q0 -35 20.5 -52t53.5 -17t68.5 9.5t69.5 29.5v370h77v-467h-62l-9 33q-38 -21 -76.5 -31.5t-81.5 -10.5q-29 0 -54 7t-43.5 23t-29 40.5t-10.5 60.5v345zM310 620q17 0 34 14t34 39l26 -52q-17 -23 -41 -40.5t-50 -17.5q-18 0 -36.5 7.5t-36 16t-33 16
t-26.5 7.5q-20 0 -36.5 -15.5t-32.5 -38.5l-26 53q17 22 40 39.5t51 17.5q17 0 35 -7t36 -16t34 -16t28 -7z" />
    <glyph glyph-name="Umacron" unicode="&#x16a;" horiz-adv-x="597" 
d="M528 189q0 -54 -19.5 -91.5t-51.5 -61.5t-73.5 -35t-85.5 -11q-43 0 -84 11t-73.5 34.5t-52 61.5t-19.5 92v500h81v-499q0 -63 41.5 -95.5t107.5 -32.5q31 0 58.5 8t47.5 24t31.5 40t11.5 56v499h80v-500zM443 792h-280v58h280v-58z" />
    <glyph glyph-name="umacron" unicode="&#x16b;" 
d="M64 467h77v-340q0 -35 20.5 -52t53.5 -17t68.5 9.5t69.5 29.5v370h77v-467h-62l-9 33q-38 -21 -76.5 -31.5t-81.5 -10.5q-29 0 -54 7t-43.5 23t-29 40.5t-10.5 60.5v345zM386 587h-280v58h280v-58z" />
    <glyph glyph-name="Ubreve" unicode="&#x16c;" horiz-adv-x="597" 
d="M528 189q0 -54 -19.5 -91.5t-51.5 -61.5t-73.5 -35t-85.5 -11q-43 0 -84 11t-73.5 34.5t-52 61.5t-19.5 92v500h81v-499q0 -63 41.5 -95.5t107.5 -32.5q31 0 58.5 8t47.5 24t31.5 40t11.5 56v499h80v-500zM447 874q-15 -65 -49.5 -97.5t-94.5 -32.5q-62 0 -96 32.5
t-49 97.5h63q8 -35 27 -54t55 -19t54 19t26 54h64z" />
    <glyph glyph-name="ubreve" unicode="&#x16d;" 
d="M64 467h77v-340q0 -35 20.5 -52t53.5 -17t68.5 9.5t69.5 29.5v370h77v-467h-62l-9 33q-38 -21 -76.5 -31.5t-81.5 -10.5q-29 0 -54 7t-43.5 23t-29 40.5t-10.5 60.5v345zM390 669q-15 -65 -49.5 -97.5t-94.5 -32.5q-62 0 -96 32.5t-49 97.5h63q8 -35 27 -54t55 -19t54 19
t26 54h64z" />
    <glyph glyph-name="Uring" unicode="&#x16e;" horiz-adv-x="597" 
d="M528 189q0 -54 -19.5 -91.5t-51.5 -61.5t-73.5 -35t-85.5 -11q-43 0 -84 11t-73.5 34.5t-52 61.5t-19.5 92v500h81v-499q0 -63 41.5 -95.5t107.5 -32.5q31 0 58.5 8t47.5 24t31.5 40t11.5 56v499h80v-500zM390 814q0 -36 -25.5 -61t-61.5 -25t-61.5 25t-25.5 61
q0 18 7 33.5t18.5 27t27.5 18.5t34 7t34 -7t27.5 -18.5t18.5 -27t7 -33.5zM342 814q0 16 -11.5 27.5t-27.5 11.5t-27 -11.5t-11 -27.5q0 -17 11 -28.5t27 -11.5t27.5 11.5t11.5 28.5z" />
    <glyph glyph-name="uring" unicode="&#x16f;" 
d="M333 610q0 -36 -25.5 -61t-61.5 -25t-61.5 25t-25.5 61q0 18 7 33.5t18.5 27t27.5 18.5t34 7t34 -7t27.5 -18.5t18.5 -27t7 -33.5zM285 610q0 16 -11.5 27.5t-27.5 11.5t-27 -11.5t-11 -27.5q0 -17 11 -28.5t27 -11.5t27.5 11.5t11.5 28.5zM64 467h77v-340
q0 -35 20.5 -52t53.5 -17t68.5 9.5t69.5 29.5v370h77v-467h-62l-9 33q-38 -21 -76.5 -31.5t-81.5 -10.5q-29 0 -54 7t-43.5 23t-29 40.5t-10.5 60.5v345z" />
    <glyph glyph-name="Uhungarumlaut" unicode="&#x170;" horiz-adv-x="597" 
d="M528 189q0 -54 -19.5 -91.5t-51.5 -61.5t-73.5 -35t-85.5 -11q-43 0 -84 11t-73.5 34.5t-52 61.5t-19.5 92v500h81v-499q0 -63 41.5 -95.5t107.5 -32.5q31 0 58.5 8t47.5 24t31.5 40t11.5 56v499h80v-500zM404 745h-57l85 145h88zM250 745h-57l85 145h89z" />
    <glyph glyph-name="uhungarumlaut" unicode="&#x171;" 
d="M64 467h77v-340q0 -35 20.5 -52t53.5 -17t68.5 9.5t69.5 29.5v370h77v-467h-62l-9 33q-38 -21 -76.5 -31.5t-81.5 -10.5q-29 0 -54 7t-43.5 23t-29 40.5t-10.5 60.5v345zM344 539h-57l85 145h88zM190 539h-57l85 145h89z" />
    <glyph glyph-name="Uogonek" unicode="&#x172;" horiz-adv-x="597" 
d="M528 189q0 -47 -15 -81.5t-40.5 -58.5t-59 -37.5t-70.5 -18.5q-31 -25 -49.5 -51t-18.5 -52q0 -16 7 -24.5t25 -8.5q33 0 62 15l3 -50q-14 -8 -32.5 -12.5t-40.5 -4.5q-42 0 -64.5 19t-22.5 57q0 28 18 57.5t42 52.5q-40 3 -76.5 15.5t-64.5 36.5t-45 60t-17 86v500h81
v-499q0 -63 41.5 -95.5t107.5 -32.5q31 0 58.5 8t47.5 24t31.5 40t11.5 56v499h80v-500z" />
    <glyph glyph-name="uogonek" unicode="&#x173;" 
d="M448 -177q-14 -8 -32.5 -12.5t-40.5 -4.5q-42 0 -64.5 19t-22.5 57q0 16 6.5 34t17.5 34.5t25 31t29 25.5l-7 26q-38 -21 -76.5 -31.5t-81.5 -10.5q-29 0 -54 7t-43.5 23t-29 40.5t-10.5 60.5v345h77v-340q0 -35 20.5 -52t53.5 -17t68.5 9.5t69.5 29.5v370h77v-467h-3
q-34 -26 -55 -54t-21 -55q0 -16 7 -24.5t25 -8.5q33 0 62 15z" />
    <glyph glyph-name="Wcircumflex" unicode="&#x174;" horiz-adv-x="853" 
d="M500 744l-67 90l-67 -90h-60l89 140h75l90 -140h-60zM827 689l-157 -689h-112l-108 494q-8 36 -14 71.5t-9 61.5q-4 -26 -10.5 -62.5t-14.5 -71.5l-111 -493h-112l-153 689h85l100 -468q8 -38 14.5 -79.5t9.5 -70.5q5 29 14.5 70.5t17.5 79.5l105 468h111l103 -468
q8 -38 16 -80t12 -71q1 15 4.5 34t7.5 39t8 39.5t8 36.5l101 470h84z" />
    <glyph glyph-name="wcircumflex" unicode="&#x175;" horiz-adv-x="672" 
d="M396 539l-67 90l-67 -90h-60l89 140h75l90 -140h-60zM382 467l78 -324q5 -18 8.5 -39.5t8.5 -46.5q5 25 8.5 46t8.5 42l75 322h79l-124 -467h-95l-80 337q-4 17 -7.5 36t-5.5 39q-5 -35 -8 -52t-5 -25l-81 -335h-94l-124 467h77l77 -319q5 -22 9 -44.5t9 -46.5
q6 43 18 90l77 320h91z" />
    <glyph glyph-name="Ycircumflex" unicode="&#x176;" horiz-adv-x="534" 
d="M308 284v-284h-82v285l-210 404h89l163 -321l160 321h90zM337 744l-67 90l-67 -90h-60l89 140h75l90 -140h-60z" />
    <glyph glyph-name="ycircumflex" unicode="&#x177;" horiz-adv-x="440" 
d="M22 467h85l118 -385l116 385h77l-174 -539q-15 -47 -30.5 -78.5t-35 -50.5t-44.5 -27t-61 -8q-17 0 -33.5 2t-27.5 5l6 68q22 -6 52 -6q21 0 36.5 7.5t28.5 25.5t24.5 49t25.5 78zM286 539l-67 90l-67 -90h-60l89 140h75l90 -140h-60z" />
    <glyph glyph-name="Ydieresis" unicode="&#x178;" horiz-adv-x="534" 
d="M308 284v-284h-82v285l-210 404h89l163 -321l160 321h90zM316 777v81h80v-81h-80zM141 777v81h80v-81h-80z" />
    <glyph glyph-name="Zacute" unicode="&#x179;" horiz-adv-x="508" 
d="M277 744h-57l85 145h89zM41 0v55l326 561h-316v73h416v-54l-325 -563h325v-72h-426z" />
    <glyph glyph-name="zacute" unicode="&#x17a;" horiz-adv-x="410" 
d="M243 539h-57l85 145h89zM366 0h-322v56l223 344h-215v67h310v-56l-222 -343h226v-68z" />
    <glyph glyph-name="Zdotaccent" unicode="&#x17b;" horiz-adv-x="508" 
d="M41 0v55l326 561h-316v73h416v-54l-325 -563h325v-72h-426zM224 775v86h76v-86h-76z" />
    <glyph glyph-name="zdotaccent" unicode="&#x17c;" horiz-adv-x="410" 
d="M366 0h-322v56l223 344h-215v67h310v-56l-222 -343h226v-68zM184 566v86h76v-86h-76z" />
    <glyph glyph-name="Zcaron" unicode="&#x17d;" horiz-adv-x="508" 
d="M310 744h-75l-89 140h59l67 -90l67 90h61zM41 0v55l326 561h-316v73h416v-54l-325 -563h325v-72h-426z" />
    <glyph glyph-name="zcaron" unicode="&#x17e;" horiz-adv-x="410" 
d="M257 539h-75l-89 140h59l67 -90l67 90h61zM366 0h-322v56l223 344h-215v67h310v-56l-222 -343h226v-68z" />
    <glyph glyph-name="Schwa" unicode="&#x18f;" horiz-adv-x="603" 
d="M75 674q15 5 36 9.5t46 8t51 5.5t50 2q74 0 128 -17t89 -57t52 -106.5t17 -164.5t-13 -167t-44 -112.5t-81 -63.5t-125 -20q-65 0 -109.5 20.5t-71.5 58t-39 91t-12 120.5q0 39 3 78h405q-1 84 -13.5 135.5t-37 80t-61.5 38.5t-87 10q-51 0 -98 -8t-77 -18zM138 288
q0 -47 5 -87.5t20 -70.5t43 -47t75 -17q44 0 75 10.5t51.5 36t31.5 68t15 107.5h-316z" />
    <glyph glyph-name="florin" unicode="&#x192;" horiz-adv-x="544" 
d="M426 319h-167l-54 -458h-80l55 458h-76v72h85l22 170q8 66 45 102t103 36q37 0 67 -5.5t59 -14.5l-15 -70q-27 8 -51 12.5t-56 4.5q-22 0 -36 -7t-22.5 -18.5t-12 -27t-5.5 -31.5l-20 -151h159v-72z" />
    <glyph glyph-name="Khook" unicode="&#x198;" horiz-adv-x="544" 
d="M166 353q20 6 42.5 29t42.5 60q12 22 23.5 46.5t24.5 49.5t27.5 48t32.5 41q33 34 75 48.5t94 12.5v-75q-38 1 -67.5 -9.5t-54.5 -35.5q-13 -13 -24 -32.5t-22.5 -42t-23.5 -48t-27 -50.5l222 -395h-91l-183 325q-18 -18 -41.5 -33t-49.5 -25v-267h-82v689h82v-336z" />
    <glyph glyph-name="khook" unicode="&#x199;" horiz-adv-x="439" 
d="M346 0l-140 229l-60 -60v-169h-77v573q0 74 29 115.5t104 41.5q35 0 63 -4.5t57 -9.5l-6 -68q-26 6 -54 10t-54 4q-21 0 -33 -7t-18.5 -18.5t-8.5 -26.5t-2 -31v-335q10 17 23.5 35.5t25.5 35.5l118 152h90l-147 -178l177 -289h-87z" />
    <glyph glyph-name="Yogh" unicode="&#x1b7;" horiz-adv-x="521" 
d="M212 356v-2q126 3 195 -61t69 -179q0 -72 -22.5 -122t-62.5 -81.5t-95 -46.5t-119 -15q-37 0 -76 4t-75 9l7 77q31 -7 65.5 -11t75.5 -4q49 0 89.5 8.5t69.5 30.5t45.5 58.5t16.5 92.5q0 89 -51 129.5t-145 40.5q-23 0 -42.5 -0.5t-41.5 -1.5l-7 65l239 267v2
q-16 -1 -37.5 -1.5t-38.5 -0.5h-231v75h414v-65z" />
    <glyph glyph-name="Acaron" unicode="&#x1cd;" horiz-adv-x="549" 
d="M446 0l-43 152h-256l-44 -152h-84l203 689h105l203 -689h-84zM307 499q-4 14 -8 31t-8.5 35t-8 35t-6.5 31q-6 -28 -15.5 -65.5t-17.5 -66.5l-77 -276h217zM315 744h-75l-89 140h59l67 -90l67 90h61z" />
    <glyph glyph-name="acaron" unicode="&#x1ce;" horiz-adv-x="453" 
d="M327 0l-11 34q-26 -16 -62 -30t-79 -14q-63 0 -100 33.5t-37 105.5q0 53 23 82t60 43.5t83 17.5t91 5h16v66q0 38 -21 54t-63 16q-16 0 -35.5 -2t-39.5 -5.5t-38.5 -8t-32.5 -9.5l-5 70q31 7 70.5 13t87.5 6q72 0 113 -28t41 -94v-355h-61zM311 220h-14q-96 0 -138 -21
t-42 -71q0 -33 15.5 -52.5t50.5 -19.5q36 0 69 10t59 24v130zM267 539h-75l-89 140h59l67 -90l67 90h61z" />
    <glyph glyph-name="Icaron" unicode="&#x1cf;" horiz-adv-x="248" 
d="M160 745h-75l-89 140h59l67 -90l67 90h61zM83 0v689h82v-689h-82z" />
    <glyph glyph-name="icaron" unicode="&#x1d0;" horiz-adv-x="222" 
d="M148 539h-75l-89 140h59l67 -90l67 90h61zM73 0v467h77v-467h-77z" />
    <glyph glyph-name="Ocaron" unicode="&#x1d1;" horiz-adv-x="634" 
d="M355 744h-75l-89 140h59l67 -90l67 90h61zM577 343q0 -80 -11 -145.5t-40 -111.5t-79.5 -71t-129.5 -25q-78 0 -128.5 25t-80 71.5t-40.5 111.5t-11 146q0 80 11 145.5t40.5 112t80 72t128.5 25.5q79 0 129.5 -25.5t79.5 -72t40 -112t11 -146.5zM493 344q0 67 -7 120
t-26.5 89t-54 55t-88.5 19t-88.5 -19t-54 -55t-26.5 -89t-7 -120q0 -68 7 -120t26.5 -88t54 -54.5t88.5 -18.5t88.5 18.5t54 54.5t26.5 88t7 120z" />
    <glyph glyph-name="ocaron" unicode="&#x1d2;" horiz-adv-x="510" 
d="M290 539h-75l-89 140h59l67 -90l67 90h61zM461 233q0 -131 -52 -187t-154 -56t-154 56t-52 187q0 132 52 188t154 56t154 -56t52 -188zM380 233q0 44 -5.5 77t-20 55.5t-38.5 33.5t-61 11q-38 0 -62 -11t-38 -33.5t-19.5 -55.5t-5.5 -77t5.5 -76.5t19.5 -54.5t38 -33
t62 -11q37 0 61 11t38.5 33t20 54.5t5.5 76.5z" />
    <glyph glyph-name="Ucaron" unicode="&#x1d3;" horiz-adv-x="597" 
d="M341 744h-75l-89 140h59l67 -90l67 90h61zM528 189q0 -54 -19.5 -91.5t-51.5 -61.5t-73.5 -35t-85.5 -11q-43 0 -84 11t-73.5 34.5t-52 61.5t-19.5 92v500h81v-499q0 -63 41.5 -95.5t107.5 -32.5q31 0 58.5 8t47.5 24t31.5 40t11.5 56v499h80v-500z" />
    <glyph glyph-name="ucaron" unicode="&#x1d4;" 
d="M284 539h-75l-89 140h59l67 -90l67 90h61zM64 467h77v-340q0 -35 20.5 -52t53.5 -17t68.5 9.5t69.5 29.5v370h77v-467h-62l-9 33q-38 -21 -76.5 -31.5t-81.5 -10.5q-29 0 -54 7t-43.5 23t-29 40.5t-10.5 60.5v345z" />
    <glyph glyph-name="Adieresismacron" unicode="&#x1de;" horiz-adv-x="549" 
d="M446 0l-43 152h-256l-44 -152h-84l203 689h105l203 -689h-84zM307 499q-4 14 -8 31t-8.5 35t-8 35t-6.5 31q-6 -28 -15.5 -65.5t-17.5 -66.5l-77 -276h217zM417 855h-280v58h280v-58zM324 723v81h80v-81h-80zM149 723v81h80v-81h-80z" />
    <glyph glyph-name="adieresismacron" unicode="&#x1df;" horiz-adv-x="453" 
d="M327 0l-11 34q-26 -16 -62 -30t-79 -14q-63 0 -100 33.5t-37 105.5q0 53 23 82t60 43.5t83 17.5t91 5h16v66q0 38 -21 54t-63 16q-16 0 -35.5 -2t-39.5 -5.5t-38.5 -8t-32.5 -9.5l-5 70q31 7 70.5 13t87.5 6q72 0 113 -28t41 -94v-355h-61zM311 220h-14q-96 0 -138 -21
t-42 -71q0 -33 15.5 -52.5t50.5 -19.5q36 0 69 10t59 24v130zM372 650h-280v58h280v-58zM279 518v81h80v-81h-80zM104 518v81h80v-81h-80z" />
    <glyph glyph-name="AEmacron" unicode="&#x1e2;" horiz-adv-x="824" 
d="M405 0v152h-237l-80 -152h-89l367 689h417v-74h-295v-224h208v-73h-208v-245h295v-73h-378zM405 615q-10 -22 -20 -44.5t-24 -50.5l-157 -297h201v392zM586 792h-280v58h280v-58z" />
    <glyph glyph-name="aemacron" unicode="&#x1e3;" horiz-adv-x="720" 
d="M671 219h-283q0 -48 9.5 -79.5t26.5 -50t40.5 -25.5t50.5 -7q39 0 71 4.5t66 12.5l4 -69q-33 -6 -68.5 -10t-73.5 -4q-55 0 -95 15t-66 50q-47 -29 -88.5 -47.5t-91.5 -18.5q-63 0 -100 33.5t-37 105.5q0 52 23.5 81.5t60 44t82.5 18t91 4.5h16v66q0 38 -21 54t-63 16
q-16 0 -35.5 -2t-39.5 -5.5t-38.5 -8t-32.5 -9.5l-5 70q31 7 71 13t87 6q46 0 80 -11.5t53 -37.5q47 48 140 48q90 0 128 -48t38 -148v-61zM594 278q0 74 -21 104t-70 30q-55 0 -81.5 -29t-30.5 -105h203zM181 56q35 0 73.5 12.5t73.5 33.5q-18 47 -19 118h-14
q-97 0 -138.5 -20.5t-41.5 -71.5q0 -34 15.5 -53t50.5 -19zM512 587h-280v58h280v-58z" />
    <glyph glyph-name="Gstroke" unicode="&#x1e4;" horiz-adv-x="638" 
d="M540 211h89v-72h-89v-117q-41 -12 -95.5 -21.5t-102.5 -9.5q-82 0 -136.5 25.5t-87 72t-46 112t-13.5 145.5q0 81 14 146t47 111t87.5 70.5t135.5 24.5q45 0 83 -4.5t82 -14.5l-9 -75q-40 11 -80 16.5t-78 5.5q-58 0 -96.5 -18.5t-61 -54.5t-31.5 -88t-9 -119
q0 -66 8.5 -119t30.5 -89.5t60.5 -56t99.5 -19.5q13 0 29 1t31.5 3.5t30.5 5.5t26 6v61h-142v72h142v82h-121v71h202v-153z" />
    <glyph glyph-name="gstroke" unicode="&#x1e5;" horiz-adv-x="511" 
d="M353 29q-23 -15 -55 -27t-75 -12q-89 0 -131.5 55.5t-42.5 181.5q0 57 9.5 103t30.5 78.5t53.5 50.5t79.5 18q39 0 72.5 -10.5t65.5 -29.5l8 30h61v-520h79v-65h-88q-31 -118 -175 -118q-48 0 -86 4t-74 11l5 70q40 -8 75.5 -13t73.5 -5q72 0 99 53h-151v61h166v84z
M128 227q0 -51 7 -84t20 -52t32.5 -26.5t45.5 -7.5q35 0 67 13t52 27v274q-27 17 -57 28t-66 11q-51 0 -76 -43.5t-25 -139.5z" />
    <glyph glyph-name="Gcaron" unicode="&#x1e6;" horiz-adv-x="590" 
d="M540 22q-41 -12 -95.5 -21.5t-102.5 -9.5q-82 0 -136.5 25.5t-87 72t-46 112t-13.5 145.5q0 81 14 146t47 111t87.5 70.5t135.5 24.5q45 0 83 -4.5t82 -14.5l-9 -75q-40 11 -80 16.5t-78 5.5q-58 0 -96.5 -18.5t-61 -54.5t-31.5 -88t-9 -119q0 -66 8.5 -119t30.5 -89.5
t60.5 -56t99.5 -19.5q13 0 29 1t31.5 3.5t30.5 5.5t26 6v215h-121v71h202v-342zM360 744h-75l-89 140h59l67 -90l67 90h61z" />
    <glyph glyph-name="gcaron" unicode="&#x1e7;" horiz-adv-x="498" 
d="M294 539h-75l-89 140h59l67 -90l67 90h61zM353 29q-23 -15 -55 -27t-75 -12q-89 0 -131.5 55.5t-42.5 181.5q0 57 9.5 103t30.5 78.5t53.5 50.5t79.5 18q39 0 72.5 -10.5t65.5 -29.5l8 30h61v-515q0 -93 -45.5 -140.5t-138.5 -47.5q-48 0 -86 4t-74 11l5 70
q40 -8 75.5 -13t73.5 -5q54 0 84 30t30 94v74zM128 227q0 -51 7 -84t20 -52t32.5 -26.5t45.5 -7.5q35 0 67 13t52 27v274q-27 17 -57 28t-66 11q-51 0 -76 -43.5t-25 -139.5z" />
    <glyph glyph-name="Kcaron" unicode="&#x1e8;" horiz-adv-x="544" 
d="M322 744h-75l-89 140h59l67 -90l67 90h61zM438 0l-186 335l-86 -95v-240h-82v689h82v-354l254 354h94l-211 -284l226 -405h-91z" />
    <glyph glyph-name="kcaron" unicode="&#x1e9;" horiz-adv-x="439" 
d="M145 774h-75l-89 140h59l67 -90l67 90h61zM346 0l-140 229l-60 -60v-169h-77v720h77v-476q10 17 23.5 35.5t25.5 35.5l118 152h90l-147 -178l177 -289h-87z" />
    <glyph glyph-name="Oogonek" unicode="&#x1ea;" horiz-adv-x="634" 
d="M577 343q0 -75 -9.5 -136.5t-34 -106.5t-66.5 -72.5t-107 -34.5q-31 -25 -49.5 -51t-18.5 -52q0 -16 7 -24.5t25 -8.5q33 0 62 15l3 -50q-14 -8 -32.5 -12.5t-40.5 -4.5q-42 0 -64.5 19t-22.5 57q0 28 18 57.5t42 52.5q-70 4 -115 31t-71 73t-36 109t-10 140
q0 80 11 145.5t40.5 112t80 72t128.5 25.5q79 0 129.5 -25.5t79.5 -72t40 -112t11 -146.5zM493 344q0 67 -7 120t-26.5 89t-54 55t-88.5 19t-88.5 -19t-54 -55t-26.5 -89t-7 -120q0 -68 7 -120t26.5 -88t54 -54.5t88.5 -18.5t88.5 18.5t54 54.5t26.5 88t7 120z" />
    <glyph glyph-name="oogonek" unicode="&#x1eb;" horiz-adv-x="510" 
d="M461 233q0 -116 -40.5 -172.5t-119.5 -67.5q-31 -25 -50 -51t-19 -52q0 -16 7 -24.5t25 -8.5q33 0 62 15l3 -50q-14 -8 -32.5 -12.5t-40.5 -4.5q-42 0 -64.5 19t-22.5 57q0 28 18 57.5t42 52.5q-89 7 -134.5 63t-45.5 179q0 132 52 188t154 56t154 -56t52 -188zM380 233
q0 44 -5.5 77t-20 55.5t-38.5 33.5t-61 11q-38 0 -62 -11t-38 -33.5t-19.5 -55.5t-5.5 -77t5.5 -76.5t19.5 -54.5t38 -33t62 -11q37 0 61 11t38.5 33t20 54.5t5.5 76.5z" />
    <glyph glyph-name="Oogonekmacron" unicode="&#x1ec;" horiz-adv-x="634" 
d="M577 343q0 -74 -9.5 -135.5t-33.5 -107t-66 -73t-107 -34.5q-31 -25 -49.5 -51t-18.5 -52q0 -16 7 -24.5t25 -8.5q33 0 62 15l3 -50q-14 -8 -32.5 -12.5t-40.5 -4.5q-42 0 -64.5 19t-22.5 57q0 28 18 57.5t42 52.5q-70 4 -115 31t-71.5 72.5t-36.5 109t-10 140.5
q0 80 11 145.5t40.5 112t80 72t128.5 25.5q79 0 129.5 -25.5t79.5 -72t40 -112t11 -146.5zM493 344q0 67 -7 120t-26.5 89t-54 55t-88.5 19t-88.5 -19t-54 -55t-26.5 -89t-7 -120q0 -68 7 -120t26.5 -88t54 -54.5t88.5 -18.5t88.5 18.5t54 54.5t26.5 88t7 120zM460 792h-280
v58h280v-58z" />
    <glyph glyph-name="oogonekmacron" unicode="&#x1ed;" horiz-adv-x="510" 
d="M461 233q0 -116 -40.5 -172.5t-119.5 -67.5q-31 -25 -50 -51t-19 -52q0 -16 7 -24.5t25 -8.5q33 0 62 15l3 -50q-14 -8 -32.5 -12.5t-40.5 -4.5q-42 0 -64.5 19t-22.5 57q0 28 18 57.5t42 52.5q-89 7 -134.5 63t-45.5 179q0 132 52 188t154 56t154 -56t52 -188zM380 233
q0 44 -5.5 77t-20 55.5t-38.5 33.5t-61 11q-38 0 -62 -11t-38 -33.5t-19.5 -55.5t-5.5 -77t5.5 -76.5t19.5 -54.5t38 -33t62 -11q37 0 61 11t38.5 33t20 54.5t5.5 76.5zM392 587h-280v58h280v-58z" />
    <glyph glyph-name="jcaron" unicode="&#x1f0;" horiz-adv-x="223" 
d="M36 -236q-17 0 -38 2t-38 5l4 71q15 -3 32 -5t31 -2q22 0 33.5 14.5t11.5 57.5v560h77v-553q0 -43 -6.5 -72t-20 -46t-35 -24.5t-51.5 -7.5zM148 539h-75l-89 140h59l67 -90l67 90h61z" />
    <glyph glyph-name="Gacute" unicode="&#x1f4;" horiz-adv-x="590" 
d="M540 22q-41 -12 -95.5 -21.5t-102.5 -9.5q-82 0 -136.5 25.5t-87 72t-46 112t-13.5 145.5q0 81 14 146t47 111t87.5 70.5t135.5 24.5q45 0 83 -4.5t82 -14.5l-9 -75q-40 11 -80 16.5t-78 5.5q-58 0 -96.5 -18.5t-61 -54.5t-31.5 -88t-9 -119q0 -66 8.5 -119t30.5 -89.5
t60.5 -56t99.5 -19.5q13 0 29 1t31.5 3.5t30.5 5.5t26 6v215h-121v71h202v-342zM339 744h-57l85 145h89z" />
    <glyph glyph-name="gacute" unicode="&#x1f5;" horiz-adv-x="498" 
d="M286 539h-57l85 145h89zM353 29q-23 -15 -55 -27t-75 -12q-89 0 -131.5 55.5t-42.5 181.5q0 57 9.5 103t30.5 78.5t53.5 50.5t79.5 18q39 0 72.5 -10.5t65.5 -29.5l8 30h61v-515q0 -93 -45.5 -140.5t-138.5 -47.5q-48 0 -86 4t-74 11l5 70q40 -8 75.5 -13t73.5 -5
q54 0 84 30t30 94v74zM128 227q0 -51 7 -84t20 -52t32.5 -26.5t45.5 -7.5q35 0 67 13t52 27v274q-27 17 -57 28t-66 11q-51 0 -76 -43.5t-25 -139.5z" />
    <glyph glyph-name="Aringacute" unicode="&#x1fa;" horiz-adv-x="549" 
d="M361 758q0 -22 -9.5 -40t-25.5 -29l204 -689h-84l-43 152h-256l-44 -152h-84l203 689q-35 24 -35 69q0 18 7 33.5t18.5 27t27.5 18.5t34 7t34 -7t27.5 -18.5t18.5 -27t7 -33.5zM307 499q-4 14 -8 31t-8.5 35t-8 35t-6.5 31q-6 -28 -15.5 -65.5t-17.5 -66.5l-77 -276h217z
M307 869h-55l47 137h89zM313 758q0 16 -11.5 27.5t-27.5 11.5t-27 -11.5t-11 -27.5q0 -17 11 -28.5t27 -11.5t27.5 11.5t11.5 28.5z" />
    <glyph glyph-name="aringacute" unicode="&#x1fb;" horiz-adv-x="453" 
d="M327 0l-11 34q-26 -16 -62 -30t-79 -14q-63 0 -100 33.5t-37 105.5q0 53 23 82t60 43.5t83 17.5t91 5h16v66q0 38 -21 54t-63 16q-16 0 -35.5 -2t-39.5 -5.5t-38.5 -8t-32.5 -9.5l-5 70q31 7 70.5 13t87.5 6q72 0 113 -28t41 -94v-355h-61zM311 220h-14q-96 0 -138 -21
t-42 -71q0 -33 15.5 -52.5t50.5 -19.5q36 0 69 10t59 24v130zM263 706h-55l47 137h89zM317 595q0 -36 -25.5 -61t-61.5 -25t-61.5 25t-25.5 61q0 18 7 33.5t18.5 27t27.5 18.5t34 7t34 -7t27.5 -18.5t18.5 -27t7 -33.5zM269 595q0 16 -11.5 27.5t-27.5 11.5t-27 -11.5
t-11 -27.5q0 -17 11 -28.5t27 -11.5t27.5 11.5t11.5 28.5z" />
    <glyph glyph-name="AEacute" unicode="&#x1fc;" horiz-adv-x="824" 
d="M405 0v152h-237l-80 -152h-89l367 689h417v-74h-295v-224h208v-73h-208v-245h295v-73h-378zM405 615q-10 -22 -20 -44.5t-24 -50.5l-157 -297h201v392zM518 744h-57l85 145h89z" />
    <glyph glyph-name="aeacute" unicode="&#x1fd;" horiz-adv-x="720" 
d="M392 539h-57l85 145h89zM671 219h-283q0 -48 9.5 -79.5t26.5 -50t40.5 -25.5t50.5 -7q39 0 71 4.5t66 12.5l4 -69q-33 -6 -68.5 -10t-73.5 -4q-55 0 -95 15t-66 50q-47 -29 -88.5 -47.5t-91.5 -18.5q-63 0 -100 33.5t-37 105.5q0 52 23.5 81.5t60 44t82.5 18t91 4.5h16
v66q0 38 -21 54t-63 16q-16 0 -35.5 -2t-39.5 -5.5t-38.5 -8t-32.5 -9.5l-5 70q31 7 71 13t87 6q46 0 80 -11.5t53 -37.5q47 48 140 48q90 0 128 -48t38 -148v-61zM594 278q0 74 -21 104t-70 30q-55 0 -81.5 -29t-30.5 -105h203zM181 56q35 0 73.5 12.5t73.5 33.5
q-18 47 -19 118h-14q-97 0 -138.5 -20.5t-41.5 -71.5q0 -34 15.5 -53t50.5 -19z" />
    <glyph glyph-name="Oslashacute" unicode="&#x1fe;" horiz-adv-x="634" 
d="M58 -46l64 112q-38 47 -51.5 117t-13.5 161q0 80 11 145.5t40.5 112t80 72t128.5 25.5q47 0 83.5 -9.5t64.5 -26.5l34 58h78l-61 -106q35 -47 48 -115.5t13 -156.5q0 -80 -11 -145.5t-40 -111.5t-79.5 -71t-129.5 -25q-87 0 -142 32l-39 -68h-78zM141 344q0 -63 5.5 -112
t22.5 -85l257 447q-39 33 -109 33q-54 0 -88.5 -19t-54 -55t-26.5 -89t-7 -120zM493 344q0 59 -5 106.5t-19 82.5l-255 -443q37 -27 103 -27q54 0 88.5 18.5t54 54.5t26.5 88t7 120zM355 744h-57l85 145h89z" />
    <glyph glyph-name="oslashacute" unicode="&#x1ff;" horiz-adv-x="510" 
d="M401 429q29 -29 44.5 -77t15.5 -119q0 -131 -52 -187t-154 -56q-58 0 -97 16l-29 -52h-75l50 88q-55 56 -55 191q0 132 52 188t154 56q52 0 91 -15l31 54h74zM380 233q0 40 -5 70.5t-16 52.5l-165 -288q23 -10 61 -10q37 0 61 11t38.5 33t20 54.5t5.5 76.5zM130 233
q0 -37 3.5 -66t13.5 -51l164 285q-24 9 -56 9q-38 0 -62 -11t-38 -33.5t-19.5 -55.5t-5.5 -77zM284 539h-57l85 145h89z" />
    <glyph glyph-name="Ainvertedbreve" unicode="&#x202;" horiz-adv-x="549" 
d="M446 0l-43 152h-256l-44 -152h-84l203 689h105l203 -689h-84zM307 499q-4 14 -8 31t-8.5 35t-8 35t-6.5 31q-6 -28 -15.5 -65.5t-17.5 -66.5l-77 -276h217zM134 744q15 65 49.5 97.5t94.5 32.5q62 0 96 -32.5t49 -97.5h-63q-8 35 -27 54t-55 19t-54 -19t-26 -54h-64z" />
    <glyph glyph-name="ainvertedbreve" unicode="&#x203;" horiz-adv-x="453" 
d="M327 0l-11 34q-26 -16 -62 -30t-79 -14q-63 0 -100 33.5t-37 105.5q0 53 23 82t60 43.5t83 17.5t91 5h16v66q0 38 -21 54t-63 16q-16 0 -35.5 -2t-39.5 -5.5t-38.5 -8t-32.5 -9.5l-5 70q31 7 70.5 13t87.5 6q72 0 113 -28t41 -94v-355h-61zM311 220h-14q-96 0 -138 -21
t-42 -71q0 -33 15.5 -52.5t50.5 -19.5q36 0 69 10t59 24v130zM87 539q15 65 49.5 97.5t94.5 32.5q62 0 96 -32.5t49 -97.5h-63q-8 35 -27 54t-55 19t-54 -19t-26 -54h-64z" />
    <glyph glyph-name="Einvertedbreve" unicode="&#x206;" horiz-adv-x="508" 
d="M84 0v689h383v-71h-301v-228h214v-71h-214v-248h301v-71h-383zM138 744q15 65 49.5 97.5t94.5 32.5q62 0 96 -32.5t49 -97.5h-63q-8 35 -27 54t-55 19t-54 -19t-26 -54h-64z" />
    <glyph glyph-name="einvertedbreve" unicode="&#x207;" horiz-adv-x="460" 
d="M87 539q15 65 49.5 97.5t94.5 32.5q62 0 96 -32.5t49 -97.5h-63q-8 35 -27 54t-55 19t-54 -19t-26 -54h-64zM411 219h-283q0 -48 9.5 -79.5t26.5 -50t40.5 -25.5t50.5 -7q39 0 71 4.5t66 12.5l4 -69q-33 -6 -68.5 -10t-73.5 -4q-50 0 -88.5 13t-64.5 42t-39 75t-13 111
q0 130 48 187t148 57q90 0 128 -48t38 -148v-61zM334 278q0 74 -21 104t-70 30q-55 0 -80.5 -29.5t-31.5 -104.5h203z" />
    <glyph glyph-name="Iinvertedbreve" unicode="&#x20a;" horiz-adv-x="248" 
d="M83 0v689h82v-689h-82zM-20 744q15 65 49.5 97.5t94.5 32.5q62 0 96 -32.5t49 -97.5h-63q-8 35 -27 54t-55 19t-54 -19t-26 -54h-64z" />
    <glyph glyph-name="iinvertedbreve" unicode="&#x20b;" horiz-adv-x="222" 
d="M-33 539q15 65 49.5 97.5t94.5 32.5q62 0 96 -32.5t49 -97.5h-63q-8 35 -27 54t-55 19t-54 -19t-26 -54h-64zM73 0v467h77v-467h-77z" />
    <glyph glyph-name="Oinvertedbreve" unicode="&#x20e;" horiz-adv-x="634" 
d="M577 343q0 -80 -11 -145.5t-40 -111.5t-79.5 -71t-129.5 -25q-78 0 -128.5 25t-80 71.5t-40.5 111.5t-11 146q0 80 11 145.5t40.5 112t80 72t128.5 25.5q79 0 129.5 -25.5t79.5 -72t40 -112t11 -146.5zM493 344q0 67 -7 120t-26.5 89t-54 55t-88.5 19t-88.5 -19t-54 -55
t-26.5 -89t-7 -120q0 -68 7 -120t26.5 -88t54 -54.5t88.5 -18.5t88.5 18.5t54 54.5t26.5 88t7 120zM174 744q15 65 49.5 97.5t94.5 32.5q62 0 96 -32.5t49 -97.5h-63q-8 35 -27 54t-55 19t-54 -19t-26 -54h-64z" />
    <glyph glyph-name="oinvertedbreve" unicode="&#x20f;" horiz-adv-x="510" 
d="M109 539q15 65 49.5 97.5t94.5 32.5q62 0 96 -32.5t49 -97.5h-63q-8 35 -27 54t-55 19t-54 -19t-26 -54h-64zM461 233q0 -131 -52 -187t-154 -56t-154 56t-52 187q0 132 52 188t154 56t154 -56t52 -188zM380 233q0 44 -5.5 77t-20 55.5t-38.5 33.5t-61 11q-38 0 -62 -11
t-38 -33.5t-19.5 -55.5t-5.5 -77t5.5 -76.5t19.5 -54.5t38 -33t62 -11q37 0 61 11t38.5 33t20 54.5t5.5 76.5z" />
    <glyph glyph-name="Rinvertedbreve" unicode="&#x212;" horiz-adv-x="537" 
d="M412 0l-132 291h-115v-291h-81v689h238q48 0 81 -13.5t53.5 -39t29.5 -61t9 -78.5q0 -88 -32.5 -137.5t-101.5 -62.5l138 -297h-87zM414 496q0 25 -3.5 47.5t-14 38.5t-28.5 25.5t-46 9.5h-157v-254h144q34 0 54.5 9.5t31.5 27t15 42t4 54.5zM124 744q15 65 49.5 97.5
t94.5 32.5q62 0 96 -32.5t49 -97.5h-63q-8 35 -27 54t-55 19t-54 -19t-26 -54h-64z" />
    <glyph glyph-name="rinvertedbreve" unicode="&#x213;" horiz-adv-x="322" 
d="M43 539q15 65 49.5 97.5t94.5 32.5q62 0 96 -32.5t49 -97.5h-63q-8 35 -27 54t-55 19t-54 -19t-26 -54h-64zM253 476q14 0 26.5 -1t23.5 -4l-4 -74q-12 4 -26.5 5.5t-28.5 1.5t-28.5 -5t-27.5 -13t-24 -18t-18 -20v-348h-77v467h62l8 -53q24 30 50 46t64 16z" />
    <glyph glyph-name="Uinvertedbreve" unicode="&#x216;" horiz-adv-x="597" 
d="M528 189q0 -54 -19.5 -91.5t-51.5 -61.5t-73.5 -35t-85.5 -11q-43 0 -84 11t-73.5 34.5t-52 61.5t-19.5 92v500h81v-499q0 -63 41.5 -95.5t107.5 -32.5q31 0 58.5 8t47.5 24t31.5 40t11.5 56v499h80v-500zM162 744q15 65 49.5 97.5t94.5 32.5q62 0 96 -32.5t49 -97.5h-63
q-8 35 -27 54t-55 19t-54 -19t-26 -54h-64z" />
    <glyph glyph-name="uinvertedbreve" unicode="&#x217;" 
d="M103 539q15 65 49.5 97.5t94.5 32.5q62 0 96 -32.5t49 -97.5h-63q-8 35 -27 54t-55 19t-54 -19t-26 -54h-64zM64 467h77v-340q0 -35 20.5 -52t53.5 -17t68.5 9.5t69.5 29.5v370h77v-467h-62l-9 33q-38 -21 -76.5 -31.5t-81.5 -10.5q-29 0 -54 7t-43.5 23t-29 40.5
t-10.5 60.5v345z" />
    <glyph glyph-name="Scommaaccent" unicode="&#x218;" horiz-adv-x="488" 
d="M289 -61l-4 -55q-3 -30 -17 -61t-27 -52h-57q6 16 11 29.5t8.5 27t6 28t3.5 31.5l-1 52h77zM361 172q0 23 -7.5 38t-21.5 29q-24 24 -53 43.5t-59.5 38t-60.5 39t-57 47.5q-24 24 -39.5 53t-15.5 74q0 76 51.5 120.5t147.5 44.5q43 0 80.5 -3.5t74.5 -10.5l-6 -74
q-38 7 -74 11.5t-76 4.5q-57 0 -86 -27.5t-29 -66.5q0 -22 6 -37t23 -32q24 -24 54 -44t62.5 -39.5t64 -40.5t58.5 -48q24 -24 35.5 -51.5t11.5 -69.5t-16.5 -75.5t-46.5 -57t-71 -36t-89 -12.5q-19 0 -41.5 1t-44.5 3.5t-42.5 5.5t-35.5 6l6 75q42 -8 80 -13t71 -5
q70 0 108 28.5t38 80.5z" />
    <glyph glyph-name="scommaaccent" unicode="&#x219;" horiz-adv-x="395" 
d="M234 -61l-4 -55q-3 -30 -17 -61t-27 -52h-57q6 16 11 29.5t8.5 27t6 28t3.5 31.5l-1 52h77zM356 121q0 -33 -13.5 -57.5t-37.5 -40.5t-56.5 -24t-69.5 -8q-10 0 -25 1t-31.5 3t-33.5 4.5t-30 6.5l6 68q31 -8 63 -12.5t54 -4.5q54 0 76.5 16.5t22.5 43.5q0 13 -4 21
t-12 16q-16 16 -39.5 29t-49.5 26t-51.5 28t-45.5 35q-16 16 -25.5 35t-9.5 50t12.5 53.5t34.5 37.5t51.5 22.5t64.5 7.5q28 0 59.5 -3.5t60.5 -8.5l-6 -70q-29 7 -61 11t-58 4q-45 0 -63 -16t-18 -39q0 -12 3.5 -20t11.5 -16q13 -14 37 -27t50.5 -27t52.5 -29t43 -32
q19 -19 28 -37t9 -47z" />
    <glyph glyph-name="dotlessj" unicode="&#x237;" horiz-adv-x="223" 
d="M36 -236q-17 0 -38 2t-38 5l4 71q15 -3 32 -5t31 -2q22 0 33.5 14.5t11.5 57.5v560h77v-553q0 -43 -6.5 -72t-20 -46t-35 -24.5t-51.5 -7.5z" />
    <glyph glyph-name="schwa" unicode="&#x259;" horiz-adv-x="460" 
d="M49 249h283q0 48 -9.5 79.5t-26.5 50t-40.5 25.5t-50.5 7q-39 0 -71 -4.5t-66 -12.5l-4 69q33 6 68.5 10t73.5 4q50 0 88.5 -13t64.5 -42t39 -75t13 -111t-12 -111.5t-36 -76t-61 -43t-87 -13.5q-90 0 -128 48t-38 148v61zM126 190q0 -74 20.5 -104t70.5 -30
q55 0 80.5 29.5t31.5 104.5h-203z" />
    <glyph glyph-name="yogh" unicode="&#x292;" horiz-adv-x="443" 
d="M269 397h-228v70h328v-59l-173 -218v-2q94 0 146 -53t52 -144q0 -55 -20 -94.5t-54.5 -64.5t-81 -36.5t-100.5 -11.5q-30 0 -54.5 1.5t-52.5 5.5l3 70q33 -5 56.5 -6t45.5 -1q43 0 77.5 6.5t58.5 22t37 41t13 63.5q0 70 -40 101.5t-115 33.5h-23.5t-35.5 -1l-8 57
l169 217v2z" />
    <glyph glyph-name="uni02BE" unicode="&#x2be;" horiz-adv-x="318" 
d="M92 472q28 0 47.5 19.5t19.5 47.5t-19.5 47.5t-47.5 19.5v69q28 0 52.5 -10.5t43 -29t29.5 -43.5t11 -53q0 -29 -11 -53.5t-29.5 -43t-43 -29t-52.5 -10.5v69z" />
    <glyph glyph-name="uni02BF" unicode="&#x2bf;" horiz-adv-x="318" 
d="M226 403q-28 0 -52.5 10.5t-43 29t-29.5 43t-11 53.5q0 28 11 53t29.5 43.5t43 29t52.5 10.5v-69q-28 0 -47.5 -19.5t-19.5 -47.5t19.5 -47.5t47.5 -19.5v-69z" />
    <glyph glyph-name="circumflex" unicode="&#x2c6;" horiz-adv-x="544" 
d="M339 539l-67 90l-67 -90h-60l89 140h75l90 -140h-60z" />
    <glyph glyph-name="caron" unicode="&#x2c7;" horiz-adv-x="544" 
d="M309 539h-75l-89 140h59l67 -90l67 90h61z" />
    <glyph glyph-name="breve" unicode="&#x2d8;" horiz-adv-x="544" 
d="M415 669q-15 -65 -49.5 -97.5t-94.5 -32.5q-62 0 -96 32.5t-49 97.5h63q8 -35 27 -54t55 -19t54 19t26 54h64z" />
    <glyph glyph-name="dotaccent" unicode="&#x2d9;" horiz-adv-x="544" 
d="M235 566v86h76v-86h-76z" />
    <glyph glyph-name="ring" unicode="&#x2da;" horiz-adv-x="544" 
d="M359 610q0 -36 -25.5 -61t-61.5 -25t-61.5 25t-25.5 61q0 18 7 33.5t18.5 27t27.5 18.5t34 7t34 -7t27.5 -18.5t18.5 -27t7 -33.5zM311 610q0 16 -11.5 27.5t-27.5 11.5t-27 -11.5t-11 -27.5q0 -17 11 -28.5t27 -11.5t27.5 11.5t11.5 28.5z" />
    <glyph glyph-name="ogonek" unicode="&#x2db;" horiz-adv-x="544" 
d="M337 -178q-14 -8 -32.5 -12.5t-40.5 -4.5q-42 0 -64.5 19t-22.5 57q0 18 8.5 38t22 38.5t30 34t32.5 25.5l48 -17q-35 -26 -56.5 -54.5t-21.5 -55.5q0 -16 7 -24.5t25 -8.5q33 0 62 15z" />
    <glyph glyph-name="tilde" unicode="&#x2dc;" horiz-adv-x="544" 
d="M336 620q17 0 34 14t34 39l26 -52q-17 -23 -41 -40.5t-50 -17.5q-18 0 -36.5 7.5t-36 16t-33 16t-26.5 7.5q-20 0 -36.5 -15.5t-32.5 -38.5l-26 53q17 22 40 39.5t51 17.5q17 0 35 -7t36 -16t34 -16t28 -7z" />
    <glyph glyph-name="hungarumlaut" unicode="&#x2dd;" horiz-adv-x="544" 
d="M336 539h-57l85 145h88zM182 539h-57l85 145h89z" />
    <glyph glyph-name="commaabovecmb" unicode="&#x313;" horiz-adv-x="544" 
d="M213 538l4 55q3 30 17 61t27 52h57q-13 -32 -20 -57t-9 -59l1 -52h-77z" />
    <glyph glyph-name="uni0323" unicode="&#x323;" horiz-adv-x="544" 
d="M229 -169v86h76v-86h-76z" />
    <glyph glyph-name="uni0329" unicode="&#x329;" horiz-adv-x="544" 
d="M239 -215v145h66v-145h-66z" />
    <glyph glyph-name="tonos" unicode="&#x384;" horiz-adv-x="236" 
d="M116 543h-51l29 146h83z" />
    <glyph glyph-name="dieresistonos" unicode="&#x385;" horiz-adv-x="448" 
d="M218 529h-47l29 146h79zM311 572v81h78v-81h-78zM59 572v81h78v-81h-78z" />
    <glyph glyph-name="Alphatonos" unicode="&#x386;" horiz-adv-x="549" 
d="M446 0l-43 152h-256l-44 -152h-84l203 689h105l203 -689h-84zM307 499q-4 14 -8 31t-8.5 35t-8 35t-6.5 31q-6 -28 -15.5 -65.5t-17.5 -66.5l-77 -276h217zM95 543h-51l29 146h83z" />
    <glyph glyph-name="anoteleia" unicode="&#x387;" horiz-adv-x="273" 
d="M89 296v95h95v-95h-95z" />
    <glyph glyph-name="Epsilontonos" unicode="&#x388;" horiz-adv-x="508" 
d="M84 0v689h383v-71h-301v-228h214v-71h-214v-248h301v-71h-383zM-20 543h-51l29 146h83z" />
    <glyph glyph-name="Etatonos" unicode="&#x389;" horiz-adv-x="638" 
d="M473 0v319h-307v-319h-82v689h82v-299h307v299h80v-689h-80zM-20 543h-51l29 146h83z" />
    <glyph glyph-name="Iotatonos" unicode="&#x38a;" horiz-adv-x="251" 
d="M84 0v689h82v-689h-82zM-20 543h-51l29 146h83z" />
    <glyph glyph-name="Omicrontonos" unicode="&#x38c;" horiz-adv-x="624" 
d="M572 343q0 -80 -11 -145.5t-40 -111.5t-79.5 -71t-129.5 -25q-78 0 -128.5 25t-80 71.5t-40.5 111.5t-11 146q0 80 11 145.5t40.5 112t80 72t128.5 25.5q79 0 129.5 -25.5t79.5 -72t40 -112t11 -146.5zM488 344q0 67 -7 120t-26.5 89t-54 55t-88.5 19t-88.5 -19t-54 -55
t-26.5 -89t-7 -120q0 -68 7 -120t26.5 -88t54 -54.5t88.5 -18.5t88.5 18.5t54 54.5t26.5 88t7 120zM17 543h-51l29 146h83z" />
    <glyph glyph-name="Upsilontonos" unicode="&#x38e;" horiz-adv-x="542" 
d="M316 284v-284h-82v285l-210 404h89l163 -321l160 321h90zM-60 543h-51l29 146h83z" />
    <glyph glyph-name="Omegatonos" unicode="&#x38f;" horiz-adv-x="636" 
d="M18 543h-51l29 146h83zM318 699q76 0 126 -26.5t79.5 -69t41.5 -96t12 -108.5q0 -56 -13 -105t-32.5 -89.5t-43 -73t-44.5 -55.5v-2h121v-74h-215v74q19 17 44 45t48 67t39 89.5t16 111.5q0 48 -7.5 92t-27.5 77.5t-54.5 53t-89.5 19.5t-89.5 -19.5t-54.5 -53
t-27.5 -77.5t-7.5 -92q1 -61 16.5 -111.5t37.5 -89.5t46.5 -67t43.5 -45v-74h-212v74h120v2q-22 24 -45 56.5t-42.5 73t-32 89t-12.5 104.5q0 55 12 108.5t41.5 96t79.5 69t126 26.5z" />
    <glyph glyph-name="iotadieresistonos" unicode="&#x390;" horiz-adv-x="262" 
d="M69 467h76v-357q0 -32 12 -41.5t39 -9.5q8 0 19.5 1.5t23.5 3.5l3 -65q-13 -4 -28.5 -6t-28.5 -2q-27 0 -48.5 4t-36.5 16t-23 34t-8 58v364zM132 529h-47l29 146h79zM225 572v81h78v-81h-78zM-27 572v81h78v-81h-78z" />
    <glyph glyph-name="Alpha" unicode="&#x391;" horiz-adv-x="549" 
d="M446 0l-43 152h-256l-44 -152h-84l203 689h105l203 -689h-84zM307 499q-4 14 -8 31t-8.5 35t-8 35t-6.5 31q-6 -28 -15.5 -65.5t-17.5 -66.5l-77 -276h217z" />
    <glyph glyph-name="Beta" unicode="&#x392;" horiz-adv-x="555" 
d="M501 193q0 -90 -42.5 -141.5t-132.5 -51.5h-242v689h240q45 0 76 -13.5t50.5 -36.5t28.5 -55t9 -69q0 -53 -20.5 -94t-58.5 -63q42 -17 67 -61t25 -104zM405 507q0 23 -4 43.5t-14 35.5t-27 24t-43 9h-152v-230h155q24 0 40.5 9.5t26 25.5t14 37.5t4.5 45.5zM418 193
q0 25 -4.5 47.5t-15 39.5t-28 27.5t-44.5 10.5h-161v-248h156q50 0 73.5 32t23.5 91z" />
    <glyph glyph-name="Gamma" unicode="&#x393;" horiz-adv-x="478" 
d="M453 689v-71h-287v-618h-82v689h369z" />
    <glyph glyph-name="Epsilon" unicode="&#x395;" horiz-adv-x="508" 
d="M84 0v689h383v-71h-301v-228h214v-71h-214v-248h301v-71h-383z" />
    <glyph glyph-name="Zeta" unicode="&#x396;" horiz-adv-x="508" 
d="M41 0v55l326 561h-316v73h416v-54l-325 -563h325v-72h-426z" />
    <glyph glyph-name="Eta" unicode="&#x397;" horiz-adv-x="638" 
d="M473 0v319h-307v-319h-82v689h82v-299h307v299h80v-689h-80z" />
    <glyph glyph-name="Theta" unicode="&#x398;" horiz-adv-x="634" 
d="M191 388h252v-74h-252v74zM577 343q0 -80 -11 -145.5t-40 -111.5t-79.5 -71t-129.5 -25q-78 0 -128.5 25t-80 71.5t-40.5 111.5t-11 146q0 80 11 145.5t40.5 112t80 72t128.5 25.5q79 0 129.5 -25.5t79.5 -72t40 -112t11 -146.5zM493 344q0 67 -7 120t-26.5 89t-54 55
t-88.5 19t-88.5 -19t-54 -55t-26.5 -89t-7 -120q0 -68 7 -120t26.5 -88t54 -54.5t88.5 -18.5t88.5 18.5t54 54.5t26.5 88t7 120z" />
    <glyph glyph-name="Iota" unicode="&#x399;" horiz-adv-x="251" 
d="M84 0v689h82v-689h-82z" />
    <glyph glyph-name="Kappa" unicode="&#x39a;" horiz-adv-x="544" 
d="M438 0l-186 335l-86 -95v-240h-82v689h82v-354l254 354h94l-211 -284l226 -405h-91z" />
    <glyph glyph-name="Lambda" unicode="&#x39b;" horiz-adv-x="552" 
d="M226 689h100l207 -689h-86l-146 504q-7 23 -13.5 53t-11.5 63q-6 -34 -13.5 -62.5t-14.5 -53.5l-145 -504h-84z" />
    <glyph glyph-name="Mu" unicode="&#x39c;" horiz-adv-x="806" 
d="M644 0v627q-8 -35 -17 -69t-17 -60l-160 -498h-97l-158 498q-8 25 -16.5 58t-17.5 71v-627h-77v689h130l158 -499q10 -32 17.5 -64.5t12.5 -60.5q5 28 12 60.5t18 64.5l160 499h130v-689h-78z" />
    <glyph glyph-name="Nu" unicode="&#x39d;" horiz-adv-x="649" 
d="M451 165q14 -29 22 -50t17 -46h2q0 7 -1 21t-2 29t-1.5 28.5t-0.5 21.5v520h77v-689h-113l-257 532q-9 19 -17 38.5t-19 45.5h-2q1 -8 1.5 -21.5t1.5 -28t1.5 -28t0.5 -19.5v-519h-77v689h114z" />
    <glyph glyph-name="Xi" unicode="&#x39e;" horiz-adv-x="506" 
d="M41 689h424v-73h-424v73zM41 73h424v-73h-424v73zM71 391h363v-73h-363v73z" />
    <glyph glyph-name="Omicron" unicode="&#x39f;" horiz-adv-x="634" 
d="M577 343q0 -80 -11 -145.5t-40 -111.5t-79.5 -71t-129.5 -25q-78 0 -128.5 25t-80 71.5t-40.5 111.5t-11 146q0 80 11 145.5t40.5 112t80 72t128.5 25.5q79 0 129.5 -25.5t79.5 -72t40 -112t11 -146.5zM493 344q0 67 -7 120t-26.5 89t-54 55t-88.5 19t-88.5 -19t-54 -55
t-26.5 -89t-7 -120q0 -68 7 -120t26.5 -88t54 -54.5t88.5 -18.5t88.5 18.5t54 54.5t26.5 88t7 120z" />
    <glyph glyph-name="Pi" unicode="&#x3a0;" horiz-adv-x="638" 
d="M473 0v617h-307v-617h-82v689h469v-689h-80z" />
    <glyph glyph-name="Rho" unicode="&#x3a1;" horiz-adv-x="529" 
d="M497 481q0 -42 -7.5 -79.5t-26.5 -66t-51.5 -45t-82.5 -16.5h-164v-274h-81v689h244q50 0 83 -17t52 -45.5t26.5 -66.5t7.5 -79zM417 481q0 27 -3.5 51.5t-13.5 43.5t-28 30t-48 11h-159v-272h159q31 0 49 11t28 29.5t13 43.5t3 52z" />
    <glyph glyph-name="Sigma" unicode="&#x3a3;" horiz-adv-x="510" 
d="M291 338l-155 -265v-2h332v-71h-427v56l172 296l-168 275v62h424v-71h-328v-2l150 -247v-31z" />
    <glyph glyph-name="Tau" unicode="&#x3a4;" horiz-adv-x="490" 
d="M286 617v-617h-80v617h-181v72h440v-72h-179z" />
    <glyph glyph-name="Upsilon" unicode="&#x3a5;" horiz-adv-x="534" 
d="M308 284v-284h-82v285l-210 404h89l163 -321l160 321h90z" />
    <glyph glyph-name="Phi" unicode="&#x3a6;" horiz-adv-x="719" 
d="M55 347q0 68 18.5 118t52.5 84t82.5 52t109.5 22v66h81v-66q61 -4 110 -22t83.5 -52t53 -84t18.5 -118t-18.5 -117.5t-53 -83.5t-83.5 -52t-110 -21v-73h-81v73q-61 4 -109.5 22t-82.5 51.5t-52.5 83.5t-18.5 117zM583 348q0 56 -14 93.5t-38.5 60.5t-58.5 34t-73 13
v-403q39 3 73 13.5t58.5 34t38.5 61t14 93.5zM136 348q0 -56 13.5 -93.5t38 -60.5t58 -33.5t72.5 -13.5v402q-39 -3 -72.5 -13.5t-58 -34t-38 -61t-13.5 -92.5z" />
    <glyph glyph-name="Chi" unicode="&#x3a7;" horiz-adv-x="571" 
d="M449 0l-164 279l-162 -279h-94l208 345l-196 344h94l151 -280l152 280h93l-197 -344l208 -345h-93z" />
    <glyph glyph-name="Psi" unicode="&#x3a8;" horiz-adv-x="658" 
d="M290 0v150q-36 3 -73 14.5t-68 35.5t-50.5 62t-19.5 95v332h79v-332q0 -32 10.5 -55.5t28.5 -39t42 -24t51 -11.5v462h82v-462q26 4 49 13t40.5 24.5t28 38t10.5 54.5v332h79v-332q0 -56 -19 -93.5t-49 -61.5t-67 -35.5t-72 -15.5v-151h-82z" />
    <glyph glyph-name="Iotadieresis" unicode="&#x3aa;" horiz-adv-x="248" 
d="M83 0v689h82v-689h-82zM171 777v81h80v-81h-80zM-4 777v81h80v-81h-80z" />
    <glyph glyph-name="Upsilondieresis" unicode="&#x3ab;" horiz-adv-x="534" 
d="M308 284v-284h-82v285l-210 404h89l163 -321l160 321h90zM316 777v81h80v-81h-80zM141 777v81h80v-81h-80z" />
    <glyph glyph-name="alphatonos" unicode="&#x3ac;" 
d="M430 0h-63l-7 34q-25 -17 -59 -30.5t-77 -13.5q-90 0 -132.5 56t-42.5 182q0 56 9.5 102t30.5 78.5t54 50.5t80 18q38 0 71.5 -10t65.5 -30l8 30h62v-467zM353 371q-27 17 -57 27.5t-67 10.5q-51 0 -75.5 -42.5t-24.5 -138.5q0 -51 6.5 -84.5t19.5 -52.5t32.5 -26.5
t45.5 -7.5q37 0 67 13.5t53 27.5v273zM272 543h-51l29 146h83z" />
    <glyph glyph-name="epsilontonos" unicode="&#x3ad;" horiz-adv-x="437" 
d="M137 245q-26 16 -46 40t-20 68q0 22 8 44t22 36q24 24 61 34t86 10q13 0 30.5 -1t35.5 -2.5t34 -4t28 -4.5l-4 -67q-12 2 -28.5 4.5t-33.5 4t-34 2.5t-32 1q-41 0 -67 -12.5t-27 -46.5q0 -11 3 -24.5t14 -25.5t32 -20t56 -8h71v-66h-67q-69 0 -101.5 -20.5t-32.5 -55.5
q0 -23 10 -37.5t27 -22.5t39.5 -11t47.5 -3q12 0 31 1.5t39.5 4t41 6t35.5 7.5l6 -68q-12 -3 -30.5 -6.5t-39.5 -6t-43.5 -4t-42.5 -1.5q-44 0 -87.5 7.5t-72.5 36.5q-16 16 -27 38t-11 52q0 24 7.5 43.5t20.5 34.5t28.5 25t32.5 16v2zM266 543h-51l29 146h83z" />
    <glyph glyph-name="etatonos" unicode="&#x3ae;" 
d="M435 -232h-77v572q0 35 -20.5 52.5t-52.5 17.5q-34 0 -69.5 -9.5t-69.5 -29.5v-371h-77v467h62l9 -33q39 21 76.5 32t82.5 11q28 0 53 -7.5t43.5 -23t29 -40.5t10.5 -61v-577zM282 543h-51l29 146h83z" />
    <glyph glyph-name="iotatonos" unicode="&#x3af;" horiz-adv-x="262" 
d="M69 467h76v-357q0 -32 12 -41.5t39 -9.5q8 0 19.5 1.5t23.5 3.5l3 -65q-13 -4 -28.5 -6t-28.5 -2q-27 0 -48.5 4t-36.5 16t-23 34t-8 58v364zM136 543h-51l29 146h83z" />
    <glyph glyph-name="upsilondieresistonos" unicode="&#x3b0;" horiz-adv-x="495" 
d="M230 61q24 0 45 7.5t38 24.5q30 30 42.5 82.5t12.5 110.5q0 59 -9.5 100.5t-22.5 80.5h78q12 -38 20.5 -87.5t8.5 -102.5q0 -31 -4 -63t-13.5 -63t-25 -59t-37.5 -50q-23 -23 -56 -37t-75 -14q-87 0 -130 41t-43 115v320h76v-312q0 -27 7.5 -45.5t20 -29t30 -15
t37.5 -4.5zM250 529h-47l29 146h79zM343 572v81h78v-81h-78zM91 572v81h78v-81h-78z" />
    <glyph glyph-name="alpha" unicode="&#x3b1;" 
d="M430 0h-63l-7 49q-25 -25 -59 -42t-77 -17q-90 0 -132.5 56t-42.5 182q0 56 9.5 102t30.5 78.5t54 50.5t80 18q74 0 137 -54l8 44h62v-467zM353 357q-27 25 -57 38.5t-67 13.5q-51 0 -75.5 -42.5t-24.5 -138.5q0 -51 6.5 -84.5t19.5 -52.5t32.5 -26.5t45.5 -7.5
q37 0 67 17t53 39v244z" />
    <glyph glyph-name="beta" unicode="&#x3b2;" horiz-adv-x="529" 
d="M69 527q0 93 44.5 148t142.5 55q43 0 79.5 -10.5t63 -33t41.5 -57t15 -82.5q0 -57 -21.5 -99t-55.5 -68v-2q48 -22 75 -69t27 -107q0 -56 -15 -96t-42 -65.5t-65.5 -37.5t-85.5 -12q-16 0 -34 2.5t-35 7t-32.5 11.5t-25.5 15v-259h-76v759zM145 100q25 -20 61 -31.5
t69 -11.5q63 0 95.5 34.5t32.5 110.5q0 28 -6.5 53t-21 44t-38 30t-58.5 11h-44v67h33q62 0 86 38t24 100q0 57 -33 87.5t-87 30.5q-32 0 -53.5 -11t-34.5 -30t-19 -45t-6 -56v-421z" />
    <glyph glyph-name="gamma" unicode="&#x3b3;" horiz-adv-x="463" 
d="M194 -232v162q-2 35 -7 60t-15 56l-150 421h81l132 -379h2q42 71 75 165.5t44 213.5h74q-10 -116 -50.5 -232t-109.5 -222v-245h-76z" />
    <glyph glyph-name="delta" unicode="&#x3b4;" horiz-adv-x="516" 
d="M218 613q0 -32 29 -60q40 -38 79 -69t70 -65.5t50 -77.5t19 -104q0 -132 -52.5 -189.5t-153.5 -57.5q-102 0 -156 56t-54 186q0 67 20.5 112.5t49.5 74.5q22 22 51.5 37t54.5 17v1q-15 14 -30 29t-27 32.5t-19.5 36.5t-7.5 41q0 31 13 53t35 36t51.5 21t63.5 7
q28 0 59.5 -4t60.5 -9l-6 -70q-29 7 -58 11.5t-55 4.5q-45 0 -66 -13.5t-21 -36.5zM387 237q-1 33 -8.5 58.5t-20.5 46.5t-31 39t-39 35q-39 0 -66.5 -12.5t-47.5 -32.5q-19 -19 -33 -51t-14 -89q0 -49 10 -82t27.5 -52.5t41.5 -28t53 -8.5t53 8t41 28t26 54t8 87z" />
    <glyph glyph-name="epsilon" unicode="&#x3b5;" horiz-adv-x="437" 
d="M137 245q-26 16 -46 40t-20 68q0 22 8 44t22 36q24 24 61 34t86 10q13 0 30.5 -1t35.5 -2.5t34 -4t28 -4.5l-4 -67q-12 2 -28.5 4.5t-33.5 4t-34 2.5t-32 1q-41 0 -67 -12.5t-27 -46.5q0 -11 3 -24.5t14 -25.5t32 -20t56 -8h71v-66h-67q-69 0 -101.5 -20.5t-32.5 -55.5
q0 -23 10 -37.5t27 -22.5t39.5 -11t47.5 -3q12 0 31 1.5t39.5 4t41 6t35.5 7.5l6 -68q-12 -3 -30.5 -6.5t-39.5 -6t-43.5 -4t-42.5 -1.5q-44 0 -87.5 7.5t-72.5 36.5q-16 16 -27 38t-11 52q0 24 7.5 43.5t20.5 34.5t28.5 25t32.5 16v2z" />
    <glyph glyph-name="zeta" unicode="&#x3b6;" horiz-adv-x="415" 
d="M49 157q0 66 23 134t58 132.5t77 122.5t80 105v2h-217v67h312v-60q-76 -89 -125.5 -163.5t-78 -136.5t-40 -112t-11.5 -89q0 -46 23 -69q22 -22 56.5 -26.5t80.5 -6.5q20 -1 39 -4.5t33.5 -11.5t23 -21.5t8.5 -34.5q0 -15 -7 -34t-17 -38t-21.5 -36.5t-19.5 -29.5h-71
q6 13 15.5 29.5t18.5 33.5t15 32.5t6 25.5q0 9 -5.5 14t-13.5 6.5t-16.5 2t-14.5 0.5q-16 1 -37.5 2t-45 6t-47 15t-41.5 28q-19 18 -29.5 47.5t-10.5 67.5z" />
    <glyph glyph-name="eta" unicode="&#x3b7;" 
d="M435 -232h-77v572q0 35 -20.5 52.5t-52.5 17.5q-34 0 -69.5 -9.5t-69.5 -29.5v-371h-77v467h62l9 -33q39 21 76.5 32t82.5 11q28 0 53 -7.5t43.5 -23t29 -40.5t10.5 -61v-577z" />
    <glyph glyph-name="theta" unicode="&#x3b8;" horiz-adv-x="539" 
d="M480 362q0 -92 -7.5 -161.5t-30 -116t-64 -70.5t-108.5 -24t-108.5 24t-64 71.5t-30.5 117t-8 160.5t8 160t30.5 114.5t64 68.5t108.5 23t108.5 -23t64 -69t30 -115t7.5 -160zM269 660q-42 0 -68 -15t-40 -47t-19 -81.5t-6 -118.5h267q-1 69 -6.5 118.5t-20 81.5t-40 47
t-67.5 15zM269 60q42 0 67.5 16t40 49t20 83.5t6.5 119.5h-267q1 -69 6 -119.5t19 -83.5t40 -49t68 -16z" />
    <glyph glyph-name="iota" unicode="&#x3b9;" horiz-adv-x="262" 
d="M69 467h76v-357q0 -32 12 -41.5t39 -9.5q8 0 19.5 1.5t23.5 3.5l3 -65q-13 -4 -28.5 -6t-28.5 -2q-27 0 -48.5 4t-36.5 16t-23 34t-8 58v364z" />
    <glyph glyph-name="kappa" unicode="&#x3ba;" horiz-adv-x="439" 
d="M269 410q24 31 50 44t58 13q16 0 34 -3l-3 -65q-6 1 -11.5 1.5t-10.5 0.5q-22 0 -37 -9.5t-33 -30.5l-60 -72l177 -289h-87l-140 229l-60 -60v-169h-77v467h77v-223q10 17 23.5 35.5t25.5 35.5z" />
    <glyph glyph-name="lambda" unicode="&#x3bb;" 
d="M256 333q-5 14 -9 31t-9 40h-2q-5 -23 -9 -40t-9 -31l-108 -333h-78l168 506l-15 51q-9 31 -19 51t-24 34q-11 11 -25.5 14.5t-34.5 3.5q-11 0 -25.5 -1.5t-28.5 -4.5l-3 68q29 8 61 8q42 0 69.5 -11.5t46 -33t31 -51.5t24.5 -66l152 -463q8 -26 18 -34.5t31 -8.5
q9 0 16.5 1.5t16.5 3.5l3 -65q-11 -4 -27.5 -6t-29.5 -2q-42 0 -63.5 22.5t-35.5 64.5z" />
    <glyph glyph-name="nu" unicode="&#x3bd;" horiz-adv-x="457" 
d="M230 84q42 71 75.5 167.5t44.5 215.5h74q-10 -119 -52.5 -239.5t-114.5 -227.5h-77l-158 467h82l124 -383h2v0z" />
    <glyph glyph-name="xi" unicode="&#x3be;" horiz-adv-x="458" 
d="M70 720h345v-67h-81q-34 0 -64 -7.5t-52 -24t-34.5 -41.5t-12.5 -61q0 -37 10.5 -62t30 -40.5t46 -22t58.5 -6.5h62v-67h-86q-28 0 -57.5 -6t-53.5 -20.5t-39.5 -39.5t-15.5 -62q0 -61 31 -92q27 -27 65 -34.5t101 -7.5q22 0 41.5 -3.5t34.5 -12t23.5 -22.5t8.5 -36
q0 -15 -7 -34t-17 -38t-21.5 -36.5t-19.5 -29.5h-71q6 13 15.5 29.5t18.5 33.5t15 32.5t6 25.5t-6 14.5t-14.5 6.5t-17.5 2h-15q-66 0 -114.5 11.5t-83.5 46.5q-23 23 -36 56t-13 76q0 67 36 113t91 70v2q-37 22 -59.5 59t-22.5 85q0 42 19 81t64 61v2l-108 -1v67z" />
    <glyph glyph-name="omicron" unicode="&#x3bf;" horiz-adv-x="510" 
d="M461 233q0 -131 -52 -187t-154 -56t-154 56t-52 187q0 132 52 188t154 56t154 -56t52 -188zM380 233q0 44 -5.5 77t-20 55.5t-38.5 33.5t-61 11q-38 0 -62 -11t-38 -33.5t-19.5 -55.5t-5.5 -77t5.5 -76.5t19.5 -54.5t38 -33t62 -11q37 0 61 11t38.5 33t20 54.5t5.5 76.5z
" />
    <glyph glyph-name="pi" unicode="&#x3c0;" horiz-adv-x="580" 
d="M469 397v-397h-76v397h-206v-397h-76v397h-72v70h502v-70h-72z" />
    <glyph glyph-name="rho" unicode="&#x3c1;" horiz-adv-x="508" 
d="M267 477q94 0 143 -56t49 -182q0 -132 -51 -190.5t-152 -58.5q-27 0 -56 7t-56 22v-251h-76v471q-1 122 49 180t150 58zM268 410q-62 0 -93 -39t-31 -133v-143q24 -17 54 -27.5t59 -10.5q33 0 56 8.5t38 29t21.5 55.5t6.5 88q0 49 -7 82t-21 53t-34.5 28.5t-48.5 8.5z
" />
    <glyph glyph-name="sigma1" unicode="&#x3c2;" horiz-adv-x="396" 
d="M164 90q19 -22 47.5 -26.5t68.5 -4.5q18 0 36.5 -2.5t34 -10.5t25 -22.5t9.5 -38.5q0 -15 -7 -34t-17 -38t-21.5 -36.5t-19.5 -29.5h-71q7 13 16.5 29.5t18 33.5t14.5 32.5t6 25.5q0 17 -14 20t-36 3q-14 0 -33.5 1.5t-40.5 6.5t-41 15.5t-36 28.5q-54 54 -54 190
q0 68 13.5 115t40 75.5t66 41t91.5 12.5q26 0 53 -2t56 -9l-3 -68q-25 5 -54 8t-51 3q-44 0 -70.5 -13.5t-40.5 -37.5t-18.5 -56t-4.5 -69q0 -55 9.5 -89.5t27.5 -53.5z" />
    <glyph glyph-name="sigma" unicode="&#x3c3;" horiz-adv-x="522" 
d="M459 234q0 -132 -52.5 -188t-152.5 -56q-101 0 -153 56.5t-52 187.5q0 121 57 177t172 56h219v-67h-88q23 -26 36.5 -67.5t13.5 -98.5zM381 234q0 47 -8.5 79.5t-24.5 52t-38.5 28t-50.5 8.5q-63 0 -97.5 -40t-34.5 -128q0 -53 9.5 -86.5t26 -53t40 -27t51.5 -7.5
t51.5 7.5t40.5 27t26 53t9 86.5z" />
    <glyph glyph-name="tau" unicode="&#x3c4;" horiz-adv-x="414" 
d="M245 397v-397h-76v397h-151v70h378v-70h-151z" />
    <glyph glyph-name="upsilon" unicode="&#x3c5;" horiz-adv-x="494" 
d="M230 61q24 0 45 7.5t38 24.5q30 30 42.5 82.5t12.5 110.5q0 59 -9.5 100.5t-22.5 80.5h78q12 -38 20.5 -87.5t8.5 -102.5q0 -31 -4 -63t-13.5 -63t-25 -59t-37.5 -50q-23 -23 -56 -37t-75 -14q-87 0 -130 41t-43 115v320h76v-312q0 -27 7.5 -45.5t20 -29t30 -15
t37.5 -4.5z" />
    <glyph glyph-name="phi" unicode="&#x3c6;" horiz-adv-x="621" 
d="M231 393q-60 -13 -83 -53.5t-23 -106.5q0 -77 32 -117t110 -49v275q0 56 27.5 91t87.5 35q39 0 74 -15t60.5 -44.5t40.5 -73.5t15 -102t-16 -99.5t-46 -69.5t-72.5 -43.5t-94.5 -20.5v-232h-76v231q-107 10 -162.5 64.5t-55.5 169.5q0 97 42.5 154t117.5 75zM496 233
q0 36 -9 66t-24 52.5t-34.5 35t-40.5 12.5q-25 0 -35 -16.5t-10 -51.5v-264q75 9 113 49.5t40 116.5z" />
    <glyph glyph-name="chi" unicode="&#x3c7;" horiz-adv-x="427" 
d="M252 137l160 -369h-82l-120 287l-118 -287h-78l158 369l-145 330h82l106 -252l107 252h78z" />
    <glyph glyph-name="psi" unicode="&#x3c8;" horiz-adv-x="560" 
d="M242 -232v225q-32 3 -65 11.5t-59 27.5t-42.5 50t-16.5 78v307h76v-315q0 -22 9 -37.5t24 -26t34.5 -16.5t39.5 -9v657h76v-657q20 3 39.5 9t34.5 16.5t24 26t9 37.5v315h76v-307q0 -47 -17 -78t-43 -50t-59 -27.5t-64 -11.5v-225h-76z" />
    <glyph glyph-name="omega" unicode="&#x3c9;" horiz-adv-x="651" 
d="M364 265q0 -46 4 -84t14 -65t25 -41.5t38 -14.5q27 0 42 15q17 17 24 51.5t7 80.5q0 32 -4.5 67.5t-13 70t-21.5 66t-30 56.5h81q18 -27 30 -59.5t20 -67t11.5 -68.5t3.5 -64q0 -57 -11 -106.5t-40 -78.5q-15 -15 -39.5 -24t-52.5 -9q-52 0 -81 26.5t-45 74.5h-1
q-16 -48 -45 -74.5t-81 -26.5q-28 0 -52.5 9t-39.5 24q-29 29 -40 78.5t-11 106.5q0 30 3.5 64t11 68.5t19.5 67t30 59.5h82q-17 -25 -30 -56.5t-21.5 -66t-13 -70t-4.5 -67.5q0 -46 7 -80.5t24 -51.5q15 -15 42 -15q22 0 37.5 14.5t25.5 41.5t14 65t4 84v49h77v-49z" />
    <glyph glyph-name="iotadieresis" unicode="&#x3ca;" horiz-adv-x="262" 
d="M69 467h76v-357q0 -32 12 -41.5t39 -9.5q8 0 19.5 1.5t23.5 3.5l3 -65q-13 -4 -28.5 -6t-28.5 -2q-27 0 -48.5 4t-36.5 16t-23 34t-8 58v364zM154 572v81h80v-81h-80zM-21 572v81h80v-81h-80z" />
    <glyph glyph-name="upsilondieresis" unicode="&#x3cb;" horiz-adv-x="494" 
d="M230 61q24 0 45 7.5t38 24.5q30 30 42.5 82.5t12.5 110.5q0 59 -9.5 100.5t-22.5 80.5h78q12 -38 20.5 -87.5t8.5 -102.5q0 -31 -4 -63t-13.5 -63t-25 -59t-37.5 -50q-23 -23 -56 -37t-75 -14q-87 0 -130 41t-43 115v320h76v-312q0 -27 7.5 -45.5t20 -29t30 -15
t37.5 -4.5zM290 572v81h80v-81h-80zM115 572v81h80v-81h-80z" />
    <glyph glyph-name="omicrontonos" unicode="&#x3cc;" horiz-adv-x="510" 
d="M461 233q0 -131 -52 -187t-154 -56t-154 56t-52 187q0 132 52 188t154 56t154 -56t52 -188zM380 233q0 44 -5.5 77t-20 55.5t-38.5 33.5t-61 11q-38 0 -62 -11t-38 -33.5t-19.5 -55.5t-5.5 -77t5.5 -76.5t19.5 -54.5t38 -33t62 -11q37 0 61 11t38.5 33t20 54.5t5.5 76.5z
M279 543h-51l29 146h83z" />
    <glyph glyph-name="upsilontonos" unicode="&#x3cd;" horiz-adv-x="494" 
d="M230 61q24 0 45 7.5t38 24.5q30 30 42.5 82.5t12.5 110.5q0 59 -9.5 100.5t-22.5 80.5h78q12 -38 20.5 -87.5t8.5 -102.5q0 -31 -4 -63t-13.5 -63t-25 -59t-37.5 -50q-23 -23 -56 -37t-75 -14q-87 0 -130 41t-43 115v320h76v-312q0 -27 7.5 -45.5t20 -29t30 -15
t37.5 -4.5zM266 543h-51l29 146h83z" />
    <glyph glyph-name="omegatonos" unicode="&#x3ce;" horiz-adv-x="651" 
d="M364 265q0 -46 4 -84t14 -65t25 -41.5t38 -14.5q27 0 42 15q17 17 24 51.5t7 80.5q0 32 -4.5 67.5t-13 70t-21.5 66t-30 56.5h81q18 -27 30 -59.5t20 -67t11.5 -68.5t3.5 -64q0 -57 -11 -106.5t-40 -78.5q-15 -15 -39.5 -24t-52.5 -9q-52 0 -81 26.5t-45 74.5h-1
q-16 -48 -45 -74.5t-81 -26.5q-28 0 -52.5 9t-39.5 24q-29 29 -40 78.5t-11 106.5q0 30 3.5 64t11 68.5t19.5 67t30 59.5h82q-17 -25 -30 -56.5t-21.5 -66t-13 -70t-4.5 -67.5q0 -46 7 -80.5t24 -51.5q15 -15 42 -15q22 0 37.5 14.5t25.5 41.5t14 65t4 84v49h77v-49z
M353 543h-51l29 146h83z" />
    <glyph glyph-name="uni0400" unicode="&#x400;" horiz-adv-x="519" 
d="M84 0v689h383v-71h-301v-228h214v-71h-214v-248h301v-71h-383zM142 889h89l85 -145h-57z" />
    <glyph glyph-name="uni0401" unicode="&#x401;" horiz-adv-x="519" 
d="M84 0v689h383v-71h-301v-228h214v-71h-214v-248h301v-71h-383zM329 777v81h80v-81h-80zM154 777v81h80v-81h-80z" />
    <glyph glyph-name="uni0402" unicode="&#x402;" horiz-adv-x="684" 
d="M286 617v-207q29 21 63.5 33t74.5 12q105 0 158 -55t53 -176q0 -63 -15 -107.5t-42.5 -72t-67.5 -40t-89 -12.5q-21 0 -46 3l2 73q13 -2 24 -2h23q27 0 50 6t40.5 23.5t27 48t9.5 78.5q0 91 -33.5 126.5t-102.5 35.5q-17 0 -35 -5t-35 -13t-32 -18t-27 -20v-328h-80v617
h-181v72h440v-72h-179z" />
    <glyph glyph-name="uni0403" unicode="&#x403;" horiz-adv-x="488" 
d="M290 744h-57l85 145h89zM453 689v-71h-287v-618h-82v689h369z" />
    <glyph glyph-name="uni0404" unicode="&#x404;" horiz-adv-x="519" 
d="M329 62q37 0 71 6t74 17l6 -75q-35 -9 -70 -14.5t-82 -5.5q-80 0 -132 25t-82.5 71.5t-42.5 112t-12 145.5q0 81 12 146.5t42.5 112t83.5 71.5t134 25q43 0 78 -5t71 -14l-9 -76q-38 10 -70 16.5t-70 6.5q-53 0 -88 -16t-56 -46.5t-31 -74.5t-12 -100h254v-71h-255
q1 -62 9.5 -109.5t29.5 -80.5t56.5 -50t90.5 -17z" />
    <glyph glyph-name="uni0405" unicode="&#x405;" horiz-adv-x="488" 
d="M361 172q0 23 -7.5 38t-21.5 29q-24 24 -53 43.5t-59.5 38t-60.5 39t-57 47.5q-24 24 -39.5 53t-15.5 74q0 76 51.5 120.5t147.5 44.5q43 0 80.5 -3.5t74.5 -10.5l-6 -74q-38 7 -74 11.5t-76 4.5q-57 0 -86 -27.5t-29 -66.5q0 -22 6 -37t23 -32q24 -24 54 -44t62.5 -39.5
t64 -40.5t58.5 -48q24 -24 35.5 -51.5t11.5 -69.5t-16.5 -75.5t-46.5 -57t-71 -36t-89 -12.5q-19 0 -41.5 1t-44.5 3.5t-42.5 5.5t-35.5 6l6 75q42 -8 80 -13t71 -5q70 0 108 28.5t38 80.5z" />
    <glyph glyph-name="uni0406" unicode="&#x406;" horiz-adv-x="248" 
d="M84 0v689h82v-689h-82z" />
    <glyph glyph-name="uni0407" unicode="&#x407;" horiz-adv-x="248" 
d="M83 0v689h82v-689h-82zM171 777v81h80v-81h-80zM-4 777v81h80v-81h-80z" />
    <glyph glyph-name="uni0408" unicode="&#x408;" horiz-adv-x="363" 
d="M291 168q0 -53 -8 -87t-26 -54.5t-48.5 -28.5t-75.5 -8q-26 0 -61 2t-63 7l4 73q25 -5 54.5 -7.5t58.5 -2.5q27 0 43.5 4t25.5 15.5t12 31t3 49.5v527h81v-521z" />
    <glyph glyph-name="uni0409" unicode="&#x409;" horiz-adv-x="929" 
d="M713 395q52 0 87.5 -15t57 -41.5t30.5 -62.5t9 -79q0 -45 -9 -81.5t-29.5 -62t-53.5 -39.5t-80 -14h-251v615h-224q0 -44 -1.5 -97.5t-5 -110t-10 -112.5t-17.5 -105t-26.5 -88t-36.5 -60q-29 -29 -54 -36.5t-59 -9.5h-8v80q20 2 33 5.5t27 17.5q19 19 32 60.5t21 96
t12.5 116t6.5 121t2 111v85.5h390v-294h157zM816 197q0 58 -21 91.5t-83 33.5h-156v-251h159q32 0 51.5 10t30.5 27t15 40t4 49z" />
    <glyph glyph-name="uni040A" unicode="&#x40a;" horiz-adv-x="928" 
d="M712 395q52 0 87.5 -15t57 -41.5t30.5 -62.5t9 -79q0 -45 -9 -81.5t-29.5 -62t-53.5 -39.5t-80 -14h-251v319h-307v-319h-82v689h82v-299h307v299h82v-294h157zM815 197q0 58 -21 91.5t-83 33.5h-156v-251h159q32 0 51.5 10t30.5 27t15 40t4 49z" />
    <glyph glyph-name="uni040B" unicode="&#x40b;" horiz-adv-x="647" 
d="M286 617v-193q18 9 34.5 16t33 11.5t34.5 7t40 2.5q74 0 114.5 -39t40.5 -110v-312h-80v299q0 54 -22 72.5t-62 18.5q-42 0 -72 -12t-61 -29v-349h-80v617h-181v72h440v-72h-179z" />
    <glyph glyph-name="uni040C" unicode="&#x40c;" horiz-adv-x="544" 
d="M438 0l-186 335l-86 -95v-240h-82v689h82v-354l254 354h94l-211 -284l226 -405h-91zM309 744h-57l85 145h89z" />
    <glyph glyph-name="uni040D" unicode="&#x40d;" horiz-adv-x="634" 
d="M201 0h-117v689h78v-502q0 -28 -0.5 -62t-1.5 -55h2q10 29 20.5 59t23.5 58l224 502h120v-689h-78v504q0 28 0.5 58.5t1.5 51.5h-2q-8 -28 -20.5 -57t-23.5 -53zM185 889h89l85 -145h-57z" />
    <glyph glyph-name="uni040E" unicode="&#x40e;" horiz-adv-x="547" 
d="M284 140q-17 -38 -32 -65.5t-32.5 -45t-40 -26t-54.5 -8.5q-16 0 -30 1t-33 6l3 74q11 -3 25 -5t27 -2q21 0 36 8t26.5 23.5t22 38.5t22.5 52l8 19l-211 479h90l164 -382l165 382h86zM418 874q-15 -65 -49.5 -97.5t-94.5 -32.5q-62 0 -96 32.5t-49 97.5h63q8 -35 27 -54
t55 -19t54 19t26 54h64z" />
    <glyph glyph-name="uni040F" unicode="&#x40f;" horiz-adv-x="637" 
d="M164 689v-617h307v617h82v-689h-194v-95h-81v95h-194v689h80z" />
    <glyph glyph-name="uni0410" unicode="&#x410;" horiz-adv-x="549" 
d="M446 0l-43 152h-256l-44 -152h-84l203 689h105l203 -689h-84zM307 499q-4 14 -8 31t-8.5 35t-8 35t-6.5 31q-6 -28 -15.5 -65.5t-17.5 -66.5l-77 -276h217z" />
    <glyph glyph-name="uni0411" unicode="&#x411;" horiz-adv-x="541" 
d="M323 395q52 0 87.5 -15t57 -41.5t30.5 -62.5t9 -79q0 -45 -9 -81.5t-29.5 -62t-53.5 -39.5t-80 -14h-251v689h374v-67h-292v-227h157zM426 197q0 58 -21 91.5t-83 33.5h-156v-251h159q32 0 51.5 10t30.5 27t15 40t4 49z" />
    <glyph glyph-name="uni0412" unicode="&#x412;" horiz-adv-x="555" 
d="M501 193q0 -90 -42.5 -141.5t-132.5 -51.5h-242v689h240q45 0 76 -13.5t50.5 -36.5t28.5 -55t9 -69q0 -53 -20.5 -94t-58.5 -63q42 -17 67 -61t25 -104zM405 507q0 23 -4 43.5t-14 35.5t-27 24t-43 9h-152v-230h155q24 0 40.5 9.5t26 25.5t14 37.5t4.5 45.5zM418 193
q0 25 -4.5 47.5t-15 39.5t-28 27.5t-44.5 10.5h-161v-248h156q50 0 73.5 32t23.5 91z" />
    <glyph glyph-name="uni0413" unicode="&#x413;" horiz-adv-x="478" 
d="M453 689v-71h-287v-618h-82v689h369z" />
    <glyph glyph-name="uni0414" unicode="&#x414;" horiz-adv-x="631" 
d="M508 -95v95h-415v-95h-81v169h22q20 0 33 4t27 18q19 19 32 61t21 96.5t12.5 116.5t6.5 121.5t2 111.5v86h362v-615h59v-169h-81zM251 615q0 -40 -1 -88.5t-3.5 -99.5t-7.5 -103t-14 -98.5t-21.5 -86t-30.5 -65.5h277v541h-199z" />
    <glyph glyph-name="uni0415" unicode="&#x415;" horiz-adv-x="508" 
d="M84 0v689h383v-71h-301v-228h214v-71h-214v-248h301v-71h-383z" />
    <glyph glyph-name="uni0416" unicode="&#x416;" horiz-adv-x="765" 
d="M422 391h34l184 298h95l-214 -336l229 -353h-95l-202 318h-31v-318h-79v318h-31l-202 -318h-95l229 353l-214 336h95l184 -298h34v298h79v-298z" />
    <glyph glyph-name="uni0417" unicode="&#x417;" horiz-adv-x="496" 
d="M450 205q0 -57 -19 -97.5t-53 -66.5t-82 -38.5t-106 -12.5q-34 0 -73.5 2t-74.5 7l3 72q43 -6 78.5 -7.5t62.5 -1.5q41 0 75 7t58 23.5t37 44t13 68.5q0 55 -24.5 84.5t-89.5 29.5h-111v71h96q33 0 55 8t34.5 23t17.5 36t5 46q0 67 -33.5 96.5t-115.5 29.5
q-30 0 -67.5 -2.5t-84.5 -9.5l-3 70q48 7 88.5 9.5t61.5 2.5q125 0 180.5 -46.5t55.5 -146.5q0 -51 -19 -84.5t-55 -58.5v-2q44 -22 67 -60.5t23 -95.5z" />
    <glyph glyph-name="uni0418" unicode="&#x418;" horiz-adv-x="634" 
d="M201 0h-117v689h78v-502q0 -28 -0.5 -62t-1.5 -55h2q10 29 20.5 59t23.5 58l224 502h120v-689h-78v504q0 28 0.5 58.5t1.5 51.5h-2q-8 -28 -20.5 -57t-23.5 -53z" />
    <glyph glyph-name="uni0419" unicode="&#x419;" horiz-adv-x="634" 
d="M201 0h-117v689h78v-502q0 -28 -0.5 -62t-1.5 -55h2q10 29 20.5 59t23.5 58l224 502h120v-689h-78v504q0 28 0.5 58.5t1.5 51.5h-2q-8 -28 -20.5 -57t-23.5 -53zM470 874q-15 -65 -49.5 -97.5t-94.5 -32.5q-62 0 -96 32.5t-49 97.5h63q8 -35 27 -54t55 -19t54 19t26 54
h64z" />
    <glyph glyph-name="uni041A" unicode="&#x41a;" horiz-adv-x="544" 
d="M438 0l-186 335l-86 -95v-240h-82v689h82v-354l254 354h94l-211 -284l226 -405h-91z" />
    <glyph glyph-name="uni041B" unicode="&#x41b;" horiz-adv-x="641" 
d="M32 -4v80q20 2 33 5.5t27 17.5q19 19 32 60.5t21 96t12.5 116t6.5 121t2 111v85.5h390v-689h-82v615h-224q0 -44 -1.5 -97.5t-5 -110t-10 -112.5t-17.5 -105t-26.5 -88t-36.5 -60q-29 -29 -54 -36.5t-59 -9.5h-8z" />
    <glyph glyph-name="uni041C" unicode="&#x41c;" horiz-adv-x="806" 
d="M644 0v627q-8 -35 -17 -69t-17 -60l-160 -498h-97l-158 498q-8 25 -16.5 58t-17.5 71v-627h-77v689h130l158 -499q10 -32 17.5 -64.5t12.5 -60.5q5 28 12 60.5t18 64.5l160 499h130v-689h-78z" />
    <glyph glyph-name="uni041D" unicode="&#x41d;" horiz-adv-x="638" 
d="M473 0v319h-307v-319h-82v689h82v-299h307v299h80v-689h-80z" />
    <glyph glyph-name="uni041E" unicode="&#x41e;" horiz-adv-x="624" 
d="M572 343q0 -80 -11 -145.5t-40 -111.5t-79.5 -71t-129.5 -25q-78 0 -128.5 25t-80 71.5t-40.5 111.5t-11 146q0 80 11 145.5t40.5 112t80 72t128.5 25.5q79 0 129.5 -25.5t79.5 -72t40 -112t11 -146.5zM488 344q0 67 -7 120t-26.5 89t-54 55t-88.5 19t-88.5 -19t-54 -55
t-26.5 -89t-7 -120q0 -68 7 -120t26.5 -88t54 -54.5t88.5 -18.5t88.5 18.5t54 54.5t26.5 88t7 120z" />
    <glyph glyph-name="uni041F" unicode="&#x41f;" horiz-adv-x="638" 
d="M473 0v617h-307v-617h-82v689h469v-689h-80z" />
    <glyph glyph-name="uni0420" unicode="&#x420;" horiz-adv-x="529" 
d="M497 481q0 -42 -7.5 -79.5t-26.5 -66t-51.5 -45t-82.5 -16.5h-164v-274h-81v689h244q50 0 83 -17t52 -45.5t26.5 -66.5t7.5 -79zM417 481q0 27 -3.5 51.5t-13.5 43.5t-28 30t-48 11h-159v-272h159q31 0 49 11t28 29.5t13 43.5t3 52z" />
    <glyph glyph-name="uni0421" unicode="&#x421;" horiz-adv-x="519" 
d="M329 62q37 0 71 6t74 17l6 -75q-35 -9 -70 -14.5t-82 -5.5q-80 0 -132 25t-82.5 71.5t-42.5 112t-12 145.5q0 81 12 146.5t42.5 112t83.5 71.5t134 25q43 0 78 -5t71 -14l-9 -76q-38 10 -70 16.5t-70 6.5q-58 0 -94.5 -19t-57.5 -55.5t-28.5 -89t-7.5 -119.5t7.5 -119.5
t28 -88.5t56.5 -55t94 -19z" />
    <glyph glyph-name="uni0422" unicode="&#x422;" horiz-adv-x="490" 
d="M286 617v-617h-80v617h-181v72h440v-72h-179z" />
    <glyph glyph-name="uni0423" unicode="&#x423;" horiz-adv-x="547" 
d="M284 140q-17 -38 -32 -65.5t-32.5 -45t-40 -26t-54.5 -8.5q-16 0 -30 1t-33 6l3 74q11 -3 25 -5t27 -2q21 0 36 8t26.5 23.5t22 38.5t22.5 52l8 19l-211 479h90l164 -382l165 382h86z" />
    <glyph glyph-name="uni0424" unicode="&#x424;" horiz-adv-x="719" 
d="M55 347q0 68 18.5 118t52.5 84t82.5 52t109.5 22v66h81v-66q61 -4 110 -22t83.5 -52t53 -84t18.5 -118t-18.5 -117.5t-53 -83.5t-83.5 -52t-110 -21v-73h-81v73q-61 4 -109.5 22t-82.5 51.5t-52.5 83.5t-18.5 117zM583 348q0 56 -14 93.5t-38.5 60.5t-58.5 34t-73 13
v-403q39 3 73 13.5t58.5 34t38.5 61t14 93.5zM136 348q0 -56 13.5 -93.5t38 -60.5t58 -33.5t72.5 -13.5v402q-39 -3 -72.5 -13.5t-58 -34t-38 -61t-13.5 -92.5z" />
    <glyph glyph-name="uni0425" unicode="&#x425;" horiz-adv-x="567" 
d="M449 0l-164 279l-162 -279h-94l208 345l-196 344h94l151 -280l152 280h93l-197 -344l208 -345h-93z" />
    <glyph glyph-name="uni0426" unicode="&#x426;" horiz-adv-x="660" 
d="M553 689v-615h65v-169h-81v95h-453v689h82v-615h307v615h80z" />
    <glyph glyph-name="uni0427" unicode="&#x427;" horiz-adv-x="598" 
d="M432 0v294h-2q-19 -11 -44 -18t-50 -11.5t-47 -6.5t-35 -2q-32 0 -67.5 6.5t-65.5 24t-49.5 47.5t-19.5 77v278h81v-278q0 -24 12.5 -39.5t32 -24.5t44.5 -13t49 -4q57 0 96 14.5t65 33.5v311h81v-689h-81z" />
    <glyph glyph-name="uni0428" unicode="&#x428;" horiz-adv-x="861" 
d="M472 689v-615h223v615h81v-689h-692v689h82v-615h224v615h82z" />
    <glyph glyph-name="uni0429" unicode="&#x429;" horiz-adv-x="884" 
d="M472 689v-615h223v615h81v-615h65v-169h-81v95h-676v689h82v-615h224v615h82z" />
    <glyph glyph-name="uni042A" unicode="&#x42a;" horiz-adv-x="603" 
d="M387 395q52 0 87.5 -15t57 -41.5t30.5 -62.5t9 -79q0 -45 -9 -81.5t-29.5 -62t-53.5 -39.5t-80 -14h-251v615h-114v74h196v-294h157zM490 197q0 58 -21 91.5t-83 33.5h-156v-251h159q32 0 51.5 10t30.5 27t15 40t4 49z" />
    <glyph glyph-name="uni042B" unicode="&#x42b;" horiz-adv-x="763" 
d="M323 395q52 0 87.5 -15t57 -41.5t30.5 -62.5t9 -79q0 -45 -9 -81.5t-29.5 -62t-53.5 -39.5t-80 -14h-251v689h82v-294h157zM426 197q0 58 -21 91.5t-83 33.5h-156v-251h159q32 0 51.5 10t30.5 27t15 40t4 49zM597 0v689h82v-689h-82z" />
    <glyph glyph-name="uni042C" unicode="&#x42c;" horiz-adv-x="539" 
d="M323 395q52 0 87.5 -15t57 -41.5t30.5 -62.5t9 -79q0 -45 -9 -81.5t-29.5 -62t-53.5 -39.5t-80 -14h-251v689h82v-294h157zM426 197q0 58 -21 91.5t-83 33.5h-156v-251h159q32 0 51.5 10t30.5 27t15 40t4 49z" />
    <glyph glyph-name="uni042D" unicode="&#x42d;" horiz-adv-x="524" 
d="M127 390h253q-2 56 -12 100t-31 74.5t-56 46.5t-88 16q-38 0 -70 -6.5t-70 -16.5l-9 76q36 9 71 14t78 5q81 0 134 -25t83.5 -71.5t42.5 -112t12 -146.5q0 -80 -12 -145.5t-42.5 -112t-82.5 -71.5t-132 -25q-47 0 -82 5.5t-70 14.5l6 75q40 -11 74 -17t71 -6
q55 0 90.5 17t56.5 50t29.5 80.5t9.5 109.5h-254v71z" />
    <glyph glyph-name="uni042E" unicode="&#x42e;" horiz-adv-x="810" 
d="M84 0v689h82v-305h108q2 72 14.5 130t39.5 99t72 63.5t113 22.5q73 0 119.5 -25.5t73.5 -72t37 -112t10 -146.5q0 -80 -10 -145.5t-37 -111.5t-73.5 -71t-119.5 -25q-69 0 -114 22.5t-72.5 64.5t-39.5 101t-14 133h-107v-311h-82zM669 344q0 67 -6 120t-23.5 89t-48 55
t-78.5 19t-78.5 -19t-48 -55t-23.5 -89t-6 -120q0 -68 6 -120t23.5 -88t48 -54.5t78.5 -18.5t78.5 18.5t48 54.5t23.5 88t6 120z" />
    <glyph glyph-name="uni042F" unicode="&#x42f;" horiz-adv-x="546" 
d="M47 0l138 297q-69 13 -101.5 62.5t-32.5 137.5q0 43 9 78.5t29.5 61t53.5 39t81 13.5h238v-689h-81v291h-116l-132 -291h-86zM132 496q0 -30 3.5 -54.5t15 -42t32 -27t54.5 -9.5h144v254h-157q-29 0 -46.5 -9.5t-28 -25.5t-14 -38.5t-3.5 -47.5z" />
    <glyph glyph-name="uni0430" unicode="&#x430;" horiz-adv-x="453" 
d="M327 0l-11 34q-26 -16 -62 -30t-79 -14q-63 0 -100 33.5t-37 105.5q0 53 23 82t60 43.5t83 17.5t91 5h16v66q0 38 -21 54t-63 16q-16 0 -35.5 -2t-39.5 -5.5t-38.5 -8t-32.5 -9.5l-5 70q31 7 70.5 13t87.5 6q72 0 113 -28t41 -94v-355h-61zM311 220h-14q-96 0 -138 -21
t-42 -71q0 -33 15.5 -52.5t50.5 -19.5q36 0 69 10t59 24v130z" />
    <glyph glyph-name="uni0431" unicode="&#x431;" horiz-adv-x="498" 
d="M49 250q0 43 2.5 93.5t11 99.5t25.5 92.5t46 73.5q31 31 64.5 44.5t68.5 22.5t70 19.5t68 35.5v-72q-23 -20 -50.5 -28.5t-57 -15.5t-58 -18t-52.5 -35q-21 -21 -32 -53t-16 -74h1q13 16 44.5 30.5t65.5 14.5q98 0 148.5 -56.5t50.5 -188.5t-50.5 -188.5t-148.5 -56.5
q-103 0 -152 62t-49 198zM371 235q0 53 -8.5 87t-24.5 54t-38 27.5t-50 7.5t-50.5 -7.5t-38.5 -27.5t-25 -54t-9 -87q0 -51 9 -85t25 -54t38.5 -28t50.5 -8t50 7.5t38 27t24.5 53.5t8.5 87z" />
    <glyph glyph-name="uni0432" unicode="&#x432;" horiz-adv-x="468" 
d="M424 137q0 -60 -35 -98.5t-107 -38.5h-213v467h218q68 0 98 -34.5t30 -90.5q0 -25 -14 -52.5t-37 -42.5v-3q26 -13 43 -44.5t17 -62.5zM340 342q0 62 -59 62h-136v-128h131q33 0 48.5 17.5t15.5 48.5zM348 137q0 32 -16 51t-53 19h-134v-140h131q38 0 55 17.5t17 52.5z
" />
    <glyph glyph-name="uni0433" unicode="&#x433;" horiz-adv-x="393" 
d="M376 467v-68h-231v-399h-76v467h307z" />
    <glyph glyph-name="uni0434" unicode="&#x434;" horiz-adv-x="512" 
d="M39 67q15 1 24.5 3t18.5 11q18 18 28 65.5t14 105t4.5 116t0.5 100.5h302v-401h52v-162h-76v95h-313v-95h-76v162h21zM202 400q0 -40 -2 -87t-7 -92.5t-14.5 -86t-25.5 -67.5h205v333h-156z" />
    <glyph glyph-name="uni0435" unicode="&#x435;" horiz-adv-x="460" 
d="M411 219h-283q0 -48 9.5 -79.5t26.5 -50t40.5 -25.5t50.5 -7q39 0 71 4.5t66 12.5l4 -69q-33 -6 -68.5 -10t-73.5 -4q-50 0 -88.5 13t-64.5 42t-39 75t-13 111q0 130 48 187t148 57q90 0 128 -48t38 -148v-61zM334 278q0 74 -21 104t-70 30q-55 0 -80.5 -29.5
t-31.5 -104.5h203z" />
    <glyph glyph-name="uni0436" unicode="&#x436;" horiz-adv-x="598" 
d="M337 274h24l132 193h90l-158 -225l167 -242h-90l-139 205h-26v-205h-76v205h-26l-139 -205h-90l167 242l-158 225h90l132 -193h24v193h76v-193z" />
    <glyph glyph-name="uni0437" unicode="&#x437;" horiz-adv-x="437" 
d="M300 243q16 -6 32 -16t29 -25t20.5 -34.5t7.5 -43.5q0 -30 -11 -52t-27 -38q-29 -29 -72.5 -36.5t-87.5 -7.5q-20 0 -42.5 1.5t-43.5 4t-39.5 6t-30.5 6.5l6 68q15 -4 35.5 -7.5t41 -6t39.5 -4t31 -1.5q25 0 47.5 3t39.5 11t27 22.5t10 37.5q0 35 -32.5 55.5t-101.5 20.5
h-67v66h71q35 0 56 8t32 20t14 25.5t3 24.5q-1 34 -27 46.5t-67 12.5q-15 0 -32 -1t-34.5 -2.5t-33.5 -4t-28 -4.5l-4 67q12 2 28 4.5t34 4t35 2.5t31 1q49 0 86 -10t61 -34q14 -14 22 -36t8 -44q0 -44 -20 -68t-46 -40v-2z" />
    <glyph glyph-name="uni0438" unicode="&#x438;" horiz-adv-x="504" 
d="M334 467h101v-467h-74l1 322q0 41 3 74h-2q-6 -18 -14.5 -39t-16.5 -35l-167 -322h-96v467h75l-1 -315q0 -21 -0.5 -35t-2.5 -41h2q8 24 15 42.5t14 33.5z" />
    <glyph glyph-name="uni0439" unicode="&#x439;" horiz-adv-x="504" 
d="M334 467h101v-467h-74l1 322q0 41 3 74h-2q-6 -18 -14.5 -39t-16.5 -35l-167 -322h-96v467h75l-1 -315q0 -21 -0.5 -35t-2.5 -41h2q8 24 15 42.5t14 33.5zM405 669q-15 -65 -49.5 -97.5t-94.5 -32.5q-62 0 -96 32.5t-49 97.5h63q8 -35 27 -54t55 -19t54 19t26 54h64z" />
    <glyph glyph-name="uni043A" unicode="&#x43a;" horiz-adv-x="439" 
d="M346 0l-140 229l-60 -60v-169h-77v467h77v-223q10 17 23.5 35.5t25.5 35.5l118 152h90l-147 -178l177 -289h-87z" />
    <glyph glyph-name="uni043B" unicode="&#x43b;" horiz-adv-x="503" 
d="M21 -4v69q15 1 25.5 4t19.5 12q18 18 27.5 65.5t13.5 105t4 116v100.5h323v-468h-76v400h-169q0 -45 -2 -99.5t-8.5 -106.5t-19 -95.5t-34.5 -65.5q-23 -23 -49 -30t-48 -7h-7z" />
    <glyph glyph-name="uni043C" unicode="&#x43c;" horiz-adv-x="636" 
d="M271 0l-104 331q-1 4 -4.5 16.5t-8 26.5t-8.5 27.5t-5 21.5h-2q0 -6 0.5 -20t1 -29t0.5 -28v-17l1 -329h-73v467h129l102 -335q4 -11 10 -34t10 -42h2q3 19 9.5 42t8.5 34l100 335h127v-467h-73l1 329v17t0.5 28t1 29t0.5 20h-2q-2 -8 -5 -21.5t-7 -27.5t-7.5 -26.5
t-4.5 -16.5l-106 -331h-94z" />
    <glyph glyph-name="uni043D" unicode="&#x43d;" horiz-adv-x="500" 
d="M355 0v205h-210v-205h-76v467h76v-193h210v193h76v-467h-76z" />
    <glyph glyph-name="uni043E" unicode="&#x43e;" horiz-adv-x="510" 
d="M461 233q0 -131 -52 -187t-154 -56t-154 56t-52 187q0 132 52 188t154 56t154 -56t52 -188zM380 233q0 44 -5.5 77t-20 55.5t-38.5 33.5t-61 11q-38 0 -62 -11t-38 -33.5t-19.5 -55.5t-5.5 -77t5.5 -76.5t19.5 -54.5t38 -33t62 -11q37 0 61 11t38.5 33t20 54.5t5.5 76.5z
" />
    <glyph glyph-name="uni043F" unicode="&#x43f;" horiz-adv-x="502" 
d="M433 0h-76v400h-212v-400h-76v467h364v-467z" />
    <glyph glyph-name="uni0440" unicode="&#x440;" 
d="M450 239q0 -56 -9.5 -102t-30.5 -78.5t-54 -50.5t-80 -18q-38 0 -69.5 10t-60.5 27v-259h-77v699h62l8 -34q24 18 58.5 31t79.5 13q88 0 130.5 -55.5t42.5 -182.5zM370 239q0 51 -6.5 84t-20 52.5t-33 27t-44.5 7.5q-37 0 -67 -13.5t-53 -27.5v-273q27 -17 57 -27.5
t67 -10.5q51 0 75.5 42.5t24.5 138.5z" />
    <glyph glyph-name="uni0441" unicode="&#x441;" horiz-adv-x="411" 
d="M372 0q-26 -4 -59.5 -6.5t-56.5 -2.5q-51 0 -89.5 13t-64.5 41.5t-39.5 74.5t-13.5 112q0 132 53 188t154 56q26 0 57.5 -2.5t58.5 -7.5l-5 -69q-27 5 -55.5 8.5t-54.5 3.5q-37 0 -61.5 -11t-39 -32.5t-20.5 -54.5t-6 -77t6 -77t20.5 -55t39 -33.5t61.5 -11.5q27 0 54 3
t56 8z" />
    <glyph glyph-name="uni0442" unicode="&#x442;" horiz-adv-x="416" 
d="M246 399v-399h-76v399h-152v68h380v-68h-152z" />
    <glyph glyph-name="uni0443" unicode="&#x443;" horiz-adv-x="440" 
d="M22 467h85l118 -385l116 385h77l-174 -539q-15 -47 -30.5 -78.5t-35 -50.5t-44.5 -27t-61 -8q-17 0 -33.5 2t-27.5 5l6 68q22 -6 52 -6q21 0 36.5 7.5t28.5 25.5t24.5 49t25.5 78z" />
    <glyph glyph-name="uni0444" unicode="&#x444;" horiz-adv-x="688" 
d="M306 -232v258h-2q-19 -16 -42.5 -26t-54.5 -10q-82 0 -125 59t-43 186q0 126 43 184t125 58q31 0 54 -10t43 -26h2v279h76v-279h2q19 16 42.5 26t54.5 10q82 0 125 -58t43 -184q0 -127 -43 -186t-125 -59q-31 0 -55 10t-42 26h-2v-258h-76zM382 100q18 -20 40 -31.5
t50 -11.5q47 0 73 40t26 138q0 49 -6.5 82.5t-19.5 54t-31 29.5t-42 9q-53 0 -90 -42v-268zM306 368q-37 42 -90 42q-24 0 -42 -9t-31 -29.5t-19.5 -54t-6.5 -82.5q0 -98 26 -138t73 -40q28 0 50 11.5t40 31.5v268z" />
    <glyph glyph-name="uni0445" unicode="&#x445;" horiz-adv-x="436" 
d="M264 233l145 -233h-86l-105 178l-105 -178h-86l146 233l-140 234h85l100 -177l102 177h84z" />
    <glyph glyph-name="uni0446" unicode="&#x446;" horiz-adv-x="521" 
d="M419 0h-350v467h76v-400h212v400h76v-400h62v-162h-76v95z" />
    <glyph glyph-name="uni0447" unicode="&#x447;" horiz-adv-x="502" 
d="M357 0v164h-2q-14 -7 -32.5 -11.5t-38 -7.5t-39 -4.5t-35.5 -1.5q-30 0 -57.5 7.5t-48.5 22.5t-33 37.5t-12 52.5v208h76v-202q0 -36 25 -47.5t66 -11.5q45 0 76 8.5t55 19.5v233h76v-467h-76z" />
    <glyph glyph-name="uni0448" unicode="&#x448;" horiz-adv-x="656" 
d="M587 467v-467h-518v467h76v-400h145v400h76v-400h145v400h76z" />
    <glyph glyph-name="uni0449" unicode="&#x449;" horiz-adv-x="675" 
d="M587 467v-400h62v-162h-76v95h-504v467h76v-400h145v400h76v-400h145v400h76z" />
    <glyph glyph-name="uni044A" unicode="&#x44a;" horiz-adv-x="528" 
d="M349 309q36 0 63 -12t45.5 -33t27.5 -49t9 -61q0 -66 -34 -110t-106 -44h-228v397h-108v70h185l-1 -1v-157h147zM202 239v-169h141q46 0 60.5 21.5t14.5 63.5t-17.5 63t-57.5 21h-141z" />
    <glyph glyph-name="uni044B" unicode="&#x44b;" horiz-adv-x="669" 
d="M292 309q36 0 63 -12t45.5 -33t27.5 -49t9 -61q0 -66 -34 -110t-106 -44h-228v467h76v-158h147zM145 239v-169h141q46 0 60.5 21.5t14.5 63.5t-17.5 63t-57.5 21h-141zM523 0v467h77v-467h-77z" />
    <glyph glyph-name="uni044C" unicode="&#x44c;" horiz-adv-x="471" 
d="M292 309q36 0 63 -12t45.5 -33t27.5 -49t9 -61q0 -66 -34 -110t-106 -44h-228v467h76v-158h147zM145 239v-169h141q46 0 60.5 21.5t14.5 63.5t-17.5 63t-57.5 21h-141z" />
    <glyph glyph-name="uni044D" unicode="&#x44d;" horiz-adv-x="422" 
d="M108 274h187q-2 26 -9 50.5t-22.5 43.5t-41 30.5t-64.5 11.5q-23 0 -54.5 -2.5t-57.5 -7.5l-3 66q30 7 58.5 9t54.5 2q54 0 94.5 -12.5t67.5 -41t41 -75.5t14 -115t-14 -114.5t-41.5 -75t-68.5 -41t-94 -12.5q-25 0 -56.5 3t-59.5 9l3 67q30 -5 62 -8t58 -3q28 0 51.5 7
t40.5 23.5t28 45t14 71.5h-188v69z" />
    <glyph glyph-name="uni044E" unicode="&#x44e;" horiz-adv-x="631" 
d="M582 233q0 -131 -44.5 -187t-131.5 -56q-83 0 -126.5 49.5t-47.5 165.5h-87v-205h-76v467h76v-193h88q6 109 49 156t124 47q87 0 131.5 -56t44.5 -188zM501 233q0 88 -19.5 132.5t-75.5 44.5q-57 0 -76 -44.5t-19 -132.5t19 -131.5t76 -43.5q56 0 75.5 44t19.5 131z" />
    <glyph glyph-name="uni044F" unicode="&#x44f;" horiz-adv-x="471" 
d="M39 0l102 188q-25 6 -42.5 19t-28.5 31.5t-16 41t-5 47.5q0 29 7 54.5t22 44.5t39.5 30t60.5 11h224v-467h-76v183h-105l-98 -183h-84zM128 328q0 -35 13 -57t49 -22h136v155h-137q-35 0 -48 -20.5t-13 -55.5z" />
    <glyph glyph-name="uni0450" unicode="&#x450;" horiz-adv-x="460" 
d="M411 219h-283q0 -48 9.5 -79.5t26.5 -50t40.5 -25.5t50.5 -7q39 0 71 4.5t66 12.5l4 -69q-33 -6 -68.5 -10t-73.5 -4q-50 0 -88.5 13t-64.5 42t-39 75t-13 111q0 130 48 187t148 57q90 0 128 -48t38 -148v-61zM334 278q0 74 -21 104t-70 30q-55 0 -80.5 -29.5
t-31.5 -104.5h203zM101 684h89l85 -145h-57z" />
    <glyph glyph-name="uni0451" unicode="&#x451;" horiz-adv-x="460" 
d="M293 572v81h80v-81h-80zM118 572v81h80v-81h-80zM411 219h-283q0 -48 9.5 -79.5t26.5 -50t40.5 -25.5t50.5 -7q39 0 71 4.5t66 12.5l4 -69q-33 -6 -68.5 -10t-73.5 -4q-50 0 -88.5 13t-64.5 42t-39 75t-13 111q0 130 48 187t148 57q90 0 128 -48t38 -148v-61zM334 278
q0 74 -21 104t-70 30q-55 0 -80.5 -29.5t-31.5 -104.5h203z" />
    <glyph glyph-name="uni0452" unicode="&#x452;" 
d="M322 -236q-17 0 -38 2t-38 5l4 71q15 -3 32 -5t31 -2q22 0 33.5 14.5t11.5 57.5v433q0 35 -20.5 52.5t-52.5 17.5q-34 0 -69.5 -9.5t-69.5 -29.5v-371h-77v563h-71v65h71v92h77v-92h173v-65h-173v-126q38 21 74.5 30.5t78.5 9.5q28 0 53 -7.5t43.5 -23t29 -40.5t10.5 -61
v-431q0 -43 -6.5 -72t-20 -46t-35 -24.5t-51.5 -7.5z" />
    <glyph glyph-name="uni0453" unicode="&#x453;" horiz-adv-x="393" 
d="M376 467v-68h-231v-399h-76v467h307zM245 539h-57l85 145h89z" />
    <glyph glyph-name="uni0454" unicode="&#x454;" horiz-adv-x="422" 
d="M296 205h-188q3 -43 14 -71.5t28 -45t40.5 -23.5t51.5 -7q26 0 58 3t62 8l3 -67q-28 -6 -59.5 -9t-56.5 -3q-53 0 -94 12.5t-68.5 41t-41.5 75t-14 114.5t14 115t41 75.5t67.5 41t94.5 12.5q26 0 54.5 -2t58.5 -9l-3 -66q-26 5 -57.5 7.5t-54.5 2.5q-39 0 -64.5 -11.5
t-41 -30.5t-22.5 -43.5t-9 -50.5h187v-69z" />
    <glyph glyph-name="uni0455" unicode="&#x455;" horiz-adv-x="395" 
d="M356 121q0 -33 -13.5 -57.5t-37.5 -40.5t-56.5 -24t-69.5 -8q-10 0 -25 1t-31.5 3t-33.5 4.5t-30 6.5l6 68q31 -8 63 -12.5t54 -4.5q54 0 76.5 16.5t22.5 43.5q0 13 -4 21t-12 16q-16 16 -39.5 29t-49.5 26t-51.5 28t-45.5 35q-16 16 -25.5 35t-9.5 50t12.5 53.5
t34.5 37.5t51.5 22.5t64.5 7.5q28 0 59.5 -3.5t60.5 -8.5l-6 -70q-29 7 -61 11t-58 4q-45 0 -63 -16t-18 -39q0 -12 3.5 -20t11.5 -16q13 -14 37 -27t50.5 -27t52.5 -29t43 -32q19 -19 28 -37t9 -47z" />
    <glyph glyph-name="uni0456" unicode="&#x456;" horiz-adv-x="220" 
d="M69 568v93h82v-93h-82zM72 0v467h77v-467h-77z" />
    <glyph glyph-name="uni0457" unicode="&#x457;" horiz-adv-x="222" 
d="M158 572v81h80v-81h-80zM-17 572v81h80v-81h-80zM73 0v467h77v-467h-77z" />
    <glyph glyph-name="uni0458" unicode="&#x458;" horiz-adv-x="221" 
d="M69 568v93h82v-93h-82zM36 -236q-17 0 -38 2t-38 5l4 71q15 -3 32 -5t31 -2q22 0 33.5 14.5t11.5 57.5v560h77v-553q0 -43 -6.5 -72t-20 -46t-35 -24.5t-51.5 -7.5z" />
    <glyph glyph-name="uni0459" unicode="&#x459;" horiz-adv-x="760" 
d="M581 309q36 0 63 -12t45.5 -33t27.5 -49t9 -61q0 -66 -34 -110t-106 -44h-228v400h-169q0 -45 -2 -99.5t-8.5 -106.5t-19 -95.5t-34.5 -65.5q-23 -23 -49 -30t-48 -7h-7v69q15 1 25.5 4t19.5 12q18 18 27.5 65.5t13.5 105t4 116v100.5h323v-159h147zM434 239v-169h141
q46 0 60.5 21.5t14.5 63.5t-17.5 63t-57.5 21h-141z" />
    <glyph glyph-name="uni045A" unicode="&#x45a;" horiz-adv-x="756" 
d="M578 309q36 0 63 -12t45.5 -33t27.5 -49t9 -61q0 -66 -34 -110t-106 -44h-228v205h-210v-205h-76v467h76v-193h210v193h76v-158h147zM431 239v-169h141q46 0 60.5 21.5t14.5 63.5t-17.5 63t-57.5 21h-141z" />
    <glyph glyph-name="uni045B" unicode="&#x45b;" 
d="M435 0h-77v340q0 35 -20.5 52.5t-52.5 17.5q-34 0 -69.5 -9.5t-69.5 -29.5v-371h-77v563h-71v65h71v92h77v-92h173v-65h-173v-126q38 21 74.5 30.5t78.5 9.5q28 0 53 -7.5t43.5 -23t29 -40.5t10.5 -61v-345z" />
    <glyph glyph-name="uni045C" unicode="&#x45c;" horiz-adv-x="439" 
d="M346 0l-140 229l-60 -60v-169h-77v467h77v-223q10 17 23.5 35.5t25.5 35.5l118 152h90l-147 -178l177 -289h-87zM260 539h-57l85 145h89z" />
    <glyph glyph-name="uni045D" unicode="&#x45d;" horiz-adv-x="504" 
d="M334 467h101v-467h-74l1 322q0 41 3 74h-2q-6 -18 -14.5 -39t-16.5 -35l-167 -322h-96v467h75l-1 -315q0 -21 -0.5 -35t-2.5 -41h2q8 24 15 42.5t14 33.5zM125 684h89l85 -145h-57z" />
    <glyph glyph-name="uni045E" unicode="&#x45e;" horiz-adv-x="440" 
d="M22 467h85l118 -385l116 385h77l-174 -539q-15 -47 -30.5 -78.5t-35 -50.5t-44.5 -27t-61 -8q-17 0 -33.5 2t-27.5 5l6 68q22 -6 52 -6q21 0 36.5 7.5t28.5 25.5t24.5 49t25.5 78zM363 669q-15 -65 -49.5 -97.5t-94.5 -32.5q-62 0 -96 32.5t-49 97.5h63q8 -35 27 -54
t55 -19t54 19t26 54h64z" />
    <glyph glyph-name="uni045F" unicode="&#x45f;" horiz-adv-x="502" 
d="M69 467h76v-400h212v400h76v-467h-141v-105h-76v105h-147v467z" />
    <glyph glyph-name="uni0490" unicode="&#x490;" horiz-adv-x="479" 
d="M372 784h81v-166h-287v-618h-82v689h288v95z" />
    <glyph glyph-name="uni0491" unicode="&#x491;" horiz-adv-x="393" 
d="M299 467v93h77v-162l-2 1h-229v-399h-76v467h230z" />
    <glyph glyph-name="Ddotbelow" unicode="&#x1e0c;" horiz-adv-x="612" 
d="M553 345q0 -105 -18 -179t-61 -115q-18 -17 -37 -27.5t-41.5 -15.5t-49.5 -6.5t-60 -1.5h-202v689h202q33 0 60 -1.5t49.5 -7t41.5 -15.5t37 -27q42 -42 60.5 -115t18.5 -178zM468 345q0 90 -11 149t-41 88q-26 25 -60.5 30t-79.5 5h-110v-545h110q43 0 78.5 5.5
t60.5 28.5q31 31 42 90.5t11 148.5zM231 -169v86h76v-86h-76z" />
    <glyph glyph-name="ddotbelow" unicode="&#x1e0d;" 
d="M49 228q0 56 9.5 102t30.5 78.5t54 50.5t80 18q37 0 69 -10t61 -27v280h77v-720h-63l-7 34q-25 -17 -59 -30.5t-77 -13.5q-90 0 -132.5 56t-42.5 182zM129 228q0 -51 6.5 -84.5t19.5 -52.5t32.5 -26.5t45.5 -7.5q37 0 67 13.5t53 27.5v273q-27 17 -57 27.5t-67 10.5
q-51 0 -75.5 -42.5t-24.5 -138.5zM228 -169v86h76v-86h-76z" />
    <glyph glyph-name="Dcedilla" unicode="&#x1e10;" horiz-adv-x="612" 
d="M294 -119q0 18 -22 23.5t-50 8.5l10 44q63 -3 91 -21t28 -54q0 -35 -23.5 -55.5t-68.5 -20.5q-11 0 -32.5 1.5t-36.5 4.5l2 48q13 -2 32.5 -4t32.5 -2q37 0 37 27zM553 345q0 -105 -18 -179t-61 -115q-18 -17 -37 -27.5t-41.5 -15.5t-49.5 -6.5t-60 -1.5h-202v689h202
q33 0 60 -1.5t49.5 -7t41.5 -15.5t37 -27q42 -42 60.5 -115t18.5 -178zM468 345q0 90 -11 149t-41 88q-26 25 -60.5 30t-79.5 5h-110v-545h110q43 0 78.5 5.5t60.5 28.5q31 31 42 90.5t11 148.5z" />
    <glyph glyph-name="dcedilla" unicode="&#x1e11;" 
d="M274 -119q0 18 -22 23.5t-50 8.5l10 44q63 -3 91 -21t28 -54q0 -35 -23.5 -55.5t-68.5 -20.5q-11 0 -32.5 1.5t-36.5 4.5l2 48q13 -2 32.5 -4t32.5 -2q37 0 37 27zM49 228q0 56 9.5 102t30.5 78.5t54 50.5t80 18q37 0 69 -10t61 -27v280h77v-720h-63l-7 34
q-25 -17 -59 -30.5t-77 -13.5q-90 0 -132.5 56t-42.5 182zM129 228q0 -51 6.5 -84.5t19.5 -52.5t32.5 -26.5t45.5 -7.5q37 0 67 13.5t53 27.5v273q-27 17 -57 27.5t-67 10.5q-51 0 -75.5 -42.5t-24.5 -138.5z" />
    <glyph glyph-name="Hdotbelow" unicode="&#x1e24;" horiz-adv-x="638" 
d="M473 0v319h-307v-319h-82v689h82v-299h307v299h80v-689h-80zM280 -169v86h76v-86h-76z" />
    <glyph glyph-name="hdotbelow" unicode="&#x1e25;" 
d="M435 0h-77v340q0 35 -20.5 52.5t-52.5 17.5q-34 0 -69.5 -9.5t-69.5 -29.5v-371h-77v720h77v-283q38 21 74.5 30.5t78.5 9.5q28 0 53 -7.5t43.5 -23t29 -40.5t10.5 -61v-345zM213 -169v86h76v-86h-76z" />
    <glyph glyph-name="Ldotbelow" unicode="&#x1e36;" horiz-adv-x="478" 
d="M84 0v689h82v-618h287v-71h-369zM235 -169v86h76v-86h-76z" />
    <glyph glyph-name="ldotbelow" unicode="&#x1e37;" horiz-adv-x="215" 
d="M69 0v720h77v-720h-77zM70 -169v86h76v-86h-76z" />
    <glyph glyph-name="Ldotbelowmacron" unicode="&#x1e38;" horiz-adv-x="478" 
d="M84 0v689h82v-618h287v-71h-369zM235 -169v86h76v-86h-76zM263 792h-280v58h280v-58z" />
    <glyph glyph-name="ldotbelowmacron" unicode="&#x1e39;" horiz-adv-x="215" 
d="M69 0v720h77v-720h-77zM70 -169v86h76v-86h-76zM246 822h-280v58h280v-58z" />
    <glyph glyph-name="Mdotbelow" unicode="&#x1e42;" horiz-adv-x="806" 
d="M644 0v627q-8 -35 -17 -69t-17 -60l-160 -498h-97l-158 498q-8 25 -16.5 58t-17.5 71v-627h-77v689h130l158 -499q10 -32 17.5 -64.5t12.5 -60.5q5 28 12 60.5t18 64.5l160 499h130v-689h-78zM361 -169v86h76v-86h-76z" />
    <glyph glyph-name="mdotbelow" unicode="&#x1e43;" horiz-adv-x="727" 
d="M131 467l9 -33q67 42 142 42q32 0 59 -11.5t43 -37.5q38 24 76 36.5t81 12.5q25 0 47.5 -7t39 -22.5t26 -40.5t9.5 -61v-345h-77v340q0 35 -17 52t-46 17t-60.5 -9.5t-60.5 -30.5q2 -11 2.5 -22t0.5 -22v-325h-78v340q0 35 -17 52t-45 17q-29 0 -59.5 -9.5t-59.5 -29.5
v-370h-77v467h62zM327 -169v86h76v-86h-76z" />
    <glyph glyph-name="Ndotaccent" unicode="&#x1e44;" horiz-adv-x="648" 
d="M451 165q14 -29 22 -50t17 -46h2q0 7 -1 21t-2 29t-1.5 28.5t-0.5 21.5v520h77v-689h-113l-257 532q-9 19 -17 38.5t-19 45.5h-2q1 -8 1.5 -21.5t1.5 -28t1.5 -28t0.5 -19.5v-519h-77v689h114zM283 775v86h76v-86h-76z" />
    <glyph glyph-name="ndotaccent" unicode="&#x1e45;" 
d="M214 566v86h76v-86h-76zM435 0h-77v340q0 35 -20.5 52.5t-52.5 17.5q-34 0 -69.5 -9.5t-69.5 -29.5v-371h-77v467h62l9 -33q39 21 76.5 32t82.5 11q28 0 53 -7.5t43.5 -23t29 -40.5t10.5 -61v-345z" />
    <glyph glyph-name="Ndotbelow" unicode="&#x1e46;" horiz-adv-x="648" 
d="M451 165q14 -29 22 -50t17 -46h2q0 7 -1 21t-2 29t-1.5 28.5t-0.5 21.5v520h77v-689h-113l-257 532q-9 19 -17 38.5t-19 45.5h-2q1 -8 1.5 -21.5t1.5 -28t1.5 -28t0.5 -19.5v-519h-77v689h114zM282 -169v86h76v-86h-76z" />
    <glyph glyph-name="ndotbelow" unicode="&#x1e47;" 
d="M435 0h-77v340q0 35 -20.5 52.5t-52.5 17.5q-34 0 -69.5 -9.5t-69.5 -29.5v-371h-77v467h62l9 -33q39 21 76.5 32t82.5 11q28 0 53 -7.5t43.5 -23t29 -40.5t10.5 -61v-345zM213 -169v86h76v-86h-76z" />
    <glyph glyph-name="Rdotbelow" unicode="&#x1e5a;" horiz-adv-x="537" 
d="M412 0l-132 291h-115v-291h-81v689h238q48 0 81 -13.5t53.5 -39t29.5 -61t9 -78.5q0 -88 -32.5 -137.5t-101.5 -62.5l138 -297h-87zM414 496q0 25 -3.5 47.5t-14 38.5t-28.5 25.5t-46 9.5h-157v-254h144q34 0 54.5 9.5t31.5 27t15 42t4 54.5zM245 -169v86h76v-86h-76z
" />
    <glyph glyph-name="rdotbelow" unicode="&#x1e5b;" horiz-adv-x="322" 
d="M253 476q14 0 26.5 -1t23.5 -4l-4 -74q-12 4 -26.5 5.5t-28.5 1.5t-28.5 -5t-27.5 -13t-24 -18t-18 -20v-348h-77v467h62l8 -53q24 30 50 46t64 16zM69 -169v86h76v-86h-76z" />
    <glyph glyph-name="Rdotbelowmacron" unicode="&#x1e5c;" horiz-adv-x="537" 
d="M412 0l-132 291h-115v-291h-81v689h238q48 0 81 -13.5t53.5 -39t29.5 -61t9 -78.5q0 -88 -32.5 -137.5t-101.5 -62.5l138 -297h-87zM414 496q0 25 -3.5 47.5t-14 38.5t-28.5 25.5t-46 9.5h-157v-254h144q34 0 54.5 9.5t31.5 27t15 42t4 54.5zM245 -169v86h76v-86h-76z
M410 792h-280v58h280v-58z" />
    <glyph glyph-name="rdotbelowmacron" unicode="&#x1e5d;" horiz-adv-x="322" 
d="M253 476q14 0 26.5 -1t23.5 -4l-4 -74q-12 4 -26.5 5.5t-28.5 1.5t-28.5 -5t-27.5 -13t-24 -18t-18 -20v-348h-77v467h62l8 -53q24 30 50 46t64 16zM326 587h-280v58h280v-58zM69 -169v86h76v-86h-76z" />
    <glyph glyph-name="Sdotbelow" unicode="&#x1e62;" horiz-adv-x="488" 
d="M361 172q0 23 -7.5 38t-21.5 29q-24 24 -53 43.5t-59.5 38t-60.5 39t-57 47.5q-24 24 -39.5 53t-15.5 74q0 76 51.5 120.5t147.5 44.5q43 0 80.5 -3.5t74.5 -10.5l-6 -74q-38 7 -74 11.5t-76 4.5q-57 0 -86 -27.5t-29 -66.5q0 -22 6 -37t23 -32q24 -24 54 -44t62.5 -39.5
t64 -40.5t58.5 -48q24 -24 35.5 -51.5t11.5 -69.5t-16.5 -75.5t-46.5 -57t-71 -36t-89 -12.5q-19 0 -41.5 1t-44.5 3.5t-42.5 5.5t-35.5 6l6 75q42 -8 80 -13t71 -5q70 0 108 28.5t38 80.5zM208 -169v86h76v-86h-76z" />
    <glyph glyph-name="sdotbelow" unicode="&#x1e63;" horiz-adv-x="395" 
d="M356 121q0 -33 -13.5 -57.5t-37.5 -40.5t-56.5 -24t-69.5 -8q-10 0 -25 1t-31.5 3t-33.5 4.5t-30 6.5l6 68q31 -8 63 -12.5t54 -4.5q54 0 76.5 16.5t22.5 43.5q0 13 -4 21t-12 16q-16 16 -39.5 29t-49.5 26t-51.5 28t-45.5 35q-16 16 -25.5 35t-9.5 50t12.5 53.5
t34.5 37.5t51.5 22.5t64.5 7.5q28 0 59.5 -3.5t60.5 -8.5l-6 -70q-29 7 -61 11t-58 4q-45 0 -63 -16t-18 -39q0 -12 3.5 -20t11.5 -16q13 -14 37 -27t50.5 -27t52.5 -29t43 -32q19 -19 28 -37t9 -47zM166 -169v86h76v-86h-76z" />
    <glyph glyph-name="Tdotbelow" unicode="&#x1e6c;" horiz-adv-x="490" 
d="M286 617v-617h-80v617h-181v72h440v-72h-179zM210 -169v86h76v-86h-76z" />
    <glyph glyph-name="tdotbelow" unicode="&#x1e6d;" horiz-adv-x="348" 
d="M179 400v-295q0 -25 6.5 -35.5t29.5 -10.5q18 0 47 3.5t51 9.5l3 -66q-23 -7 -53 -11t-53 -4q-35 0 -56.5 8.5t-33 22.5t-15.5 33.5t-4 40.5v304h-72v62l73 5v138h77v-138h135v-67h-135zM173 -169v86h76v-86h-76z" />
    <glyph glyph-name="Wgrave" unicode="&#x1e80;" horiz-adv-x="853" 
d="M827 689l-157 -689h-112l-108 494q-8 36 -14 71.5t-9 61.5q-4 -26 -10.5 -62.5t-14.5 -71.5l-111 -493h-112l-153 689h85l100 -468q8 -38 14.5 -79.5t9.5 -70.5q5 29 14.5 70.5t17.5 79.5l105 468h111l103 -468q8 -38 16 -80t12 -71q1 15 4.5 34t7.5 39t8 39.5t8 36.5
l101 470h84zM287 889h89l85 -145h-57z" />
    <glyph glyph-name="wgrave" unicode="&#x1e81;" horiz-adv-x="672" 
d="M382 467l78 -324q5 -18 8.5 -39.5t8.5 -46.5q5 25 8.5 46t8.5 42l75 322h79l-124 -467h-95l-80 337q-4 17 -7.5 36t-5.5 39q-5 -35 -8 -52t-5 -25l-81 -335h-94l-124 467h77l77 -319q5 -22 9 -44.5t9 -46.5q6 43 18 90l77 320h91zM184 684h89l85 -145h-57z" />
    <glyph glyph-name="Wacute" unicode="&#x1e82;" horiz-adv-x="853" 
d="M463 745h-57l85 145h89zM827 689l-157 -689h-112l-108 494q-8 36 -14 71.5t-9 61.5q-4 -26 -10.5 -62.5t-14.5 -71.5l-111 -493h-112l-153 689h85l100 -468q8 -38 14.5 -79.5t9.5 -70.5q5 29 14.5 70.5t17.5 79.5l105 468h111l103 -468q8 -38 16 -80t12 -71q1 15 4.5 34
t7.5 39t8 39.5t8 36.5l101 470h84z" />
    <glyph glyph-name="wacute" unicode="&#x1e83;" horiz-adv-x="672" 
d="M360 539h-57l85 145h89zM382 467l78 -324q5 -18 8.5 -39.5t8.5 -46.5q5 25 8.5 46t8.5 42l75 322h79l-124 -467h-95l-80 337q-4 17 -7.5 36t-5.5 39q-5 -35 -8 -52t-5 -25l-81 -335h-94l-124 467h77l77 -319q5 -22 9 -44.5t9 -46.5q6 43 18 90l77 320h91z" />
    <glyph glyph-name="Wdieresis" unicode="&#x1e84;" horiz-adv-x="853" 
d="M827 689l-157 -689h-112l-108 494q-8 36 -14 71.5t-9 61.5q-4 -26 -10.5 -62.5t-14.5 -71.5l-111 -493h-112l-153 689h85l100 -468q8 -38 14.5 -79.5t9.5 -70.5q5 29 14.5 70.5t17.5 79.5l105 468h111l103 -468q8 -38 16 -80t12 -71q1 15 4.5 34t7.5 39t8 39.5t8 36.5
l101 470h84zM480 777v81h80v-81h-80zM305 777v81h80v-81h-80z" />
    <glyph glyph-name="wdieresis" unicode="&#x1e85;" horiz-adv-x="672" 
d="M375 572v81h80v-81h-80zM200 572v81h80v-81h-80zM382 467l78 -324q5 -18 8.5 -39.5t8.5 -46.5q5 25 8.5 46t8.5 42l75 322h79l-124 -467h-95l-80 337q-4 17 -7.5 36t-5.5 39q-5 -35 -8 -52t-5 -25l-81 -335h-94l-124 467h77l77 -319q5 -22 9 -44.5t9 -46.5q6 43 18 90
l77 320h91z" />
    <glyph glyph-name="Zdotbelow" unicode="&#x1e92;" horiz-adv-x="508" 
d="M41 0v55l326 561h-316v73h416v-54l-325 -563h325v-72h-426zM219 -169v86h76v-86h-76z" />
    <glyph glyph-name="zdotbelow" unicode="&#x1e93;" horiz-adv-x="410" 
d="M366 0h-322v56l223 344h-215v67h310v-56l-222 -343h226v-68zM170 -169v86h76v-86h-76z" />
    <glyph glyph-name="Idotbelow" unicode="&#x1eca;" horiz-adv-x="248" 
d="M83 0v689h82v-689h-82zM87 -169v86h76v-86h-76z" />
    <glyph glyph-name="idotbelow" unicode="&#x1ecb;" horiz-adv-x="221" 
d="M69 568v93h82v-93h-82zM72 0v467h77v-467h-77zM74 -169v86h76v-86h-76z" />
    <glyph glyph-name="Odotbelow" unicode="&#x1ecc;" horiz-adv-x="634" 
d="M577 343q0 -80 -11 -145.5t-40 -111.5t-79.5 -71t-129.5 -25q-78 0 -128.5 25t-80 71.5t-40.5 111.5t-11 146q0 80 11 145.5t40.5 112t80 72t128.5 25.5q79 0 129.5 -25.5t79.5 -72t40 -112t11 -146.5zM493 344q0 67 -7 120t-26.5 89t-54 55t-88.5 19t-88.5 -19t-54 -55
t-26.5 -89t-7 -120q0 -68 7 -120t26.5 -88t54 -54.5t88.5 -18.5t88.5 18.5t54 54.5t26.5 88t7 120zM279 -169v86h76v-86h-76z" />
    <glyph glyph-name="odotbelow" unicode="&#x1ecd;" horiz-adv-x="510" 
d="M461 233q0 -131 -52 -187t-154 -56t-154 56t-52 187q0 132 52 188t154 56t154 -56t52 -188zM380 233q0 44 -5.5 77t-20 55.5t-38.5 33.5t-61 11q-38 0 -62 -11t-38 -33.5t-19.5 -55.5t-5.5 -77t5.5 -76.5t19.5 -54.5t38 -33t62 -11q37 0 61 11t38.5 33t20 54.5t5.5 76.5z
M214 -169v86h76v-86h-76z" />
    <glyph glyph-name="Udotbelow" unicode="&#x1ee4;" horiz-adv-x="597" 
d="M528 189q0 -54 -19.5 -91.5t-51.5 -61.5t-73.5 -35t-85.5 -11q-43 0 -84 11t-73.5 34.5t-52 61.5t-19.5 92v500h81v-499q0 -63 41.5 -95.5t107.5 -32.5q31 0 58.5 8t47.5 24t31.5 40t11.5 56v499h80v-500zM265 -169v86h76v-86h-76z" />
    <glyph glyph-name="udotbelow" unicode="&#x1ee5;" 
d="M64 467h77v-340q0 -35 20.5 -52t53.5 -17t68.5 9.5t69.5 29.5v370h77v-467h-62l-9 33q-38 -21 -76.5 -31.5t-81.5 -10.5q-29 0 -54 7t-43.5 23t-29 40.5t-10.5 60.5v345zM208 -169v86h76v-86h-76z" />
    <glyph glyph-name="Ygrave" unicode="&#x1ef2;" horiz-adv-x="534" 
d="M308 284v-284h-82v285l-210 404h89l163 -321l160 321h90zM126 890h89l85 -145h-57z" />
    <glyph glyph-name="ygrave" unicode="&#x1ef3;" horiz-adv-x="440" 
d="M22 467h85l118 -385l116 385h77l-174 -539q-15 -47 -30.5 -78.5t-35 -50.5t-44.5 -27t-61 -8q-17 0 -33.5 2t-27.5 5l6 68q22 -6 52 -6q21 0 36.5 7.5t28.5 25.5t24.5 49t25.5 78zM78 684h89l85 -145h-57z" />
    <glyph glyph-name="Ytilde" unicode="&#x1ef8;" horiz-adv-x="534" 
d="M308 284v-284h-82v285l-210 404h89l163 -321l160 321h90zM333 825q17 0 34 14t34 39l26 -52q-17 -23 -41 -40.5t-50 -17.5q-18 0 -36.5 7.5t-36 16t-33 16t-26.5 7.5q-20 0 -36.5 -15.5t-32.5 -38.5l-26 53q17 22 40 39.5t51 17.5q17 0 35 -7t36 -16t34 -16t28 -7z" />
    <glyph glyph-name="ytilde" unicode="&#x1ef9;" horiz-adv-x="440" 
d="M22 467h85l118 -385l116 385h77l-174 -539q-15 -47 -30.5 -78.5t-35 -50.5t-44.5 -27t-61 -8q-17 0 -33.5 2t-27.5 5l6 68q22 -6 52 -6q21 0 36.5 7.5t28.5 25.5t24.5 49t25.5 78zM282 620q17 0 34 14t34 39l26 -52q-17 -23 -41 -40.5t-50 -17.5q-18 0 -36.5 7.5t-36 16
t-33 16t-26.5 7.5q-20 0 -36.5 -15.5t-32.5 -38.5l-26 53q17 22 40 39.5t51 17.5q17 0 35 -7t36 -16t34 -16t28 -7z" />
    <glyph glyph-name="endash" unicode="&#x2013;" horiz-adv-x="557" 
d="M55 204v67h447v-67h-447z" />
    <glyph glyph-name="emdash" unicode="&#x2014;" horiz-adv-x="731" 
d="M55 204v67h621v-67h-621z" />
    <glyph glyph-name="underscoredbl" unicode="&#x2017;" horiz-adv-x="526" 
d="M7 -134v57h512v-57h-512zM7 -231v57h512v-57h-512z" />
    <glyph glyph-name="quoteleft" unicode="&#x2018;" horiz-adv-x="230" 
d="M68 535q9 92 59 162h57q-9 -23 -15.5 -42.5t-10.5 -39.5t-5.5 -43.5t-1.5 -53.5l1 -35h-87z" />
    <glyph glyph-name="quoteright" unicode="&#x2019;" horiz-adv-x="230" 
d="M162 637q-9 -92 -59 -162h-57q9 23 15.5 42.5t10.5 39.5t5.5 43.5t1.5 53.5l-1 35h87z" />
    <glyph glyph-name="quotesinglbase" unicode="&#x201a;" horiz-adv-x="230" 
d="M162 53q-9 -92 -59 -162h-57q9 23 15.5 42.5t10.5 39.5t5.5 43.5t1.5 53.5l-1 35h87z" />
    <glyph glyph-name="quotedblleft" unicode="&#x201c;" horiz-adv-x="381" 
d="M68 535q9 92 59 162h57q-9 -23 -15.5 -42.5t-10.5 -39.5t-5.5 -43.5t-1.5 -53.5l1 -35h-87zM219 535q9 92 59 162h57q-9 -23 -15.5 -42.5t-10.5 -39.5t-5.5 -43.5t-1.5 -53.5l1 -35h-87z" />
    <glyph glyph-name="quotedblright" unicode="&#x201d;" horiz-adv-x="381" 
d="M162 637q-9 -92 -59 -162h-57q9 23 15.5 42.5t10.5 39.5t5.5 43.5t1.5 53.5l-1 35h87zM313 637q-9 -92 -59 -162h-57q9 23 15.5 42.5t10.5 39.5t5.5 43.5t1.5 53.5l-1 35h87z" />
    <glyph glyph-name="quotedblbase" unicode="&#x201e;" horiz-adv-x="381" 
d="M313 53q-9 -92 -59 -162h-57q9 23 15.5 42.5t10.5 39.5t5.5 43.5t1.5 53.5l-1 35h87zM162 53q-9 -92 -59 -162h-57q9 23 15.5 42.5t10.5 39.5t5.5 43.5t1.5 53.5l-1 35h87z" />
    <glyph glyph-name="dagger" unicode="&#x2020;" horiz-adv-x="469" 
d="M268 441v-472h-69v472h-148v66h148v182h69v-182h150v-66h-150z" />
    <glyph glyph-name="daggerdbl" unicode="&#x2021;" horiz-adv-x="469" 
d="M268 441v-197h150v-66h-150v-209h-69v209h-148v66h148v197h-148v66h148v182h69v-182h150v-66h-150z" />
    <glyph glyph-name="bullet" unicode="&#x2022;" horiz-adv-x="285" 
d="M219 313q0 -32 -22.5 -54t-54.5 -22t-54 22t-22 54t22 54.5t54 22.5t54.5 -22.5t22.5 -54.5z" />
    <glyph glyph-name="ellipsis" unicode="&#x2026;" horiz-adv-x="1165" 
d="M886 0v98h95v-98h-95zM535 0v98h95v-98h-95zM184 0v98h95v-98h-95z" />
    <glyph glyph-name="perthousand" unicode="&#x2030;" horiz-adv-x="890" 
d="M274 546q0 -80 -28.5 -113t-91.5 -33t-91.5 33.5t-28.5 112.5q0 80 28.5 113.5t91.5 33.5t91.5 -33.5t28.5 -113.5zM180 0h-62l294 689h62zM212 546q0 31 -3.5 50.5t-10.5 30.5t-18 14.5t-26 3.5t-26 -3.5t-18 -14.5t-10.5 -30.5t-3.5 -50.5q0 -32 3.5 -51t10.5 -29.5
t18 -14t26 -3.5t26 3.5t18 14t10.5 29.5t3.5 51zM856 136q0 -80 -28 -113t-91 -33q-65 0 -93 33t-28 113t28 113.5t93 33.5q63 0 91 -33.5t28 -113.5zM555 136q0 -80 -28 -113t-91 -33q-65 0 -93 33t-28 113t28 113.5t93 33.5q63 0 91 -33.5t28 -113.5zM794 136
q0 31 -3.5 50.5t-10 30.5t-17.5 14.5t-26 3.5t-26.5 -3.5t-18.5 -14t-10.5 -30t-3.5 -51.5t3.5 -51t10.5 -29.5t18.5 -14t26.5 -3.5t26 3.5t17.5 14t10 29.5t3.5 51zM493 136q0 31 -3.5 50.5t-10 30.5t-17.5 14.5t-26 3.5t-26.5 -3.5t-18.5 -14t-10.5 -30t-3.5 -51.5
t3.5 -51t10.5 -29.5t18.5 -14t26.5 -3.5t26 3.5t17.5 14t10 29.5t3.5 51z" />
    <glyph glyph-name="guilsinglleft" unicode="&#x2039;" horiz-adv-x="335" 
d="M124 252l158 -188h-83l-153 184v9l156 184h84l-162 -188v-1z" />
    <glyph glyph-name="guilsinglright" unicode="&#x203a;" horiz-adv-x="335" 
d="M193 253l-162 188h84l156 -184v-9l-153 -184h-83l158 188v1z" />
    <glyph glyph-name="exclamdbl" unicode="&#x203c;" horiz-adv-x="538" 
d="M404 197h-66l-11 492h89zM199 197h-66l-11 492h89zM324 0v95h95v-95h-95zM119 0v95h95v-95h-95z" />
    <glyph glyph-name="fraction" unicode="&#x2044;" horiz-adv-x="153" 
d="M-97 0h-62l408 689h63z" />
    <glyph glyph-name="uni2070" unicode="&#x2070;" horiz-adv-x="321" 
d="M35 506q0 50 6 86t21 58.5t39 33t60 10.5q71 0 98 -44t27 -144q0 -50 -6 -85.5t-20.5 -58t-38.5 -33t-60 -10.5t-60 10.5t-39 33t-21 58t-6 85.5zM223 506q0 41 -2.5 67.5t-9.5 41.5t-19 21t-31 6q-20 0 -32.5 -6t-19.5 -21t-9.5 -41.5t-2.5 -67.5t3 -67t10 -41t19.5 -21
t31.5 -6t31 6t19 21t9.5 41t2.5 67z" />
    <glyph glyph-name="uni2074" unicode="&#x2074;" horiz-adv-x="317" 
d="M244 418v-93h-59v93h-152l-3 51l100 225h60l-95 -224h90l6 103h53v-103h56v-52h-56z" />
    <glyph glyph-name="uni2075" unicode="&#x2075;" horiz-adv-x="278" 
d="M186 433q0 10 -2.5 19.5t-10 17t-20.5 12.5t-35 5h-76v202h193v-52h-136v-95h30q57 0 88 -26t31 -80q0 -58 -34 -87.5t-99 -29.5q-13 0 -37.5 1.5t-38.5 3.5l3 53q28 -5 62 -5q16 0 30.5 1.5t26 8t18.5 18.5t7 33z" />
    <glyph glyph-name="uni2076" unicode="&#x2076;" horiz-adv-x="306" 
d="M35 494q0 106 37.5 153t121.5 47q11 0 25.5 -1t27.5 -3l-2 -52q-11 2 -23.5 3t-25.5 1q-57 0 -77 -28.5t-20 -85.5q11 8 32 15t38 7q51 0 80.5 -27t29.5 -84q0 -58 -33.5 -89t-83.5 -31q-39 0 -64 16t-39 41t-19 56t-5 62zM162 496q-17 0 -34.5 -7.5t-28.5 -17.5
q0 -17 2.5 -34.5t9.5 -32t19 -23.5t32 -9q54 0 54 67q0 31 -13 44t-41 13z" />
    <glyph glyph-name="uni2077" unicode="&#x2077;" horiz-adv-x="261" 
d="M122 325h-64l101 274q3 9 7.5 19t7.5 17v1q-10 -1 -18.5 -1h-15.5h-117v54h218l2 -36z" />
    <glyph glyph-name="uni2078" unicode="&#x2078;" horiz-adv-x="314" 
d="M156 694q24 0 44.5 -5t35.5 -16.5t23.5 -30.5t8.5 -47q0 -26 -12.5 -46.5t-30.5 -33.5q22 -12 38 -34.5t16 -55.5q0 -59 -35.5 -83t-87.5 -24q-26 0 -48 5.5t-38 18.5t-25.5 33t-9.5 50q0 33 16 55.5t37 33.5q-18 14 -30 34.5t-12 46.5q0 28 8.5 47t23 30.5t34.5 16.5
t44 5zM156 646q-23 0 -37 -11.5t-14 -43.5q0 -23 12 -37.5t39 -14.5t39 14.5t12 37.5q0 32 -14 43.5t-37 11.5zM156 370q27 0 44 12t17 48q0 26 -14.5 41.5t-46.5 15.5t-46 -15.5t-14 -41.5q0 -36 16.5 -48t43.5 -12z" />
    <glyph glyph-name="uni2079" unicode="&#x2079;" horiz-adv-x="305" 
d="M270 519q0 -107 -38 -153.5t-122 -46.5q-10 0 -23 0.5t-30 2.5l3 54q11 -2 23 -3.5t25 -1.5q57 0 77.5 29t20.5 86q-12 -9 -32.5 -15t-37.5 -6q-52 0 -80.5 26t-28.5 84t32.5 88.5t84.5 30.5q39 0 63.5 -15.5t38.5 -40.5t19 -56.5t5 -62.5zM143 518q17 0 34 7.5t28 17.5
q0 16 -2.5 33.5t-9.5 31.5t-19 23.5t-31 9.5q-54 0 -54 -66q0 -32 12.5 -44.5t41.5 -12.5z" />
    <glyph glyph-name="uni207A" unicode="&#x207a;" horiz-adv-x="312" 
d="M186 487v-96h-62v96h-96v51h96v97h62v-97h98v-51h-98z" />
    <glyph glyph-name="uni207B" unicode="&#x207b;" horiz-adv-x="312" 
d="M28 487v51h256v-51h-256z" />
    <glyph glyph-name="uni207C" unicode="&#x207c;" horiz-adv-x="331" 
d="M38 537v52h255v-52h-255zM38 436v52h255v-52h-255z" />
    <glyph glyph-name="uni207D" unicode="&#x207d;" horiz-adv-x="179" 
d="M144 756q-17 -54 -27.5 -118.5t-10.5 -131.5t8.5 -129.5t26.5 -117.5h-58q-18 51 -29.5 117t-11.5 131t11.5 131t29.5 118h61z" />
    <glyph glyph-name="uni207E" unicode="&#x207e;" horiz-adv-x="179" 
d="M95 756q19 -52 30.5 -118t11.5 -131t-11 -131t-31 -117h-57q17 54 26 117.5t9 129.5q0 67 -10 131.5t-28 118.5h60z" />
    <glyph glyph-name="n.superior" unicode="&#x207f;" horiz-adv-x="279" 
d="M244 339h-56v190q0 14 -8 19t-20 5q-19 0 -36.5 -6t-28.5 -14v-194h-56v257h42l4 -18q17 11 38 17t43 6q13 0 27 -3.5t25.5 -11t18.5 -20t7 -31.5v-196z" />
    <glyph glyph-name="uni2080" unicode="&#x2080;" horiz-adv-x="321" 
d="M35 181q0 50 6 86t21 58.5t39 33t60 10.5q71 0 98 -44t27 -144q0 -50 -6 -85.5t-20.5 -58t-38.5 -33t-60 -10.5t-60 10.5t-39 33t-21 58t-6 85.5zM223 181q0 41 -2.5 67.5t-9.5 41.5t-19 21t-31 6q-20 0 -32.5 -6t-19.5 -21t-9.5 -41.5t-2.5 -67.5t3 -67t10 -41t19.5 -21
t31.5 -6t31 6t19 21t9.5 41t2.5 67z" />
    <glyph glyph-name="uni2081" unicode="&#x2081;" horiz-adv-x="198" 
d="M84 0v315h-54v49h113v-364h-59z" />
    <glyph glyph-name="uni2082" unicode="&#x2082;" horiz-adv-x="292" 
d="M121 51q6 1 17 1.5t19 0.5h95v-53h-207v46l94 117q16 21 33 45.5t17 52.5q0 27 -14 41.5t-49 14.5q-13 0 -34.5 -2t-38.5 -5l-2 51q25 5 44 6.5t42 1.5q58 0 85 -27.5t27 -78.5q0 -30 -13 -59t-34 -54l-54 -66q-8 -9 -13.5 -16.5t-13.5 -15.5v-1z" />
    <glyph glyph-name="uni2083" unicode="&#x2083;" horiz-adv-x="276" 
d="M125 369q52 0 80.5 -23t28.5 -74q0 -30 -11.5 -50t-24.5 -33q17 -11 30 -29t13 -52q0 -60 -32 -87t-95 -27h-16.5t-22 0.5t-22.5 1t-20 2.5l2 54q14 -2 32 -3.5t36 -1.5q15 0 28.5 2t24 8t17 18.5t6.5 33.5q0 29 -14 41t-35 12h-47v51h43q26 0 37 14t11 36q0 32 -15.5 43
t-44.5 11q-17 0 -37.5 -2t-37.5 -4l-2 51q21 5 45 6t43 1z" />
    <glyph glyph-name="uni2084" unicode="&#x2084;" horiz-adv-x="317" 
d="M244 93v-93h-59v93h-152l-3 51l100 225h60l-95 -224h90l6 103h53v-103h56v-52h-56z" />
    <glyph glyph-name="uni2085" unicode="&#x2085;" horiz-adv-x="278" 
d="M186 108q0 10 -2.5 19.5t-10 17t-20.5 12.5t-35 5h-76v202h193v-52h-136v-95h30q57 0 88 -26t31 -80q0 -58 -34 -87.5t-99 -29.5q-13 0 -37.5 1.5t-38.5 3.5l3 53q28 -5 62 -5q16 0 30.5 1.5t26 8t18.5 18.5t7 33z" />
    <glyph glyph-name="uni2086" unicode="&#x2086;" horiz-adv-x="306" 
d="M35 169q0 106 37.5 153t121.5 47q11 0 25.5 -1t27.5 -3l-2 -52q-11 2 -23.5 3t-25.5 1q-57 0 -77 -28.5t-20 -85.5q11 8 32 15t38 7q51 0 80.5 -27t29.5 -84q0 -58 -33.5 -89t-83.5 -31q-39 0 -64 16t-39 41t-19 56t-5 62zM162 171q-17 0 -34.5 -7.5t-28.5 -17.5
q0 -17 2.5 -34.5t9.5 -32t19 -23.5t32 -9q54 0 54 67q0 31 -13 44t-41 13z" />
    <glyph glyph-name="uni2087" unicode="&#x2087;" horiz-adv-x="261" 
d="M122 0h-64l101 274q3 9 7.5 19t7.5 17v1q-10 -1 -18.5 -1h-15.5h-117v54h218l2 -36z" />
    <glyph glyph-name="uni2088" unicode="&#x2088;" horiz-adv-x="314" 
d="M156 369q24 0 44.5 -5t35.5 -16.5t23.5 -30.5t8.5 -47q0 -26 -12.5 -46.5t-30.5 -33.5q22 -12 38 -34.5t16 -55.5q0 -59 -35.5 -83t-87.5 -24q-26 0 -48 5.5t-38 18.5t-25.5 33t-9.5 50q0 33 16 55.5t37 33.5q-18 14 -30 34.5t-12 46.5q0 28 8.5 47t23 30.5t34.5 16.5
t44 5zM156 321q-23 0 -37 -11.5t-14 -43.5q0 -23 12 -37.5t39 -14.5t39 14.5t12 37.5q0 32 -14 43.5t-37 11.5zM156 45q27 0 44 12t17 48q0 26 -14.5 41.5t-46.5 15.5t-46 -15.5t-14 -41.5q0 -36 16.5 -48t43.5 -12z" />
    <glyph glyph-name="uni2089" unicode="&#x2089;" horiz-adv-x="305" 
d="M270 194q0 -107 -38 -153.5t-122 -46.5q-10 0 -23 0.5t-30 2.5l3 54q11 -2 23 -3.5t25 -1.5q57 0 77.5 29t20.5 86q-12 -9 -32.5 -15t-37.5 -6q-52 0 -80.5 26t-28.5 84t32.5 88.5t84.5 30.5q39 0 63.5 -15.5t38.5 -40.5t19 -56.5t5 -62.5zM143 193q17 0 34 7.5t28 17.5
q0 16 -2.5 33.5t-9.5 31.5t-19 23.5t-31 9.5q-54 0 -54 -66q0 -32 12.5 -44.5t41.5 -12.5z" />
    <glyph glyph-name="uni208A" unicode="&#x208a;" horiz-adv-x="312" 
d="M186 162v-96h-62v96h-96v51h96v97h62v-97h98v-51h-98z" />
    <glyph glyph-name="uni208B" unicode="&#x208b;" horiz-adv-x="312" 
d="M28 162v51h256v-51h-256z" />
    <glyph glyph-name="uni208C" unicode="&#x208c;" horiz-adv-x="331" 
d="M38 212v52h255v-52h-255zM38 111v52h255v-52h-255z" />
    <glyph glyph-name="uni208D" unicode="&#x208d;" horiz-adv-x="179" 
d="M144 431q-17 -54 -27.5 -118.5t-10.5 -131.5t8.5 -129.5t26.5 -117.5h-58q-18 51 -29.5 117t-11.5 131t11.5 131t29.5 118h61z" />
    <glyph glyph-name="uni208E" unicode="&#x208e;" horiz-adv-x="179" 
d="M95 431q19 -52 30.5 -118t11.5 -131t-11 -131t-31 -117h-57q17 54 26 117.5t9 129.5q0 67 -10 131.5t-28 118.5h60z" />
    <glyph glyph-name="uni20A1" unicode="&#x20a1;" horiz-adv-x="544" 
d="M221 -138v145q-46 16 -76 46.5t-48 74t-25.5 98t-7.5 118.5t7 118.5t25 97.5t48.5 73.5t76.5 47.5v131h66v-116q22 3 49 3h8v113h66v-118q19 -2 37 -5.5t38 -8.5l-9 -76q-38 10 -70 16.5t-70 6.5q-58 0 -94.5 -19t-57.5 -55.5t-28.5 -89t-7.5 -119.5t7.5 -119.5t28 -88.5
t56.5 -55t94 -19q37 0 71 6t74 17l6 -75q-19 -5 -37 -8.5t-38 -6.5v-133h-66v128h-11q-25 0 -46 3v-131h-66z" />
    <glyph glyph-name="uni20A2" unicode="&#x20a2;" horiz-adv-x="544" 
d="M444 283q-6 1 -12.5 1h-11.5q-18 0 -34.5 -6.5t-27.5 -23.5v-191q27 2 54 7.5t59 14.5l6 -75q-35 -9 -70 -14.5t-82 -5.5q-80 0 -132 25t-82.5 71.5t-42.5 112t-12 145.5q0 81 12 146.5t42.5 112t83.5 71.5t134 25q43 0 78 -5t71 -14l-9 -76q-38 10 -70 16.5t-70 6.5
q-58 0 -94.5 -19t-57.5 -55.5t-28.5 -89t-7.5 -119.5q0 -61 6 -109.5t22 -84.5t44.5 -57.5t73.5 -28.5v283h59l5 -27h1q13 18 30 25t37 7h14.5t13.5 -2z" />
    <glyph glyph-name="uni20A3" unicode="&#x20a3;" horiz-adv-x="544" 
d="M125 0v264h-78v57h78v67h-78v56h78v245h389v-74h-310v-171h213v-56h-213v-67h213v-57h-213v-264h-79z" />
    <glyph glyph-name="uni20A4" unicode="&#x20a4;" horiz-adv-x="544" 
d="M426 388h-203v-67h203v-57h-203v-127q0 -13 -3 -33t-9 -31v-1q7 0 15 1q7 0 14.5 0.5t13.5 0.5h249v-74h-457v74h87q7 9 9 23.5t2 25.5v141h-78v57h78v67h-78v56h78v61q0 54 11 91t33.5 60t57.5 33t83 10q29 0 70 -2t81 -8l-4 -75q-38 5 -75.5 7.5t-63.5 2.5
q-32 0 -53.5 -4t-35 -16t-19.5 -35t-6 -60v-65h203v-56z" />
    <glyph glyph-name="uni20A6" unicode="&#x20a6;" horiz-adv-x="744" 
d="M502 165q14 -29 22 -50t17 -46h2q0 7 -1 21t-2 29t-1.5 28.5t-0.5 21.5v520h77v-245h103v-56h-103v-67h103v-57h-103v-264h-113l-257 532q-9 19 -17 38.5t-19 45.5h-2q1 -8 1.5 -21.5t1.5 -28t1.5 -28t0.5 -19.5v-519h-77v264h-109v57h109v67h-109v56h109v245h114z" />
    <glyph glyph-name="uni20A7" unicode="&#x20a7;" horiz-adv-x="1234" 
d="M517 481q0 -11 -0.5 -21t-1.5 -21l72 1l3 129h72v-129h135v-69h-135v-266q0 -18 8.5 -32t37.5 -14q17 0 40.5 3t47.5 8l3 -66q-28 -7 -50 -10t-46 -3q-35 0 -57.5 8.5t-36 22.5t-18.5 33.5t-5 40.5v275h-86q-16 -44 -51.5 -70.5t-99.5 -26.5h-164v-274h-81v689h244
q50 0 83 -17t52 -45.5t26.5 -66.5t7.5 -79zM1154 110q0 -33 -14 -55.5t-38 -37t-56 -21t-67 -6.5q-12 0 -28.5 0.5t-34 1.5t-34.5 3t-30 4l3 69q20 -3 52 -6t67 -3q20 0 38.5 2t33 8t23 16.5t8.5 26.5q0 21 -13 32.5t-30 22.5l-107 68q-15 10 -30.5 21t-28 25.5t-20.5 34
t-8 45.5q0 62 43 89t118 27q12 0 28 -0.5t32.5 -1.5t33 -2.5t29.5 -3.5l-3 -68q-17 2 -45 5t-60 3q-20 0 -37.5 -1.5t-31.5 -6.5t-22 -14.5t-8 -25.5q0 -22 12 -34.5t26 -20.5l112 -71q20 -13 36 -25t27.5 -26.5t17.5 -32t6 -41.5zM437 481q0 27 -3.5 51.5t-13.5 43.5
t-28 30t-48 11h-159v-272h159q31 0 49 11t28 29.5t13 43.5t3 52z" />
    <glyph glyph-name="uni20A8" unicode="&#x20a8;" horiz-adv-x="966" 
d="M432 0l-132 291h-115v-291h-81v689h238q48 0 81 -13.5t53.5 -39t29.5 -61t9 -78.5q0 -88 -32.5 -137.5t-101.5 -62.5l138 -297h-87zM434 496q0 25 -3.5 47.5t-14 38.5t-28.5 25.5t-46 9.5h-157v-254h144q34 0 54.5 9.5t31.5 27t15 42t4 54.5zM886 121q0 -33 -13.5 -57.5
t-37.5 -40.5t-56.5 -24t-69.5 -8q-10 0 -25 1t-31.5 3t-33.5 4.5t-30 6.5l6 68q31 -8 63 -12.5t54 -4.5q54 0 76.5 16.5t22.5 43.5q0 13 -4 21t-12 16q-16 16 -39.5 29t-49.5 26t-51.5 28t-45.5 35q-16 16 -25.5 35t-9.5 50t12.5 53.5t34.5 37.5t51.5 22.5t64.5 7.5
q28 0 59.5 -3.5t60.5 -8.5l-6 -70q-29 7 -61 11t-58 4q-45 0 -63 -16t-18 -39q0 -12 3.5 -20t11.5 -16q13 -14 37 -27t50.5 -27t52.5 -29t43 -32q19 -19 28 -37t9 -47z" />
    <glyph glyph-name="uni20A9" unicode="&#x20a9;" horiz-adv-x="970" 
d="M886 689l-56 -245h111v-56h-124l-15 -67h139v-57h-152l-60 -264h-112l-108 494q-8 36 -14 71.5t-9 61.5q-4 -26 -10.5 -62.5t-14.5 -71.5l-111 -493h-112l-59 264h-150v57h138l-15 67h-123v56h110l-54 245h85l100 -468q8 -38 14.5 -79.5t9.5 -70.5q5 29 14.5 70.5
t17.5 79.5l105 468h111l103 -468q8 -38 16 -80t12 -71q1 15 4.5 34t7.5 39t8 39.5t8 36.5l101 470h84z" />
    <glyph glyph-name="uni20AA" unicode="&#x20aa;" horiz-adv-x="797" 
d="M449 0q-83 0 -129.5 44.5t-46.5 125.5v379h78v-356q0 -59 24.5 -89t86.5 -30h153v615h78v-689h-244zM348 689q83 0 129.5 -44.5t46.5 -125.5v-379h-78v357q0 59 -24.5 89t-86.5 30h-153v-616h-78v689h244z" />
    <glyph glyph-name="Euro" unicode="&#x20ac;" horiz-adv-x="544" 
d="M359 62q37 0 71 6t74 17l6 -75q-35 -9 -70 -14.5t-82 -5.5q-69 0 -117 18.5t-79 53.5t-47.5 84t-22.5 111h-59v56h56v66h-56v57h60q6 61 22.5 109.5t48 82.5t80 52.5t117.5 18.5q43 0 78 -5t71 -14l-9 -76q-38 10 -70 16.5t-70 6.5q-47 0 -80 -13t-54.5 -37.5t-33.5 -60
t-16 -80.5h265l-25 -57h-244v-66h224l-26 -56h-195q4 -47 15.5 -83.5t33 -61t54 -37.5t80.5 -13z" />
    <glyph glyph-name="uni20AE" unicode="&#x20ae;" horiz-adv-x="559" 
d="M320 617v-158l98 57v-65l-98 -56v-78l98 57v-65l-98 -57v-252h-80v206l-94 -54v65l94 54v78l-94 -54v64l94 54v204h-181v72h440v-72h-179z" />
    <glyph glyph-name="uni20B1" unicode="&#x20b1;" horiz-adv-x="652" 
d="M538 481q0 -25 -3 -49h106v-57h-118q-16 -45 -51.5 -73t-101.5 -28h-164v-274h-81v375h-108v57h108v67h-108v56h108v134h244q38 0 66 -10.5t47.5 -28.5t31 -42.5t17.5 -52.5h110v-56h-104q0 -5 0.5 -9t0.5 -9zM458 481q0 27 -3.5 51.5t-13.5 43.5t-28 30t-48 11h-159
v-272h159q31 0 49 11t28 29.5t13 43.5t3 52z" />
    <glyph glyph-name="afii61248" unicode="&#x2105;" horiz-adv-x="893" 
d="M307 285q-22 -4 -47.5 -6t-48.5 -2q-93 0 -133.5 48.5t-40.5 161.5q0 111 39 160.5t132 49.5q22 0 46 -2t47 -6l-3 -64q-44 9 -85 9q-25 0 -44 -5.5t-32 -21t-19.5 -44.5t-6.5 -76q0 -46 7 -74.5t20 -44t31.5 -21t41.5 -5.5t43 1.5t50 6.5zM856 200q0 -54 -8 -93.5
t-27 -65.5t-50 -38.5t-77 -12.5t-77 12.5t-49.5 38.5t-26.5 65.5t-8 93.5t8 93.5t26.5 65.5t49.5 38.5t77 12.5t77 -12.5t50 -38.5t27 -65.5t8 -93.5zM608 200q0 -45 4.5 -73.5t15 -45t26.5 -22.5t40 -6t40.5 6t27 22.5t15 45t4.5 73.5t-4.5 73.5t-15 45t-27 22.5t-40.5 6
t-40 -6t-26.5 -22.5t-15 -45t-4.5 -73.5zM272 0h-62l408 689h63z" />
    <glyph glyph-name="litre" unicode="&#x2113;" horiz-adv-x="370" 
d="M94 203q-8 -4 -17 -8t-17 -7l-3 79q18 8 37 21v243q0 90 31 129t89 39q29 0 50 -10t34.5 -27.5t19.5 -40.5t6 -50q0 -31 -9.5 -71t-29 -83t-48 -85t-67.5 -76v-145q0 -18 7.5 -35t34.5 -17q7 0 28 3t41 8l3 -66q-23 -7 -43.5 -10t-35.5 -3q-34 0 -55.5 9.5t-34 25
t-17 35.5t-4.5 41v101zM170 357q24 30 38.5 61.5t23 61.5t11.5 56.5t3 46.5q0 21 -7 34t-25 13q-12 0 -20.5 -9t-14 -23t-7.5 -31.5t-2 -34.5v-175z" />
    <glyph glyph-name="numero" unicode="&#x2116;" horiz-adv-x="1146" 
d="M1077 454q0 -132 -51.5 -188.5t-151.5 -56.5q-101 0 -152 57t-51 188q0 132 51 188.5t152 56.5q100 0 151.5 -56.5t51.5 -188.5zM216 504q-11 24 -23.5 53t-20.5 57h-2q1 -21 1.5 -51.5t0.5 -58.5v-504h-78v689h126l224 -502q13 -28 23.5 -58t20.5 -59h2q-1 21 -1.5 55
t-0.5 62v502h78v-689h-123zM999 454q0 53 -9 87t-25 54t-39.5 27.5t-51.5 7.5t-51 -7.5t-39.5 -27.5t-25.5 -54t-9 -87t9 -87t25.5 -53.5t39.5 -27t51 -7.5t51.5 7.5t39.5 27t25 53.5t9 87zM1038 69v-69h-325v69h325z" />
    <glyph glyph-name="servicemark" unicode="&#x2120;" horiz-adv-x="479" 
d="M177 535q0 -27 -22 -40t-51 -13h-22t-29 2q0 7 0.5 17.5t0.5 17.5q12 -2 27 -3t23 -1q14 0 25 4.5t11 15.5q0 9 -9 18t-21 17.5t-24.5 16.5t-19.5 15t-12 17t-5 25q0 26 18.5 36.5t47.5 10.5q8 0 22.5 -0.5t28.5 -2.5q0 -7 -0.5 -17t-0.5 -17q-12 2 -26.5 3t-24.5 1
q-11 0 -19 -3.5t-8 -12.5q0 -7 1.5 -10t4.5 -6q14 -14 32.5 -24t34.5 -27q8 -8 12.5 -17t4.5 -23zM388 484l2 171h-1q-2 -5 -4 -13t-4 -17t-4 -17l-3 -12l-32 -112h-46l-31 112q-2 6 -4.5 16t-4.5 20q-3 11 -6 23h-2v-171h-37v205h61l47 -171h1l45 171h61v-205h-38z" />
    <glyph glyph-name="trademark" unicode="&#x2122;" horiz-adv-x="485" 
d="M394 484l2 171h-1q-2 -5 -4 -13t-4 -17t-4 -17l-3 -12l-32 -112h-46l-31 112q-2 6 -4.5 16t-4.5 20q-3 11 -6 23h-2v-171h-37v205h61l47 -171h1l45 171h61v-205h-38zM138 657v-173h-36v173h-53v32h142v-32h-53z" />
    <glyph glyph-name="Omega" unicode="&#x2126;" horiz-adv-x="636" 
d="M318 699q76 0 126 -26.5t79.5 -69t41.5 -96t12 -108.5q0 -56 -13 -105t-32.5 -89.5t-43 -73t-44.5 -55.5v-2h121v-74h-215v74q19 17 44 45t48 67t39 89.5t16 111.5q0 48 -7.5 92t-27.5 77.5t-54.5 53t-89.5 19.5t-89.5 -19.5t-54.5 -53t-27.5 -77.5t-7.5 -92
q1 -61 16.5 -111.5t37.5 -89.5t46.5 -67t43.5 -45v-74h-212v74h120v2q-22 24 -45 56.5t-42.5 73t-32 89t-12.5 104.5q0 55 12 108.5t41.5 96t79.5 69t126 26.5z" />
    <glyph glyph-name="estimated" unicode="&#x212e;" horiz-adv-x="761" 
d="M697 221q-20 -120 -103 -176t-213 -56q-76 0 -137.5 25t-104.5 71t-66.5 110.5t-23.5 143.5q0 78 24 142t68 109.5t105 70.5t136 25q74 0 134.5 -25t104 -70.5t67 -109.5t23.5 -142v-25h-558q2 -56 15 -107t40 -89t71 -60.5t108 -22.5q105 0 170.5 44t82.5 142h57z
M382 639q-62 0 -105 -22t-69.5 -60.5t-39.5 -89t-15 -107.5h454q-1 57 -13 107.5t-38 89t-68.5 60.5t-105.5 22z" />
    <glyph glyph-name="oneeighth" unicode="&#x215b;" horiz-adv-x="609" 
d="M451 369q24 0 44.5 -5t35.5 -16.5t23.5 -30.5t8.5 -47q0 -26 -12.5 -46.5t-30.5 -33.5q22 -12 38 -34.5t16 -55.5q0 -59 -35.5 -83t-87.5 -24q-26 0 -48 5.5t-38 18.5t-25.5 33t-9.5 50q0 33 16 55.5t37 33.5q-18 14 -30 34.5t-12 46.5q0 28 8.5 47t23 30.5t34.5 16.5
t44 5zM451 321q-23 0 -37 -11.5t-14 -43.5q0 -23 12 -37.5t39 -14.5t39 14.5t12 37.5q0 32 -14 43.5t-37 11.5zM451 45q27 0 44 12t17 48q0 26 -14.5 41.5t-46.5 15.5t-46 -15.5t-14 -41.5q0 -36 16.5 -48t43.5 -12zM100 325v315h-54v49h113v-364h-59zM92 0h-62l408 689h63z
" />
    <glyph glyph-name="threeeighths" unicode="&#x215c;" horiz-adv-x="659" 
d="M125 694q52 0 80.5 -23t28.5 -74q0 -30 -11.5 -50t-24.5 -33q17 -11 30 -29t13 -52q0 -60 -32 -87t-95 -27h-16.5t-22 0.5t-22.5 1t-20 2.5l2 54q14 -2 32 -3.5t36 -1.5q15 0 28.5 2t24 8t17 18.5t6.5 33.5q0 29 -14 41t-35 12h-47v51h43q26 0 37 14t11 36q0 32 -15.5 43
t-44.5 11q-17 0 -37.5 -2t-37.5 -4l-2 51q21 5 45 6t43 1zM142 0h-62l408 689h63zM501 369q24 0 44.5 -5t35.5 -16.5t23.5 -30.5t8.5 -47q0 -26 -12.5 -46.5t-30.5 -33.5q22 -12 38 -34.5t16 -55.5q0 -59 -35.5 -83t-87.5 -24q-26 0 -48 5.5t-38 18.5t-25.5 33t-9.5 50
q0 33 16 55.5t37 33.5q-18 14 -30 34.5t-12 46.5q0 28 8.5 47t23 30.5t34.5 16.5t44 5zM501 321q-23 0 -37 -11.5t-14 -43.5q0 -23 12 -37.5t39 -14.5t39 14.5t12 37.5q0 32 -14 43.5t-37 11.5zM501 45q27 0 44 12t17 48q0 26 -14.5 41.5t-46.5 15.5t-46 -15.5t-14 -41.5
q0 -36 16.5 -48t43.5 -12z" />
    <glyph glyph-name="fiveeighths" unicode="&#x215d;" horiz-adv-x="664" 
d="M186 433q0 10 -2.5 19.5t-10 17t-20.5 12.5t-35 5h-76v202h193v-52h-136v-95h30q57 0 88 -26t31 -80q0 -58 -34 -87.5t-99 -29.5q-13 0 -37.5 1.5t-38.5 3.5l3 53q28 -5 62 -5q16 0 30.5 1.5t26 8t18.5 18.5t7 33zM147 0h-62l408 689h63zM506 369q24 0 44.5 -5
t35.5 -16.5t23.5 -30.5t8.5 -47q0 -26 -12.5 -46.5t-30.5 -33.5q22 -12 38 -34.5t16 -55.5q0 -59 -35.5 -83t-87.5 -24q-26 0 -48 5.5t-38 18.5t-25.5 33t-9.5 50q0 33 16 55.5t37 33.5q-18 14 -30 34.5t-12 46.5q0 28 8.5 47t23 30.5t34.5 16.5t44 5zM506 321
q-23 0 -37 -11.5t-14 -43.5q0 -23 12 -37.5t39 -14.5t39 14.5t12 37.5q0 32 -14 43.5t-37 11.5zM506 45q27 0 44 12t17 48q0 26 -14.5 41.5t-46.5 15.5t-46 -15.5t-14 -41.5q0 -36 16.5 -48t43.5 -12z" />
    <glyph glyph-name="seveneighths" unicode="&#x215e;" horiz-adv-x="602" 
d="M444 369q24 0 44.5 -5t35.5 -16.5t23.5 -30.5t8.5 -47q0 -26 -12.5 -46.5t-30.5 -33.5q22 -12 38 -34.5t16 -55.5q0 -59 -35.5 -83t-87.5 -24q-26 0 -48 5.5t-38 18.5t-25.5 33t-9.5 50q0 33 16 55.5t37 33.5q-18 14 -30 34.5t-12 46.5q0 28 8.5 47t23 30.5t34.5 16.5
t44 5zM85 0h-62l408 689h63zM130 325h-64l101 274q3 9 7.5 19t7.5 17v1q-10 -1 -18.5 -1h-15.5h-117v54h218l2 -36zM444 45q27 0 44 12t17 48q0 26 -14.5 41.5t-46.5 15.5t-46 -15.5t-14 -41.5q0 -36 16.5 -48t43.5 -12zM444 321q-23 0 -37 -11.5t-14 -43.5q0 -23 12 -37.5
t39 -14.5t39 14.5t12 37.5q0 32 -14 43.5t-37 11.5z" />
    <glyph glyph-name="arrowleft" unicode="&#x2190;" horiz-adv-x="1000" 
d="M821 385v-74h-522l220 -218h-95l-255 255l255 255h95l-220 -218h522z" />
    </font>
</defs>
</svg>
